<svg width="708" height="550" viewBox="0 0 708 550" fill="none" xmlns="http://www.w3.org/2000/svg">
<path d="M604.319 494.922C466.069 567.747 241.931 567.747 103.681 494.922C-34.5684 422.097 -34.5526 304.043 103.681 231.233C241.915 158.423 466.085 158.423 604.319 231.233C742.553 304.043 742.568 422.112 604.319 494.922Z" fill="#2B076E" fill-opacity="0.05"/>
<path d="M394.382 363.078C365.331 347.707 318.236 347.707 289.185 363.078C264.562 376.129 260.83 396.01 277.941 411.149C276.973 411.381 276.043 411.727 275.173 412.179L183.45 460.758C179.559 462.817 179.559 466.166 183.45 468.226L189.206 471.271C191.367 472.278 193.768 472.773 196.191 472.709C198.614 472.646 200.981 472.027 203.075 470.908L288.473 419.618C288.822 419.408 289.15 419.17 289.454 418.907C318.521 434.148 365.363 434.104 394.367 418.777C423.37 403.449 423.513 378.463 394.382 363.078Z" fill="#E6E6E6"/>
<path d="M598.579 307.147L481.678 369.168C480.22 369.847 478.609 370.201 476.973 370.201C475.338 370.201 473.726 369.847 472.269 369.168L268.911 261.497C266.317 260.134 266.317 257.901 268.911 256.523L385.811 194.502C387.269 193.823 388.881 193.469 390.516 193.469C392.151 193.469 393.763 193.823 395.221 194.502L598.579 302.173C601.172 303.536 601.172 305.769 598.579 307.147Z" fill="#E6E6E6"/>
<path d="M78.0149 424.446L46.7498 407.886C42.9701 405.885 42.9701 402.637 46.7498 400.636L264.309 285.453C266.431 284.466 268.777 283.951 271.156 283.951C273.536 283.951 275.882 284.466 278.004 285.453L309.285 302.013C313.065 304.014 313.065 307.263 309.285 309.264L91.7102 424.446C89.5881 425.434 87.2421 425.948 84.8625 425.948C82.483 425.948 80.1369 425.434 78.0149 424.446Z" fill="#E6E6E6"/>
<path d="M598.895 457.364C630.801 457.364 656.665 444.405 656.665 428.42C656.665 412.434 630.801 399.476 598.895 399.476C566.99 399.476 541.125 412.434 541.125 428.42C541.125 444.405 566.99 457.364 598.895 457.364Z" fill="#E6E6E6"/>
<path d="M624.182 399.679C624.735 393.254 630.966 380.334 638.968 372.532C646.97 364.731 658.91 359.481 666.802 362.628C674.155 365.528 672.542 374.591 662.832 379.928C653.122 385.264 638.699 391.833 633.749 401.941L624.182 414.093V399.679Z" fill="#BA68C8"/>
<path opacity="0.1" d="M624.182 399.679C624.735 393.254 630.966 380.334 638.968 372.532C646.97 364.731 658.91 359.481 666.802 362.628C674.155 365.528 672.542 374.591 662.832 379.928C653.122 385.264 638.699 391.833 633.749 401.941L624.182 414.093V399.679Z" fill="black"/>
<path d="M622.885 408.422C622.999 408.423 623.111 408.39 623.202 408.327C623.293 408.264 623.36 408.175 623.391 408.074C630.001 386.511 650.892 370.125 662.801 367.051C662.918 367.005 663.013 366.922 663.069 366.816C663.124 366.711 663.135 366.591 663.1 366.478C663.065 366.366 662.986 366.269 662.878 366.206C662.771 366.143 662.642 366.119 662.516 366.137C650.386 369.284 629.1 385.931 622.395 407.828C622.376 407.888 622.37 407.951 622.378 408.013C622.386 408.075 622.408 408.135 622.442 408.189C622.476 408.243 622.521 408.29 622.576 408.328C622.63 408.366 622.692 408.393 622.758 408.408L622.885 408.422Z" fill="white"/>
<path d="M625.225 422.648C626.664 419.124 631.994 413.527 640.202 409.176C649.279 404.377 660.381 402.68 663.259 398.62C666.722 393.762 662.468 388.614 653.533 388.962C644.598 389.31 628.119 399.214 624.182 415.673L625.225 422.648Z" fill="#BA68C8"/>
<path d="M623.849 418.791C623.947 418.792 624.043 418.767 624.124 418.717C624.206 418.668 624.27 418.598 624.308 418.515C633.29 400.287 649.484 394.85 656.791 394.516C656.925 394.516 657.054 394.467 657.149 394.38C657.243 394.293 657.297 394.175 657.297 394.052C657.297 393.929 657.243 393.811 657.149 393.724C657.054 393.637 656.925 393.588 656.791 393.588C648.71 393.95 632.595 399.519 623.422 418.124C623.394 418.181 623.378 418.242 623.376 418.305C623.374 418.368 623.386 418.43 623.411 418.488C623.437 418.547 623.474 418.6 623.522 418.644C623.57 418.689 623.628 418.724 623.691 418.747C623.74 418.771 623.794 418.786 623.849 418.791Z" fill="white"/>
<path d="M49.3273 363.875C49.3273 363.875 47.7459 350.548 40.4396 340.194C33.1333 329.84 23.2651 323.402 13.9979 322.72C4.73058 322.039 -2.74965 329.869 7.16601 335.249C17.0817 340.629 34.699 346.096 42.8118 366.18L49.3273 363.875Z" fill="#BA68C8"/>
<path opacity="0.1" d="M49.3273 363.875C49.3273 363.875 47.7459 350.548 40.4396 340.194C33.1333 329.84 23.2651 323.402 13.9979 322.72C4.73058 322.039 -2.74965 329.869 7.16601 335.249C17.0817 340.629 34.699 346.096 42.8118 366.18L49.3273 363.875Z" fill="black"/>
<path d="M46.6072 360.409H46.7021C46.7628 360.387 46.8181 360.354 46.8647 360.312C46.9112 360.27 46.9481 360.219 46.9732 360.164C46.9982 360.109 47.0109 360.049 47.0106 359.989C47.0102 359.929 46.9967 359.87 46.9709 359.815C37.1976 337.715 18.505 328.492 10.0918 326.694C9.96847 326.682 9.84471 326.712 9.74395 326.778C9.64319 326.845 9.57245 326.942 9.54514 327.053C9.51784 327.164 9.53587 327.28 9.59582 327.38C9.65576 327.479 9.75346 327.555 9.87036 327.593C18.1729 329.333 36.4227 338.411 46.0537 360.148C46.1011 360.242 46.1812 360.319 46.2815 360.366C46.3818 360.413 46.4964 360.428 46.6072 360.409Z" fill="white"/>
<path d="M2.13693 360.293C3.03835 362.149 5.29982 363.106 7.27662 363.86C9.41254 364.39 11.2975 365.552 12.6377 367.166C14.8675 370.69 11.2144 375.65 13.6024 379.072C14.1625 379.765 14.8733 380.345 15.6898 380.774C16.5063 381.204 17.411 381.473 18.3467 381.566C19.8776 381.77 21.4189 381.9 22.9645 381.958C23.6999 381.941 24.4337 381.888 25.1627 381.798C27.2886 381.36 29.5128 381.579 31.4885 382.422C34.5407 383.988 35.4737 387.526 37.324 390.252C38.4744 391.86 39.9899 393.221 41.7667 394.242C43.5435 395.263 45.5398 395.92 47.6192 396.169C49.3899 396.497 51.224 396.387 52.9328 395.85L53.2333 395.676C53.4259 395.488 53.6055 395.289 53.771 395.081V394.994C54.3087 393.167 53.4231 391.267 53.3915 389.382V389.034C53.3915 386.845 53.5496 384.684 53.597 382.48C53.7025 378.448 53.7446 374.417 53.7236 370.386C53.7236 367.775 54.0398 364.904 52.838 362.439C51.4937 359.727 48.1727 359.669 46.9234 357.001C46.4173 355.943 46.1484 354.811 45.6582 353.738C44.9048 352.168 43.6948 350.818 42.1608 349.836C40.6267 348.854 38.8276 348.277 36.9603 348.17C31.1406 347.894 25.8902 352.201 20.1337 351.81C18.6388 351.625 17.1555 351.368 15.6899 351.041C10.9456 350.229 5.55285 351.462 2.91184 355.101C2.32932 355.843 1.95404 356.704 1.81894 357.609C1.68383 358.514 1.79302 359.435 2.13693 360.293Z" fill="#BA68C8"/>
<path d="M54.3087 386.627C54.3722 386.614 54.432 386.589 54.4844 386.553C54.5369 386.518 54.5808 386.473 54.6134 386.421C54.646 386.369 54.6667 386.312 54.6741 386.253C54.6816 386.193 54.6756 386.133 54.6566 386.076C46.6703 358.466 14.9623 354.493 7.59276 354.971C7.52833 354.975 7.46533 354.99 7.40738 355.016C7.34943 355.042 7.29766 355.079 7.25505 355.123C7.21243 355.167 7.17982 355.219 7.15907 355.275C7.13832 355.331 7.12985 355.391 7.13414 355.45C7.12523 355.51 7.13035 355.572 7.14917 355.631C7.16799 355.689 7.20008 355.744 7.24335 355.79C7.28663 355.837 7.34011 355.874 7.40032 355.901C7.46052 355.927 7.52609 355.941 7.59276 355.943C14.8516 355.464 45.8796 359.365 53.7235 386.395C53.7749 386.491 53.8621 386.568 53.9694 386.61C54.0766 386.653 54.197 386.659 54.3087 386.627Z" fill="white"/>
<path d="M19.0741 372.648C19.1762 372.631 19.27 372.585 19.3429 372.518C22.2704 370.192 25.7215 368.487 29.4501 367.524C33.1787 366.562 37.093 366.365 40.9138 366.949C41.0452 366.962 41.1769 366.929 41.2826 366.856C41.3882 366.784 41.4599 366.677 41.4832 366.558C41.492 366.499 41.488 366.438 41.4712 366.381C41.4545 366.323 41.4254 366.269 41.3857 366.222C41.3459 366.175 41.2963 366.135 41.2397 366.106C41.1832 366.076 41.1208 366.057 41.0562 366.05C37.0846 365.453 33.0182 365.667 29.1473 366.677C25.2764 367.688 21.6964 369.469 18.6629 371.894C18.617 371.936 18.5806 371.986 18.5557 372.04C18.5309 372.095 18.5181 372.154 18.5181 372.213C18.5181 372.272 18.5309 372.331 18.5557 372.386C18.5806 372.441 18.617 372.49 18.6629 372.532C18.7185 372.577 18.784 372.611 18.8549 372.631C18.9258 372.651 19.0005 372.657 19.0741 372.648Z" fill="white"/>
<path d="M594.308 287.063L481.362 346.996C479.951 347.646 478.394 347.985 476.815 347.985C475.236 347.985 473.679 347.646 472.268 346.996L275.695 242.95C273.18 241.63 273.18 239.47 275.695 238.15L388.721 178.202C390.129 177.552 391.683 177.213 393.259 177.213C394.836 177.213 396.39 177.552 397.798 178.202L594.308 282.248C596.744 283.582 596.744 285.728 594.308 287.063Z" fill="#37474F"/>
<path d="M533.882 314.542C531.922 315.455 529.754 315.931 527.556 315.931C525.357 315.931 523.19 315.455 521.23 314.542C517.751 312.7 517.751 309.713 521.23 307.872C523.188 306.952 525.356 306.472 527.556 306.472C529.756 306.472 531.924 306.952 533.882 307.872C537.377 309.713 537.377 312.7 533.882 314.542Z" fill="#263238"/>
<path d="M481.283 346.996L594.309 287.063C596.554 285.874 596.791 284.018 595.02 282.712C596.144 283.527 597.067 284.55 597.729 285.715C598.391 286.879 598.778 288.159 598.863 289.47V293.385C598.782 294.838 598.328 296.252 597.536 297.512C596.744 298.773 595.638 299.843 594.309 300.636L481.362 360.569C479.966 361.251 478.404 361.595 476.823 361.57V348.04C478.382 348.04 479.915 347.681 481.283 346.996Z" fill="#455A64"/>
<path d="M275.695 256.494C274.368 255.7 273.265 254.628 272.477 253.368C271.688 252.108 271.235 250.695 271.156 249.243V245.328C271.239 244.015 271.625 242.732 272.287 241.565C272.95 240.398 273.874 239.372 274.999 238.556C273.228 239.89 273.418 241.732 275.695 242.906L472.189 346.952C473.59 347.635 475.158 347.98 476.744 347.953V361.482C475.158 361.509 473.59 361.165 472.189 360.482L275.695 256.494Z" fill="#263238"/>
<path d="M462.416 334.438L568.958 277.884C569.293 277.785 569.585 277.592 569.793 277.331C570 277.07 570.112 276.756 570.112 276.434C570.112 276.111 570 275.797 569.793 275.536C569.585 275.275 569.293 275.082 568.958 274.983L411.478 191.457C410.635 191.063 409.703 190.858 408.757 190.858C407.812 190.858 406.88 191.063 406.037 191.457L299.448 248.011C299.113 248.11 298.821 248.303 298.613 248.564C298.406 248.824 298.294 249.139 298.294 249.461C298.294 249.784 298.406 250.098 298.613 250.359C298.821 250.62 299.113 250.813 299.448 250.911L456.96 334.438C457.805 334.832 458.74 335.037 459.688 335.037C460.636 335.037 461.571 334.832 462.416 334.438Z" fill="#FAFAFA"/>
<path d="M315.974 250.577L366.865 277.637C367.926 278.13 369.099 278.387 370.289 278.387C371.479 278.387 372.652 278.13 373.713 277.637L463.223 230.261C463.636 230.133 463.994 229.889 464.249 229.564C464.503 229.239 464.639 228.849 464.639 228.449C464.639 228.049 464.503 227.659 464.249 227.334C463.994 227.009 463.636 226.765 463.223 226.636L412.268 199.635C411.207 199.142 410.034 198.885 408.845 198.885C407.655 198.885 406.482 199.142 405.421 199.635L315.974 246.952C315.561 247.081 315.203 247.325 314.948 247.65C314.694 247.975 314.558 248.365 314.558 248.765C314.558 249.165 314.694 249.555 314.948 249.88C315.203 250.205 315.561 250.449 315.974 250.577Z" fill="#EBEBEB"/>
<path d="M353.344 237.686L366.407 240.021C367.222 240.177 368.07 240.106 368.842 239.818L379.912 235.468C381.668 234.772 384.166 235.468 384.135 236.613L383.961 243.864C383.961 244.328 384.372 244.763 385.083 245.038L396.343 249.258C398.13 249.925 397.703 251.39 395.6 251.738L382.395 253.928C382.049 253.958 381.714 254.056 381.414 254.217C381.114 254.377 380.855 254.595 380.655 254.856L376.559 261.831C375.895 262.933 373.128 263.165 371.815 262.222L363.908 256.262C363.275 255.843 362.505 255.634 361.726 255.668L347.919 255.755C345.721 255.755 344.456 254.45 345.769 253.522L354.024 247.721C354.141 247.659 354.245 247.577 354.327 247.479C354.41 247.38 354.471 247.268 354.506 247.148C354.542 247.028 354.551 246.903 354.533 246.78C354.515 246.657 354.471 246.538 354.403 246.431L349.975 239.514C349.28 238.353 351.256 237.309 353.344 237.686Z" fill="#FAFAFA"/>
<path d="M382.395 222.402L410.418 207.567C410.968 207.27 411.586 207.094 412.223 207.054C412.859 207.014 413.498 207.11 414.087 207.335C414.973 207.814 414.767 208.684 413.644 209.278L385.637 224.113C385.085 224.406 384.468 224.579 383.832 224.619C383.196 224.66 382.558 224.566 381.968 224.345C381.082 223.867 381.288 222.996 382.395 222.402Z" fill="#FAFAFA"/>
<path d="M389.48 226.143L417.487 211.308C418.037 211.011 418.655 210.836 419.292 210.795C419.929 210.755 420.567 210.851 421.156 211.076C422.042 211.555 421.852 212.425 420.713 213.02L392.706 227.854C392.154 228.147 391.537 228.32 390.901 228.361C390.265 228.401 389.627 228.307 389.037 228.086C388.136 227.608 388.341 226.738 389.48 226.143Z" fill="#FAFAFA"/>
<path d="M396.533 229.884L424.54 215.05C425.089 214.749 425.707 214.572 426.345 214.532C426.982 214.491 427.621 214.589 428.209 214.818C429.111 215.296 428.905 216.166 427.767 216.761L399.791 231.596C399.239 231.889 398.622 232.062 397.986 232.102C397.35 232.142 396.712 232.048 396.122 231.828C395.205 231.349 395.394 230.479 396.533 229.884Z" fill="#FAFAFA"/>
<path d="M403.586 233.611L431.609 218.791C432.155 218.491 432.77 218.313 433.405 218.273C434.04 218.233 434.677 218.331 435.262 218.559C436.164 219.023 435.958 219.893 434.835 220.502L406.812 235.322C406.263 235.623 405.645 235.8 405.008 235.841C404.37 235.881 403.731 235.783 403.143 235.554C402.257 235.09 402.463 234.22 403.586 233.611Z" fill="#FAFAFA"/>
<path d="M410.656 237.352L438.663 222.532C439.212 222.232 439.83 222.054 440.467 222.014C441.105 221.973 441.744 222.071 442.332 222.3C443.218 222.764 443.028 223.634 441.889 224.243L413.882 239.063C413.333 239.364 412.715 239.541 412.078 239.582C411.44 239.622 410.801 239.524 410.213 239.295C409.28 238.831 409.517 237.961 410.656 237.352Z" fill="#FAFAFA"/>
<path d="M417.709 241.094L445.653 226.273C446.202 225.973 446.82 225.795 447.457 225.755C448.095 225.715 448.734 225.813 449.322 226.041C450.208 226.505 450.018 227.376 448.879 227.985L420.935 242.834C420.386 243.134 419.768 243.312 419.131 243.352C418.493 243.392 417.855 243.294 417.266 243.066C416.381 242.573 416.57 241.703 417.709 241.094Z" fill="#FAFAFA"/>
<path d="M378.774 283.872L381.082 285.105C381.721 285.398 382.424 285.551 383.138 285.551C383.852 285.551 384.556 285.398 385.194 285.105L438.963 256.668C440.102 256.059 440.102 255.088 438.963 254.493L436.638 253.26C436 252.967 435.296 252.814 434.583 252.814C433.869 252.814 433.165 252.967 432.527 253.26L378.758 281.697C378.509 281.774 378.293 281.921 378.14 282.118C377.988 282.314 377.907 282.549 377.909 282.79C377.91 283.031 377.995 283.265 378.15 283.459C378.305 283.654 378.524 283.798 378.774 283.872Z" fill="#E0E0E0"/>
<path d="M475.131 232.857L477.44 234.09C478.579 234.685 478.579 235.656 477.44 236.265L455.853 247.692C455.215 247.985 454.511 248.138 453.797 248.138C453.084 248.138 452.38 247.985 451.741 247.692L449.433 246.459C448.294 245.865 448.294 244.893 449.433 244.284L470.956 232.857C471.602 232.554 472.318 232.396 473.044 232.396C473.769 232.396 474.485 232.554 475.131 232.857Z" fill="#E0E0E0"/>
<path d="M393.054 291.399L444.071 318.386C445.133 318.879 446.306 319.136 447.495 319.136C448.685 319.136 449.858 318.879 450.919 318.386L540.429 271.01C540.842 270.882 541.2 270.638 541.455 270.313C541.709 269.988 541.845 269.598 541.845 269.198C541.845 268.798 541.709 268.408 541.455 268.083C541.2 267.757 540.842 267.513 540.429 267.385L489.475 240.384C488.413 239.891 487.24 239.634 486.051 239.634C484.861 239.634 483.688 239.891 482.627 240.384L393.054 287.788C392.646 287.92 392.294 288.164 392.044 288.487C391.794 288.811 391.66 289.197 391.66 289.593C391.66 289.99 391.794 290.376 392.044 290.7C392.294 291.023 392.646 291.267 393.054 291.399Z" fill="#EBEBEB"/>
<path d="M430.471 278.492L443.55 280.841C444.365 280.996 445.213 280.926 445.985 280.638L457.055 276.288C458.826 275.592 461.325 276.288 461.293 277.419L461.119 284.67C461.119 285.134 461.515 285.569 462.226 285.83L473.502 290.05C475.289 290.731 474.846 292.196 472.759 292.544L459.57 294.705C459.225 294.738 458.892 294.839 458.592 294.999C458.292 295.158 458.033 295.375 457.83 295.633L453.734 302.608C453.086 303.71 450.318 303.942 448.99 302.999L441.083 297.039C440.444 296.62 439.669 296.411 438.884 296.445L425.078 296.532C422.896 296.532 421.615 295.227 422.928 294.299L431.183 288.498C431.417 288.371 431.588 288.166 431.662 287.925C431.736 287.685 431.706 287.428 431.578 287.207L427.134 280.29C426.423 279.174 428.399 278.13 430.471 278.492Z" fill="#FAFAFA"/>
<path d="M459.554 263.223L487.561 248.388C488.111 248.091 488.729 247.915 489.365 247.875C490.002 247.835 490.641 247.931 491.23 248.156C492.131 248.635 491.926 249.505 490.787 250.099L462.78 264.934C462.228 265.227 461.611 265.4 460.975 265.44C460.339 265.481 459.701 265.387 459.111 265.166C458.304 264.687 458.415 263.817 459.554 263.223Z" fill="#FAFAFA"/>
<path d="M466.607 266.964L494.678 252.129C495.228 251.832 495.845 251.656 496.482 251.616C497.119 251.576 497.757 251.672 498.347 251.897C499.232 252.376 499.027 253.246 497.904 253.84L469.881 268.675C469.333 268.976 468.716 269.156 468.08 269.201C467.443 269.246 466.804 269.156 466.212 268.936C465.279 268.428 465.484 267.558 466.607 266.964Z" fill="#FAFAFA"/>
<path d="M473.676 270.691L501.683 255.885C502.232 255.585 502.85 255.407 503.488 255.367C504.125 255.326 504.764 255.425 505.352 255.653C506.238 256.117 506.048 256.987 504.909 257.596L476.902 272.416C476.351 272.709 475.733 272.883 475.097 272.923C474.461 272.963 473.824 272.869 473.233 272.648C472.332 272.17 472.537 271.3 473.676 270.691Z" fill="#FAFAFA"/>
<path d="M480.729 274.432L508.737 259.612C509.285 259.311 509.904 259.134 510.541 259.094C511.179 259.053 511.817 259.151 512.406 259.38C513.307 259.844 513.102 260.714 511.963 261.323L483.956 276.187C483.407 276.487 482.789 276.665 482.151 276.705C481.514 276.745 480.875 276.647 480.287 276.419C479.401 275.911 479.591 275.041 480.729 274.432Z" fill="#FAFAFA"/>
<path d="M487.782 278.173L515.805 263.353C516.351 263.053 516.967 262.875 517.601 262.835C518.236 262.795 518.873 262.893 519.458 263.121C520.36 263.585 520.154 264.455 519.031 265.064L491.008 279.884C490.46 280.185 489.842 280.362 489.204 280.403C488.567 280.443 487.928 280.345 487.339 280.116C486.454 279.652 486.659 278.782 487.782 278.173Z" fill="#FAFAFA"/>
<path d="M494.851 281.987L522.859 267.167C523.407 266.867 524.025 266.689 524.663 266.649C525.3 266.608 525.939 266.706 526.528 266.935C527.413 267.399 527.224 268.269 526.085 268.878L498.078 283.698C497.529 283.999 496.911 284.176 496.273 284.217C495.636 284.257 494.997 284.159 494.409 283.93C493.507 283.437 493.713 282.524 494.851 281.987Z" fill="#FAFAFA"/>
<path d="M455.901 324.693L458.226 325.926C458.864 326.219 459.568 326.372 460.281 326.372C460.995 326.372 461.699 326.219 462.337 325.926L516.106 297.489C516.356 297.413 516.573 297.267 516.726 297.072C516.88 296.877 516.963 296.642 516.963 296.401C516.963 296.16 516.88 295.926 516.726 295.73C516.573 295.535 516.356 295.389 516.106 295.314L513.781 294.081C513.143 293.788 512.439 293.635 511.726 293.635C511.012 293.635 510.308 293.788 509.67 294.081L455.901 322.518C455.651 322.594 455.434 322.739 455.281 322.935C455.127 323.13 455.044 323.365 455.044 323.605C455.044 323.846 455.127 324.081 455.281 324.276C455.434 324.472 455.651 324.617 455.901 324.693Z" fill="#E0E0E0"/>
<path d="M552.258 273.678L554.583 274.911C555.721 275.505 555.721 276.477 554.583 277.086L532.996 288.513C532.358 288.806 531.654 288.959 530.94 288.959C530.226 288.959 529.522 288.806 528.884 288.513L526.559 287.28C526.31 287.204 526.093 287.059 525.939 286.863C525.785 286.668 525.703 286.433 525.703 286.192C525.703 285.952 525.785 285.717 525.939 285.522C526.093 285.326 526.31 285.181 526.559 285.105L548.162 273.678C548.797 273.385 549.499 273.232 550.21 273.232C550.921 273.232 551.623 273.385 552.258 273.678Z" fill="#E0E0E0"/>
<path d="M341.72 212.657C341.287 212.852 340.811 212.953 340.329 212.953C339.846 212.953 339.37 212.852 338.937 212.657C338.773 212.605 338.632 212.506 338.531 212.377C338.431 212.247 338.377 212.091 338.377 211.932C338.377 211.773 338.431 211.618 338.531 211.488C338.632 211.358 338.773 211.26 338.937 211.207C339.37 211.013 339.846 210.911 340.329 210.911C340.811 210.911 341.287 211.013 341.72 211.207C342.495 211.599 342.495 212.251 341.72 212.657Z" fill="#263238"/>
<path d="M337.276 224.244C336.413 224.644 335.46 224.852 334.493 224.852C333.526 224.852 332.573 224.644 331.71 224.244C331.396 224.126 331.127 223.925 330.937 223.667C330.748 223.409 330.647 223.105 330.647 222.794C330.647 222.482 330.748 222.178 330.937 221.92C331.127 221.662 331.396 221.461 331.71 221.343C332.573 220.943 333.526 220.735 334.493 220.735C335.46 220.735 336.413 220.943 337.276 221.343C337.591 221.461 337.86 221.662 338.049 221.92C338.238 222.178 338.339 222.482 338.339 222.794C338.339 223.105 338.238 223.409 338.049 223.667C337.86 223.925 337.591 224.126 337.276 224.244Z" fill="#263238"/>
<path d="M341.277 219.11C340.25 218.559 340.313 217.66 341.404 217.08L359.717 207.378C360.312 207.1 360.971 206.954 361.639 206.954C362.307 206.954 362.965 207.1 363.56 207.378C364.572 207.915 364.525 208.829 363.434 209.409L345.12 219.095C344.526 219.373 343.868 219.519 343.201 219.521C342.533 219.524 341.875 219.383 341.277 219.11Z" fill="#263238"/>
<path d="M296.855 77.2449V80.6526L284.013 87.4537L264.751 97.6045L94.7146 187.729C93.7072 188.309 92.8751 189.112 92.295 190.064C91.6702 191 91.3214 192.07 91.2829 193.167V400.389C91.2829 411.656 82.6482 416.224 72.0209 410.539C61.3937 404.855 52.7432 391.209 52.7432 379.942V172.706C52.809 171.616 53.154 170.556 53.7502 169.611C54.3464 168.666 55.1771 167.863 56.1749 167.268L245.458 67.0505L263.787 57.3638C264.399 58.309 264.737 59.3825 264.767 60.4815V63.6428L62.5955 170.951C61.6468 171.491 60.8589 172.239 60.3025 173.126C59.6112 174.1 59.223 175.228 59.1796 176.389V383.335C59.1796 390.847 64.9361 399.968 72.0368 403.724C79.1374 407.48 84.8781 404.434 84.8781 396.923V189.701C84.9331 188.616 85.2668 187.557 85.8521 186.612C86.4375 185.668 87.2579 184.863 88.2465 184.263L295.858 74.3446C296.455 75.2175 296.798 76.216 296.855 77.2449Z" fill="#E0E0E0"/>
<path d="M277.577 67.2683V77.2451L81.9206 180.87C80.9152 181.456 80.0748 182.252 79.4675 183.192C78.8602 184.131 78.5033 185.189 78.4256 186.279V393.501C78.4256 397.257 75.5632 398.779 72.0207 396.894C70.1554 395.784 68.6018 394.287 67.4862 392.523C66.3706 390.759 65.7244 388.779 65.6001 386.743V179.507C65.6408 178.412 65.9836 177.345 66.5964 176.404C67.1859 175.458 68.016 174.657 69.016 174.069L276.612 64.165C277.213 65.1086 277.545 66.1759 277.577 67.2683Z" fill="#E0E0E0"/>
<path d="M98.6996 193.414C98.0849 194.348 97.7418 195.412 97.7033 196.502V401.94C97.7066 403.434 97.6009 404.926 97.387 406.407C97.3237 406.793 97.2605 407.17 97.1972 407.538C97.1972 407.886 97.0549 408.219 96.9758 408.567C96.8967 408.915 96.8177 409.176 96.7228 409.466C96.6279 409.756 96.5646 410.032 96.4697 410.307C95.4221 413.836 92.9593 416.871 89.5747 418.805C84.9727 421.227 78.8051 420.937 72.0207 417.355C57.7877 409.843 46.3223 390.76 46.3223 374.751V169.298C46.3608 168.207 46.7039 167.144 47.3186 166.209L53.755 169.603C53.1302 170.539 52.7814 171.609 52.7429 172.706V379.928C52.7429 391.195 61.3776 404.899 72.0207 410.525C82.6638 416.151 91.2826 411.598 91.2826 400.374V193.109C91.3211 192.012 91.6699 190.942 92.2947 190.006L98.6996 193.414Z" fill="#EBEBEB"/>
<path d="M85.8582 186.613C85.2454 187.548 84.9026 188.611 84.8619 189.701V396.923C84.8619 404.435 79.1055 407.48 72.0206 403.724C64.9358 399.968 59.1636 390.847 59.1636 383.335V176.331C59.2069 175.17 59.5952 174.042 60.2864 173.069L66.6121 176.404C65.9994 177.344 65.6566 178.412 65.6158 179.507V386.729C65.7401 388.764 66.3863 390.745 67.5019 392.508C68.6175 394.272 70.1711 395.77 72.0365 396.879C75.5789 398.765 78.4413 397.242 78.4413 393.486V186.279C78.4798 185.182 78.8286 184.112 79.4534 183.176L85.8582 186.613Z" fill="#EBEBEB"/>
<path d="M263.786 57.364L245.489 67.0508L56.1744 167.268C55.1634 167.844 54.3304 168.648 53.7548 169.603L47.3184 166.21C47.8934 165.25 48.7263 164.442 49.738 163.86L239.037 63.643L242.69 61.6998L246.39 59.7857L249.553 58.1035L251.435 57.103L254.93 55.2613C255.949 54.7643 257.082 54.4948 258.236 54.4746C259.39 54.4545 260.533 54.6842 261.572 55.1453C262.508 55.6961 263.271 56.4608 263.786 57.364Z" fill="#FAFAFA"/>
<path d="M308.715 81.1602L290.418 90.8469L258.299 107.842L101.135 191.064C100.123 191.649 99.2854 192.457 98.6998 193.414L92.374 190.006C92.9403 189.083 93.7438 188.302 94.7146 187.729L264.735 97.6625L283.997 87.5117L296.839 80.7106L299.828 79.13L300.16 78.9705C301.147 78.5369 302.228 78.3118 303.323 78.3118C304.417 78.3118 305.498 78.5369 306.486 78.9705L306.818 79.159C307.6 79.6925 308.248 80.3753 308.715 81.1602Z" fill="#FAFAFA"/>
<path d="M276.612 64.1652L69.0159 174.069C68.0159 174.657 67.1858 175.458 66.5963 176.404L60.2705 173.069C60.827 172.181 61.6149 171.434 62.5636 170.894L264.735 63.5851L267.708 62.0045C268.727 61.5075 269.86 61.2379 271.014 61.2178C272.168 61.1976 273.311 61.4274 274.35 61.8885C275.308 62.4536 276.087 63.2385 276.612 64.1652Z" fill="#FAFAFA"/>
<path d="M295.906 74.3446L88.2462 184.263C87.2301 184.844 86.392 185.653 85.8108 186.613L79.3901 183.205C79.9964 182.237 80.8688 181.432 81.9204 180.87L277.64 77.2448L287.128 72.2564C288.149 71.7617 289.282 71.4946 290.436 71.477C291.59 71.4594 292.733 71.6916 293.771 72.1549C294.675 72.7048 295.411 73.4588 295.906 74.3446Z" fill="#FAFAFA"/>
<path d="M309.648 84.2781V289.716C309.648 298.141 306.485 304.043 301.377 306.653L89.2739 418.95C91.1517 417.915 92.7803 416.54 94.0608 414.91C95.3413 413.28 96.2469 411.428 96.7225 409.467C96.8174 409.176 96.8965 408.872 96.9755 408.567C97.0546 408.263 97.1179 407.886 97.197 407.538C97.276 407.19 97.3235 406.798 97.3867 406.407C97.6006 404.926 97.7063 403.434 97.703 401.94V196.503C97.7416 195.412 98.0846 194.348 98.6993 193.414C99.2849 192.457 100.122 191.649 101.135 191.065L258.299 107.857L290.418 90.8616L308.715 81.1748C309.311 82.1188 309.632 83.1874 309.648 84.2781Z" fill="#F5F5F5"/>
<path d="M120.413 194.472L152.042 177.694C153.94 176.694 155.458 177.491 155.458 179.507V219.864C155.396 220.953 155.055 222.013 154.461 222.958C153.868 223.904 153.039 224.706 152.042 225.302L120.413 242.08C118.515 243.08 116.981 242.268 116.981 240.267V199.91C117.046 198.82 117.39 197.759 117.987 196.814C118.583 195.869 119.415 195.067 120.413 194.472Z" fill="#455A64"/>
<path d="M116.981 257.494L290.434 165.673V172.474L116.981 264.295V257.494Z" fill="#BA68C8"/>
<path opacity="0.4" d="M116.981 257.494L290.434 165.673V172.474L116.981 264.295V257.494Z" fill="white"/>
<path d="M119.037 276.81L153.481 258.582C154.604 257.973 155.521 258.466 155.521 259.67V323.33C155.484 323.982 155.28 324.618 154.926 325.185C154.572 325.751 154.077 326.234 153.481 326.593L119.037 344.821C117.899 345.43 116.981 344.937 116.981 343.733V280.073C117.019 279.419 117.225 278.782 117.582 278.215C117.939 277.648 118.438 277.166 119.037 276.81Z" fill="#F0F0F0"/>
<path d="M119.037 351.592L153.481 333.35C154.604 332.755 155.521 333.248 155.521 334.437V384.263L116.981 404.71V354.899C117.011 354.237 117.214 353.592 117.571 353.016C117.929 352.441 118.432 351.953 119.037 351.592Z" fill="#F0F0F0"/>
<path d="M164.013 252.984L198.441 234.756C199.58 234.162 200.497 234.64 200.497 235.844V319.951C200.459 320.605 200.252 321.241 199.895 321.808C199.538 322.375 199.04 322.856 198.441 323.214L164.013 341.441C162.875 342.036 161.958 341.557 161.958 340.354V256.247C161.999 255.594 162.206 254.959 162.563 254.392C162.92 253.825 163.417 253.343 164.013 252.984Z" fill="#F0F0F0"/>
<path d="M208.973 229.203L243.401 210.931C244.54 210.322 245.457 210.815 245.457 212.019V275.679C245.42 276.333 245.214 276.969 244.857 277.537C244.499 278.104 244.001 278.585 243.401 278.941L208.973 297.213C207.835 297.822 206.917 297.329 206.917 296.125V232.465C206.955 231.811 207.161 231.175 207.518 230.607C207.875 230.04 208.374 229.559 208.973 229.203Z" fill="#F0F0F0"/>
<path d="M253.95 205.392L288.378 187.164C289.517 186.555 290.434 187.048 290.434 188.252V272.358C290.393 273.012 290.185 273.647 289.828 274.213C289.471 274.78 288.975 275.262 288.378 275.621L253.95 293.849C252.811 294.444 251.894 293.965 251.894 292.761V208.655C251.931 208.001 252.137 207.364 252.495 206.797C252.852 206.23 253.351 205.748 253.95 205.392Z" fill="#F0F0F0"/>
<path d="M164.013 348.228L198.441 330C199.58 329.391 200.497 329.884 200.497 331.087V360.496L161.958 380.913V351.491C161.995 350.837 162.201 350.2 162.558 349.633C162.915 349.066 163.414 348.584 164.013 348.228Z" fill="#F0F0F0"/>
<path d="M206.854 307.277V357.103L245.394 336.7V286.874C245.394 285.67 244.477 285.192 243.338 285.786L208.91 304.014C208.312 304.371 207.814 304.853 207.457 305.42C207.099 305.987 206.893 306.623 206.854 307.277Z" fill="#F0F0F0"/>
<path d="M253.934 300.621L288.378 282.393C289.517 281.784 290.434 282.277 290.434 283.481V312.889L251.894 333.292V303.884C251.931 303.231 252.135 302.596 252.489 302.029C252.844 301.462 253.339 300.98 253.934 300.621Z" fill="#F0F0F0"/>
<path d="M170.481 351.592L192.068 340.165C193.206 339.556 194.124 340.049 194.124 341.253V357.393C194.086 358.047 193.881 358.684 193.523 359.251C193.166 359.818 192.667 360.299 192.068 360.656L170.481 372.054C169.343 372.648 168.425 372.17 168.425 370.966V354.913C168.453 354.249 168.654 353.601 169.012 353.023C169.369 352.445 169.873 351.954 170.481 351.592Z" fill="#E0E0E0"/>
<path d="M260.37 304.043L281.957 292.616C283.08 292.007 284.013 292.5 284.013 293.704V309.757C283.971 310.41 283.763 311.044 283.406 311.611C283.049 312.177 282.553 312.66 281.957 313.019L260.37 324.446C259.232 325.041 258.314 324.562 258.314 323.359V307.306C258.352 306.652 258.558 306.015 258.915 305.448C259.272 304.881 259.771 304.399 260.37 304.043Z" fill="#E0E0E0"/>
<path d="M125.457 280.218L147.044 268.776C148.182 268.182 149.1 268.675 149.1 269.864V285.931C149.059 286.585 148.851 287.22 148.494 287.786C148.137 288.353 147.641 288.835 147.044 289.194L125.457 300.621C124.334 301.216 123.401 300.737 123.401 299.533V283.437C123.447 282.791 123.657 282.163 124.014 281.604C124.371 281.045 124.865 280.571 125.457 280.218Z" fill="#E0E0E0"/>
<path d="M124.777 304.377L147.74 292.225C148.499 291.833 149.1 292.152 149.1 292.95V293.457C149.076 293.892 148.94 294.316 148.704 294.694C148.467 295.072 148.137 295.393 147.74 295.632L124.777 307.784C124.018 308.19 123.401 307.784 123.401 307.059V306.552C123.429 306.116 123.567 305.692 123.806 305.314C124.045 304.936 124.378 304.615 124.777 304.377Z" fill="#E0E0E0"/>
<path d="M124.777 311.178L147.74 299.026C148.499 298.634 149.1 298.953 149.1 299.751V300.258C149.076 300.693 148.94 301.117 148.704 301.495C148.467 301.873 148.137 302.195 147.74 302.433L124.777 314.586C124.018 314.992 123.401 314.586 123.401 313.86V313.353C123.429 312.917 123.567 312.493 123.806 312.115C124.045 311.737 124.378 311.416 124.777 311.178Z" fill="#E0E0E0"/>
<path d="M124.777 317.979L147.74 305.827C148.499 305.435 149.1 305.754 149.1 306.552V307.059C149.076 307.494 148.94 307.918 148.704 308.296C148.467 308.674 148.137 308.996 147.74 309.234L124.777 321.386C124.018 321.792 123.401 321.459 123.401 320.661V320.154C123.429 319.718 123.567 319.294 123.806 318.916C124.045 318.538 124.378 318.217 124.777 317.979Z" fill="#E0E0E0"/>
<path d="M124.777 324.78L147.74 312.628C148.499 312.236 149.1 312.555 149.1 313.353V313.89C149.076 314.325 148.94 314.748 148.704 315.126C148.467 315.504 148.137 315.826 147.74 316.065L124.777 328.217C124.018 328.623 123.401 328.289 123.401 327.492V326.941C123.431 326.507 123.571 326.086 123.81 325.711C124.049 325.335 124.38 325.017 124.777 324.78Z" fill="#E0E0E0"/>
<path d="M124.777 331.581L147.74 319.429C148.499 319.037 149.1 319.356 149.1 320.154V320.662C149.076 321.097 148.94 321.52 148.704 321.898C148.467 322.276 148.137 322.598 147.74 322.837L124.777 334.989C124.018 335.395 123.401 335.061 123.401 334.264V333.756C123.429 333.32 123.567 332.896 123.806 332.518C124.045 332.14 124.378 331.819 124.777 331.581Z" fill="#E0E0E0"/>
<path d="M170.481 256.407L192.068 244.98C193.206 244.371 194.124 244.864 194.124 246.067V262.12C194.085 262.774 193.879 263.41 193.521 263.977C193.164 264.544 192.666 265.026 192.068 265.383L170.481 276.81C169.343 277.404 168.425 276.926 168.425 275.722V259.67C168.463 259.015 168.668 258.379 169.026 257.812C169.383 257.245 169.882 256.763 170.481 256.407Z" fill="#E0E0E0"/>
<path d="M169.738 280.537L192.701 268.385C193.46 267.979 194.076 268.298 194.076 269.11V269.603C194.05 270.039 193.912 270.464 193.673 270.842C193.434 271.22 193.101 271.541 192.701 271.778L169.738 283.93C168.995 284.336 168.378 283.93 168.378 283.205V282.712C168.402 282.277 168.538 281.853 168.774 281.475C169.01 281.097 169.341 280.776 169.738 280.537Z" fill="#E0E0E0"/>
<path d="M169.738 287.381L192.701 275.229C193.46 274.823 194.076 275.142 194.076 275.955V276.448C194.05 276.884 193.912 277.309 193.673 277.687C193.434 278.065 193.101 278.385 192.701 278.623L169.738 290.775C168.995 291.181 168.378 290.847 168.378 290.05V289.557C168.402 289.122 168.538 288.698 168.774 288.32C169.01 287.942 169.341 287.62 169.738 287.381Z" fill="#E0E0E0"/>
<path d="M169.738 294.182L192.701 281.987C193.46 281.581 194.076 281.9 194.076 282.712V283.205C194.05 283.642 193.912 284.066 193.673 284.444C193.434 284.822 193.101 285.143 192.701 285.38L169.738 297.532C168.995 297.938 168.378 297.605 168.378 296.807V296.314C168.409 295.887 168.549 295.472 168.785 295.102C169.021 294.732 169.347 294.417 169.738 294.182Z" fill="#E0E0E0"/>
<path d="M169.738 300.983L192.701 288.832C193.46 288.425 194.076 288.745 194.076 289.557V290.05C194.05 290.486 193.912 290.911 193.673 291.289C193.434 291.667 193.101 291.987 192.701 292.225L169.738 304.377C168.995 304.783 168.378 304.449 168.378 303.652V303.159C168.402 302.724 168.538 302.3 168.774 301.922C169.01 301.544 169.341 301.222 169.738 300.983Z" fill="#E0E0E0"/>
<path d="M169.738 307.784L192.701 295.632C193.46 295.226 194.076 295.545 194.076 296.357V296.85C194.05 297.287 193.912 297.711 193.673 298.089C193.434 298.467 193.101 298.788 192.701 299.026L169.738 311.177C168.995 311.584 168.378 311.25 168.378 310.452V309.959C168.402 309.524 168.538 309.101 168.774 308.723C169.01 308.345 169.341 308.023 169.738 307.784Z" fill="#E0E0E0"/>
<path d="M169.738 314.585L192.701 302.433C193.46 302.027 194.076 302.361 194.076 303.158V303.651C194.053 304.088 193.916 304.514 193.677 304.892C193.437 305.271 193.103 305.591 192.701 305.827L169.738 317.979C168.995 318.385 168.378 318.066 168.378 317.254V316.79C168.401 316.35 168.536 315.922 168.772 315.539C169.008 315.156 169.339 314.83 169.738 314.585Z" fill="#E0E0E0"/>
<path d="M169.738 321.387L192.701 309.235C193.46 308.829 194.076 309.162 194.076 309.96V310.453C194.053 310.89 193.916 311.315 193.677 311.694C193.437 312.072 193.103 312.392 192.701 312.628L169.738 324.78C168.995 325.186 168.378 324.867 168.378 324.055V323.562C168.406 323.127 168.543 322.705 168.779 322.328C169.015 321.95 169.343 321.628 169.738 321.387Z" fill="#E0E0E0"/>
<path d="M169.738 328.188L192.701 316.036C193.46 315.63 194.076 315.963 194.076 316.761V317.254C194.053 317.691 193.916 318.116 193.677 318.495C193.437 318.873 193.103 319.193 192.701 319.429L169.738 331.581C168.995 331.987 168.378 331.668 168.378 330.856V330.363C168.406 329.929 168.543 329.506 168.779 329.129C169.015 328.751 169.343 328.429 169.738 328.188Z" fill="#E0E0E0"/>
<path d="M125.457 355.044L147.044 343.603C148.182 343.008 149.1 343.501 149.1 344.69V360.757C149.061 361.411 148.855 362.047 148.498 362.614C148.14 363.181 147.642 363.663 147.044 364.02L125.457 375.447C124.334 376.042 123.401 375.563 123.401 374.36V358.307C123.44 357.653 123.646 357.017 124.004 356.45C124.361 355.883 124.859 355.401 125.457 355.044Z" fill="#E0E0E0"/>
<path d="M124.777 379.145L147.74 366.993C148.499 366.601 149.1 366.92 149.1 367.718V368.225C149.076 368.66 148.94 369.084 148.704 369.462C148.467 369.84 148.137 370.162 147.74 370.4L124.777 382.552C124.018 382.958 123.401 382.625 123.401 381.827V381.32C123.429 380.884 123.567 380.459 123.806 380.082C124.045 379.704 124.378 379.383 124.777 379.145Z" fill="#E0E0E0"/>
<path d="M124.777 386.004L147.74 373.852C148.499 373.46 149.1 373.779 149.1 374.577V375.084C149.076 375.52 148.94 375.943 148.704 376.321C148.467 376.699 148.137 377.021 147.74 377.26L124.777 389.412C124.018 389.818 123.401 389.484 123.401 388.687V388.179C123.429 387.743 123.567 387.319 123.806 386.941C124.045 386.563 124.378 386.242 124.777 386.004Z" fill="#E0E0E0"/>
<path d="M124.777 392.819L147.74 380.595C148.499 380.203 149.1 380.522 149.1 381.32V381.828C149.076 382.263 148.94 382.686 148.704 383.064C148.467 383.442 148.137 383.764 147.74 384.003L124.777 396.155C124.018 396.561 123.401 396.227 123.401 395.43V394.937C123.435 394.51 123.576 394.096 123.815 393.728C124.054 393.361 124.384 393.049 124.777 392.819Z" fill="#E0E0E0"/>
<path d="M215.394 232.596L236.981 221.169C238.12 220.574 239.037 221.053 239.037 222.256V238.309C238.999 238.963 238.794 239.6 238.436 240.167C238.079 240.734 237.58 241.216 236.981 241.572L215.394 252.984C214.271 253.579 213.338 253.086 213.338 251.897V235.858C213.382 235.206 213.59 234.571 213.947 234.005C214.304 233.439 214.799 232.956 215.394 232.596Z" fill="#E0E0E0"/>
<path d="M214.762 256.77L237.724 244.618C238.467 244.226 239.084 244.618 239.084 245.343V245.85C239.056 246.285 238.919 246.707 238.683 247.084C238.447 247.462 238.119 247.784 237.724 248.025L214.762 260.235C214.002 260.627 213.386 260.235 213.386 259.51V259.003C213.403 258.557 213.537 258.121 213.777 257.732C214.016 257.344 214.354 257.013 214.762 256.77Z" fill="#E0E0E0"/>
<path d="M214.762 263.57L237.724 251.418C238.467 251.027 239.084 251.418 239.084 252.143V252.651C239.056 253.085 238.919 253.508 238.683 253.885C238.447 254.262 238.119 254.584 237.724 254.826L214.762 266.978C214.002 267.369 213.386 266.978 213.386 266.253V265.745C213.413 265.309 213.552 264.885 213.791 264.507C214.03 264.129 214.362 263.808 214.762 263.57Z" fill="#E0E0E0"/>
<path d="M214.762 270.386L237.724 258.234C238.467 257.842 239.084 258.161 239.084 258.959V259.467C239.056 259.901 238.919 260.323 238.683 260.701C238.447 261.078 238.119 261.4 237.724 261.642L214.762 273.779C214.002 274.171 213.386 273.779 213.386 273.054V272.547C213.415 272.113 213.555 271.692 213.794 271.317C214.033 270.941 214.364 270.623 214.762 270.386Z" fill="#E0E0E0"/>
<path d="M214.762 277.173L237.724 265.021C238.467 264.629 239.084 264.948 239.084 265.746V266.253C239.056 266.687 238.919 267.11 238.683 267.487C238.447 267.865 238.119 268.187 237.724 268.428L214.762 280.537C214.002 280.928 213.386 280.609 213.386 279.812V279.304C213.42 278.876 213.562 278.46 213.801 278.09C214.04 277.721 214.368 277.406 214.762 277.173Z" fill="#E0E0E0"/>
<path d="M214.762 283.974L237.677 271.836C238.42 271.445 239.037 271.764 239.037 272.561V273.069C239.009 273.503 238.872 273.926 238.636 274.303C238.4 274.68 238.071 275.003 237.677 275.244L214.762 287.381C214.002 287.773 213.386 287.454 213.386 286.656V286.149C213.413 285.713 213.552 285.289 213.791 284.911C214.03 284.533 214.362 284.212 214.762 283.974Z" fill="#E0E0E0"/>
<path d="M260.37 208.8L281.957 197.373C283.08 196.764 284.013 197.257 284.013 198.46V214.513C283.971 215.166 283.763 215.801 283.406 216.367C283.049 216.934 282.553 217.416 281.957 217.776L260.37 229.203C259.232 229.797 258.314 229.319 258.314 228.115V212.062C258.352 211.408 258.558 210.772 258.915 210.205C259.272 209.637 259.771 209.156 260.37 208.8Z" fill="#E0E0E0"/>
<path d="M259.674 232.958L282.637 220.806C283.396 220.415 284.013 220.734 284.013 221.531V222.039C283.986 222.475 283.847 222.899 283.608 223.277C283.369 223.655 283.036 223.976 282.637 224.214L259.674 236.366C258.931 236.772 258.314 236.439 258.314 235.641V235.134C258.342 234.699 258.48 234.277 258.716 233.899C258.952 233.522 259.28 233.2 259.674 232.958Z" fill="#E0E0E0"/>
<path d="M259.674 239.774L282.637 227.607C283.396 227.216 284.013 227.535 284.013 228.333V228.84C283.986 229.276 283.847 229.7 283.608 230.078C283.369 230.456 283.036 230.777 282.637 231.015L259.674 243.167C258.931 243.573 258.314 243.24 258.314 242.442V241.949C258.339 241.514 258.474 241.09 258.711 240.712C258.947 240.334 259.277 240.013 259.674 239.774Z" fill="#E0E0E0"/>
<path d="M259.674 246.575L282.637 234.409C283.396 234.017 284.013 234.336 284.013 235.134V235.583C283.986 236.019 283.847 236.444 283.608 236.821C283.369 237.199 283.036 237.52 282.637 237.758L259.674 249.91C258.931 250.316 258.314 249.983 258.314 249.185V248.692C258.348 248.267 258.489 247.855 258.724 247.488C258.96 247.121 259.285 246.808 259.674 246.575Z" fill="#E0E0E0"/>
<path d="M259.674 253.376L282.637 241.21C283.396 240.818 284.013 241.21 284.013 241.935V242.442C283.986 242.878 283.847 243.303 283.608 243.68C283.369 244.058 283.036 244.379 282.637 244.617L259.674 256.769C258.931 257.175 258.314 256.769 258.314 256.044V255.551C258.339 255.116 258.474 254.693 258.711 254.315C258.947 253.937 259.277 253.615 259.674 253.376Z" fill="#E0E0E0"/>
<path d="M259.674 260.235L282.637 248.069C283.396 247.677 284.013 248.069 284.013 248.794V249.301C283.986 249.737 283.847 250.161 283.608 250.539C283.369 250.917 283.036 251.238 282.637 251.476L259.674 263.57C258.931 263.976 258.314 263.57 258.314 262.845V262.352C258.348 261.927 258.489 261.515 258.724 261.148C258.96 260.781 259.285 260.468 259.674 260.235Z" fill="#E0E0E0"/>
<path d="M259.674 266.978L282.637 254.826C283.396 254.42 284.013 254.739 284.013 255.551V256.044C283.987 256.481 283.849 256.905 283.61 257.283C283.371 257.661 283.037 257.982 282.637 258.219L259.674 270.386C258.931 270.792 258.314 270.386 258.314 269.661V269.168C258.337 268.731 258.473 268.304 258.709 267.924C258.945 267.543 259.276 267.219 259.674 266.978Z" fill="#E0E0E0"/>
<path d="M259.674 273.779L282.637 261.685C283.396 261.279 284.013 261.598 284.013 262.41V262.903C283.987 263.34 283.849 263.764 283.61 264.142C283.371 264.52 283.037 264.841 282.637 265.078L259.674 277.23C258.931 277.636 258.314 277.23 258.314 276.505V276.012C258.33 275.567 258.462 275.133 258.698 274.744C258.935 274.355 259.27 274.024 259.674 273.779Z" fill="#E0E0E0"/>
<path d="M259.674 280.537L282.637 268.385C283.396 267.979 284.013 268.298 284.013 269.11V269.603C283.987 270.039 283.849 270.464 283.61 270.842C283.371 271.22 283.037 271.541 282.637 271.778L259.674 283.93C258.931 284.336 258.314 284.017 258.314 283.205V282.712C258.34 282.277 258.476 281.854 258.712 281.476C258.949 281.098 259.278 280.777 259.674 280.537Z" fill="#E0E0E0"/>
<path d="M215.394 307.422L236.981 295.995C238.12 295.4 239.037 295.879 239.037 297.083V313.135C238.999 313.789 238.794 314.426 238.436 314.993C238.079 315.56 237.58 316.042 236.981 316.398L215.394 327.84C214.271 328.434 213.338 327.941 213.338 326.752V310.685C213.382 310.032 213.59 309.397 213.947 308.831C214.304 308.265 214.799 307.782 215.394 307.422Z" fill="#E0E0E0"/>
<path d="M214.762 331.595L237.724 319.443C238.467 319.052 239.084 319.371 239.084 320.168V320.676C239.056 321.11 238.919 321.533 238.683 321.91C238.447 322.288 238.119 322.61 237.724 322.851L214.762 335.003C214.002 335.395 213.386 335.076 213.386 334.278V333.771C213.413 333.334 213.552 332.91 213.791 332.532C214.03 332.155 214.362 331.834 214.762 331.595Z" fill="#E0E0E0"/>
<path d="M214.762 338.396L237.724 326.244C238.467 325.853 239.084 326.244 239.084 326.969V327.477C239.056 327.911 238.919 328.334 238.683 328.711C238.447 329.089 238.119 329.411 237.724 329.652L214.762 341.804C214.002 342.196 213.386 341.877 213.386 341.079V340.571C213.413 340.135 213.552 339.711 213.791 339.333C214.03 338.955 214.362 338.634 214.762 338.396Z" fill="#E0E0E0"/>
<path d="M214.762 345.198L237.724 333.046C238.467 332.654 239.084 333.046 239.084 333.771V334.278C239.056 334.713 238.919 335.135 238.683 335.512C238.447 335.89 238.119 336.212 237.724 336.453L214.762 348.605C214.002 348.997 213.386 348.678 213.386 347.88V347.373C213.413 346.937 213.552 346.512 213.791 346.135C214.03 345.757 214.362 345.436 214.762 345.198Z" fill="#E0E0E0"/>
<path d="M169.374 212.468C169.058 212.371 168.9 212.096 168.9 211.642C168.919 211.2 169.015 210.764 169.185 210.351L170.893 205.363C171.001 204.912 171.248 204.5 171.604 204.174C171.721 204.115 171.851 204.085 171.984 204.085C172.116 204.085 172.247 204.115 172.363 204.174C173.243 204.511 174.2 204.64 175.148 204.549C176.096 204.458 177.004 204.149 177.788 203.651C179.201 202.896 180.311 201.741 180.95 200.36C181.69 198.665 182.04 196.848 181.978 195.023V165.775C181.949 164.93 182.116 164.09 182.469 163.309C182.848 162.589 183.469 162 184.24 161.627L187.751 159.771C188.541 159.351 189.111 159.293 189.443 159.612C189.861 160.188 190.04 160.882 189.949 161.569V190.919C190.006 195.038 189.055 199.117 187.166 202.854C185.444 206.294 182.598 209.158 179.021 211.047C175.215 213.068 172 213.541 169.374 212.468Z" fill="#455A64"/>
<path d="M197.856 194.849C195.02 192.181 193.602 187.072 193.602 179.522C193.441 172.71 194.892 165.947 197.856 159.699C200.383 154.355 204.697 149.886 210.176 146.938C215.537 144.037 219.664 144.037 222.463 146.677C225.262 149.316 226.717 154.435 226.717 161.99C226.879 168.802 225.427 175.565 222.463 181.813C219.943 187.148 215.64 191.611 210.176 194.559C204.799 197.402 200.692 197.498 197.856 194.849ZM216.707 179.13C218.316 174.942 219.066 170.518 218.921 166.079C218.921 160.849 218.183 157.292 216.707 155.406C215.236 153.521 213.07 153.347 210.176 154.87C207.108 156.594 204.783 159.237 203.597 162.352C201.991 166.541 201.246 170.966 201.399 175.403C201.399 180.624 202.126 184.191 203.597 186.062C205.067 187.932 207.266 188.121 210.176 186.569C213.23 184.862 215.54 182.231 216.707 179.13Z" fill="#455A64"/>
<path d="M231.114 181.769C230.696 181.209 230.516 180.529 230.608 179.855V140.079C230.581 139.228 230.754 138.383 231.114 137.599C231.442 136.926 231.996 136.367 232.695 136.004L246.612 128.623C250.112 126.776 252.748 126.525 254.519 127.869C256.29 129.212 257.16 131.871 257.129 135.844C257.13 137.946 256.772 140.035 256.069 142.036C255.454 143.892 254.462 145.624 253.143 147.141C256.401 146.938 258.03 149.451 258.03 154.681C258.029 157.248 257.608 159.799 256.781 162.251C255.948 164.725 254.659 167.05 252.969 169.124C251.274 171.213 249.118 172.952 246.644 174.229L232.727 181.61C231.984 182.001 231.446 182.059 231.114 181.769ZM245.347 147.779C246.616 147.097 247.639 146.089 248.288 144.878C249.028 143.495 249.391 141.967 249.348 140.427C249.348 138.599 249.016 137.526 248.367 137.019C247.719 136.511 246.707 136.729 245.347 137.439L238.483 141.094V151.476L245.347 147.779ZM246.106 166.427C247.519 165.697 248.63 164.561 249.269 163.193C249.967 161.721 250.317 160.13 250.297 158.524C250.297 156.61 249.901 155.377 249.111 154.841C248.32 154.304 247.197 154.406 245.774 155.16L238.483 159.003V170.473L246.106 166.427Z" fill="#455A64"/>
<path d="M265.067 164.383C263.263 164.868 261.335 164.797 259.58 164.18C259.373 164.097 259.195 163.962 259.069 163.789C258.943 163.617 258.873 163.416 258.868 163.208C258.888 162.846 258.968 162.49 259.105 162.15L261.066 156.755C261.146 156.369 261.363 156.017 261.683 155.755C261.793 155.701 261.915 155.674 262.039 155.674C262.163 155.674 262.285 155.701 262.395 155.755C263.71 156.077 265.088 156.127 266.427 155.9C268.051 155.632 269.609 155.102 271.029 154.334C272.676 153.52 274.082 152.35 275.125 150.926C276.04 149.532 276.501 147.927 276.454 146.3C276.534 145.39 276.307 144.479 275.805 143.69C275.343 143.136 274.661 142.771 273.908 142.675C272.623 142.518 271.329 142.44 270.033 142.443C268.295 142.48 266.56 142.294 264.878 141.892C263.424 141.486 262.189 140.596 261.414 139.397C260.378 137.619 259.907 135.609 260.054 133.597C259.996 129.566 261.133 125.597 263.344 122.112C265.402 118.804 268.382 116.057 271.978 114.151C276.723 111.642 280.312 110.99 282.811 112.164C283.01 112.257 283.18 112.395 283.304 112.565C283.429 112.735 283.504 112.932 283.523 113.136C283.503 113.498 283.423 113.855 283.286 114.194L281.34 119.589C281.262 119.972 281.045 120.32 280.724 120.575C280.615 120.632 280.493 120.662 280.368 120.662C280.243 120.662 280.12 120.632 280.012 120.575C278.083 119.811 275.742 120.154 272.99 121.604C271.404 122.354 270.08 123.499 269.171 124.907C268.262 126.315 267.804 127.93 267.851 129.566C267.779 130.442 267.988 131.319 268.452 132.089C268.816 132.602 269.382 132.966 270.033 133.104C271.118 133.284 272.22 133.366 273.322 133.35H274.651C276.501 133.357 278.34 133.616 280.107 134.119C281.459 134.57 282.561 135.493 283.175 136.686C283.998 138.522 284.36 140.504 284.234 142.486C284.238 146.321 283.147 150.091 281.072 153.42C278.952 156.871 275.832 159.717 272.057 161.642C269.898 162.885 267.539 163.81 265.067 164.383Z" fill="#455A64"/>
<path d="M462.684 24.8394L456.264 21.4316C455.797 21.2328 455.282 21.1522 454.77 21.1981C454.258 21.244 453.769 21.4148 453.354 21.6926L371.641 65.0511C370.446 65.7681 369.452 66.732 368.738 67.8653C368.024 68.9986 367.61 70.2698 367.529 71.5766V226.014C367.475 226.481 367.557 226.954 367.769 227.382C367.98 227.81 368.312 228.179 368.731 228.45L375.057 231.843H375.152C375.606 232.012 376.099 232.072 376.586 232.019C377.072 231.965 377.536 231.8 377.935 231.539L399.522 220.112V232.017C399.522 234.12 399.885 235.338 400.486 235.672L406.812 239.05C407.539 239.413 408.599 238.485 409.785 236.15L425.093 206.423L459.521 188.093C460.716 187.376 461.71 186.412 462.424 185.279C463.138 184.146 463.552 182.875 463.633 181.568V27.2611C463.712 26.8167 463.666 26.3613 463.5 25.9377C463.334 25.5141 463.054 25.1361 462.684 24.8394Z" fill="#BA68C8"/>
<path opacity="0.4" d="M462.526 24.7511C462.072 24.6021 461.585 24.5547 461.106 24.6127C460.628 24.6707 460.171 24.8324 459.774 25.0846L378.046 68.4575C376.858 69.1348 375.879 70.078 375.199 71.1983L368.778 67.7905C369.454 66.6672 370.434 65.723 371.625 65.0498L453.338 21.6768C453.887 21.3678 454.513 21.193 455.157 21.1693C455.538 21.1627 455.914 21.2477 456.248 21.4158L462.526 24.7511Z" fill="white"/>
<path opacity="0.2" d="M400.597 235.729C400.012 235.395 399.648 234.177 399.648 232.074V220.183L406.116 216.732V235.439C406.116 237.44 406.448 238.658 406.97 239.064L400.597 235.729Z" fill="black"/>
<path opacity="0.1" d="M375.184 231.856L368.763 228.463C368.354 228.188 368.029 227.821 367.821 227.396C367.613 226.972 367.529 226.505 367.577 226.041V71.5751C367.635 70.2344 368.071 68.9303 368.842 67.7903L375.263 71.1981C374.496 72.339 374.065 73.6433 374.014 74.9829V229.42C373.954 229.885 374.031 230.356 374.237 230.784C374.443 231.213 374.77 231.583 375.184 231.856Z" fill="black"/>
<path d="M390.207 75.6064L447.598 45.154C449.495 44.1534 451.029 44.9655 451.029 46.9666V80.4208C450.965 81.513 450.62 82.5758 450.024 83.5231C449.428 84.4704 448.597 85.2756 447.598 85.8732L390.207 116.326C388.325 117.326 386.791 116.514 386.791 114.513V81.0443C386.856 79.956 387.199 78.8969 387.793 77.9524C388.386 77.0078 389.213 76.2043 390.207 75.6064Z" fill="#455A64"/>
<path d="M451.029 94.328C450.946 95.3844 450.591 96.4078 449.995 97.315C449.399 98.2221 448.577 98.9874 447.598 99.5484L390.207 129.928C388.325 130.929 386.791 130.218 386.791 128.333C386.876 127.281 387.23 126.262 387.823 125.358C388.417 124.453 389.233 123.69 390.207 123.127L447.598 92.7474C449.495 91.7468 451.029 92.4573 451.029 94.328Z" fill="#455A64"/>
<path d="M451.029 107.973C450.946 109.03 450.591 110.053 449.995 110.96C449.399 111.867 448.577 112.633 447.598 113.194L390.207 143.646C388.325 144.647 386.791 143.936 386.791 142.051C386.876 140.999 387.23 139.979 387.823 139.075C388.417 138.171 389.233 137.407 390.207 136.845L447.598 106.393C449.495 105.349 451.029 106.059 451.029 107.973Z" fill="#455A64"/>
<path d="M451.029 121.532C450.946 122.588 450.591 123.612 449.995 124.519C449.399 125.426 448.577 126.191 447.598 126.752L390.207 157.205C388.325 158.205 386.791 157.495 386.791 155.61C386.876 154.557 387.23 153.538 387.823 152.634C388.417 151.73 389.233 150.966 390.207 150.404L447.598 119.951C449.495 118.951 451.029 119.661 451.029 121.532Z" fill="#455A64"/>
<path d="M451.029 135.134C450.946 136.19 450.591 137.214 449.995 138.121C449.399 139.028 448.577 139.793 447.598 140.354L390.207 170.734C388.325 171.735 386.791 171.024 386.791 169.139C386.876 168.087 387.23 167.067 387.823 166.163C388.417 165.259 389.233 164.495 390.207 163.933L447.598 133.481C449.495 132.625 451.029 133.263 451.029 135.134Z" fill="#455A64"/>
<path d="M386.791 182.756C386.791 184.626 388.372 185.337 390.207 184.336L396.216 181.161C397.19 180.598 398.007 179.834 398.6 178.93C399.193 178.026 399.547 177.007 399.632 175.955C399.632 174.069 398.051 173.359 396.216 174.359L390.207 177.535C389.231 178.099 388.413 178.865 387.82 179.772C387.227 180.679 386.874 181.701 386.791 182.756Z" fill="#455A64"/>
<path d="M408.33 171.372C408.33 173.243 409.912 173.953 411.762 172.953L447.597 153.956C448.577 153.395 449.399 152.63 449.995 151.723C450.591 150.816 450.946 149.792 451.029 148.736C451.029 146.865 449.448 146.154 447.597 147.155L411.762 166.152C410.782 166.713 409.961 167.478 409.364 168.385C408.768 169.292 408.414 170.316 408.33 171.372Z" fill="#455A64"/>
<path d="M386.791 196.43C386.791 198.301 388.372 199.012 390.207 198.011L396.216 194.835C397.19 194.273 398.007 193.509 398.6 192.605C399.193 191.701 399.547 190.682 399.632 189.629C399.632 187.744 398.051 187.034 396.216 188.034L390.207 191.21C389.231 191.774 388.413 192.54 387.82 193.447C387.227 194.353 386.874 195.376 386.791 196.43Z" fill="#455A64"/>
<path d="M408.33 184.974C408.33 186.845 409.912 187.556 411.762 186.555L447.597 167.558C448.577 166.997 449.399 166.232 449.995 165.325C450.591 164.418 450.946 163.394 451.029 162.338C451.029 160.467 449.448 159.757 447.597 160.757L411.762 179.754C410.782 180.315 409.961 181.08 409.364 181.987C408.768 182.895 408.414 183.918 408.33 184.974Z" fill="#455A64"/>
<path d="M386.791 209.96C386.791 211.831 388.372 212.542 390.207 211.541L396.216 208.365C397.19 207.803 398.007 207.039 398.6 206.135C399.193 205.231 399.547 204.212 399.632 203.159C399.632 201.274 398.051 200.563 396.216 201.564L390.207 204.74C389.231 205.303 388.413 206.07 387.82 206.976C387.227 207.883 386.874 208.905 386.791 209.96Z" fill="#455A64"/>
<path d="M408.33 198.576C408.33 200.447 409.912 201.158 411.762 200.157L447.597 181.161C448.575 180.601 449.395 179.838 449.991 178.933C450.588 178.029 450.943 177.009 451.029 175.955C451.029 174.069 449.448 173.359 447.597 174.359L411.762 193.356C410.782 193.917 409.961 194.682 409.364 195.59C408.768 196.497 408.414 197.52 408.33 198.576Z" fill="#455A64"/>
<path d="M539.812 65.5584L533.486 62.1506C533.02 61.9518 532.504 61.8712 531.992 61.9171C531.48 61.963 530.992 62.1337 530.576 62.4116L448.816 105.756C447.621 106.473 446.627 107.436 445.913 108.57C445.199 109.703 444.785 110.974 444.704 112.281V266.719C444.649 267.186 444.732 267.658 444.943 268.087C445.155 268.515 445.487 268.884 445.906 269.155L452.311 272.548H452.39C452.846 272.717 453.342 272.778 453.832 272.725C454.321 272.672 454.788 272.506 455.189 272.243L476.775 260.817V272.722C476.775 274.825 477.139 276.043 477.724 276.376L484.05 279.755H484.129C484.857 280.118 485.916 279.19 487.086 276.855L502.411 247.127L536.839 228.798C538.033 228.081 539.027 227.117 539.741 225.984C540.455 224.85 540.869 223.579 540.95 222.272V67.9801C541.007 67.5204 540.932 67.0551 540.732 66.6303C540.533 66.2056 540.215 65.836 539.812 65.5584Z" fill="#BA68C8"/>
<path opacity="0.4" d="M539.638 65.4706C539.183 65.3217 538.696 65.2742 538.218 65.3322C537.739 65.3902 537.283 65.552 536.886 65.8042L455.141 109.177C453.954 109.854 452.975 110.798 452.295 111.918L445.874 108.51C446.554 107.39 447.534 106.447 448.721 105.769L530.45 62.3964C530.997 62.0843 531.624 61.9093 532.268 61.8889C532.644 61.8841 533.015 61.9691 533.344 62.1354L539.638 65.4706Z" fill="white"/>
<path opacity="0.2" d="M477.708 276.448C477.123 276.114 476.759 274.896 476.759 272.793V260.902L483.18 257.495V276.187C483.18 278.188 483.512 279.406 484.05 279.812L477.708 276.448Z" fill="black"/>
<path opacity="0.1" d="M452.294 272.576L445.89 269.183C445.477 268.91 445.151 268.543 444.943 268.118C444.734 267.693 444.652 267.225 444.703 266.761V112.324C444.755 110.984 445.185 109.68 445.953 108.539L452.373 111.947C451.606 113.088 451.176 114.392 451.124 115.732V270.169C451.07 270.629 451.15 271.094 451.356 271.517C451.561 271.94 451.885 272.305 452.294 272.576Z" fill="black"/>
<path d="M467.334 116.326L524.725 85.8737C526.607 84.8731 528.141 85.6852 528.141 87.6863V121.228C528.076 122.318 527.734 123.38 527.141 124.327C526.547 125.274 525.72 126.08 524.725 126.68L467.334 157.132C465.436 158.133 463.902 157.321 463.902 155.32V121.764C463.967 120.674 464.311 119.613 464.908 118.668C465.504 117.723 466.335 116.921 467.334 116.326Z" fill="#455A64"/>
<path d="M528.141 135.047C528.057 136.102 527.705 137.124 527.112 138.031C526.518 138.938 525.701 139.704 524.725 140.267L467.334 170.647C465.436 171.648 463.902 170.937 463.902 169.052C463.988 167.998 464.344 166.978 464.94 166.073C465.536 165.169 466.356 164.406 467.334 163.846L524.725 133.466C526.607 132.466 528.141 133.176 528.141 135.047Z" fill="#455A64"/>
<path d="M528.141 148.649C528.057 149.704 527.705 150.726 527.112 151.633C526.518 152.54 525.701 153.306 524.725 153.87L467.334 184.25C465.436 185.25 463.902 184.54 463.902 182.654C463.988 181.601 464.344 180.58 464.94 179.676C465.536 178.771 466.356 178.008 467.334 177.449L524.725 147.127C526.607 146.068 528.141 146.779 528.141 148.649Z" fill="#455A64"/>
<path d="M528.141 162.251C528.05 163.298 527.694 164.312 527.101 165.211C526.508 166.109 525.694 166.869 524.725 167.428L467.334 197.88C465.436 198.881 463.902 198.17 463.902 196.285C463.988 195.231 464.344 194.211 464.94 193.306C465.536 192.402 466.356 191.639 467.334 191.079L524.725 160.67C526.607 159.67 528.141 160.38 528.141 162.251Z" fill="#455A64"/>
<path d="M528.141 175.853C528.057 176.908 527.705 177.93 527.112 178.837C526.518 179.744 525.701 180.51 524.725 181.074L467.334 211.526C465.436 212.527 463.902 211.816 463.902 209.931C463.988 208.877 464.344 207.857 464.94 206.952C465.536 206.048 466.356 205.285 467.334 204.725L524.725 174.273C526.607 173.229 528.141 173.983 528.141 175.853Z" fill="#455A64"/>
<path d="M463.902 223.475C463.902 225.346 465.484 226.057 467.334 225.056L473.328 221.88C474.305 221.321 475.126 220.558 475.722 219.653C476.318 218.749 476.674 217.728 476.76 216.674C476.76 214.789 475.178 214.079 473.328 215.079L467.334 218.255C466.354 218.816 465.533 219.581 464.937 220.488C464.34 221.396 463.986 222.419 463.902 223.475Z" fill="#455A64"/>
<path d="M485.458 212.092C485.458 213.962 487.039 214.673 488.889 213.672L524.725 194.676C525.701 194.112 526.518 193.346 527.112 192.439C527.705 191.532 528.058 190.51 528.141 189.455C528.141 187.585 526.559 186.874 524.725 187.875L488.873 206.871C487.897 207.435 487.08 208.201 486.486 209.108C485.893 210.015 485.541 211.037 485.458 212.092Z" fill="#455A64"/>
<path d="M463.902 237.034C463.902 238.904 465.484 239.615 467.334 238.614L473.328 235.439C474.305 234.879 475.126 234.116 475.722 233.212C476.318 232.307 476.674 231.287 476.76 230.233C476.76 228.348 475.178 227.637 473.328 228.638L467.334 231.813C466.354 232.374 465.533 233.14 464.937 234.047C464.34 234.954 463.986 235.977 463.902 237.034Z" fill="#455A64"/>
<path d="M485.458 225.694C485.458 227.565 487.039 228.275 488.889 227.275L524.725 208.278C525.701 207.715 526.518 206.948 527.112 206.042C527.705 205.135 528.058 204.113 528.141 203.058C528.141 201.187 526.559 200.477 524.725 201.477L488.873 220.474C487.897 221.037 487.08 221.803 486.486 222.71C485.893 223.617 485.541 224.639 485.458 225.694Z" fill="#455A64"/>
<path d="M463.902 250.679C463.902 252.55 465.484 253.261 467.334 252.26L473.328 249.084C474.305 248.525 475.126 247.762 475.722 246.857C476.318 245.953 476.674 244.932 476.76 243.878C476.76 241.993 475.178 241.283 473.328 242.283L467.334 245.459C466.354 246.02 465.533 246.785 464.937 247.692C464.34 248.6 463.986 249.623 463.902 250.679Z" fill="#455A64"/>
<path d="M485.458 239.296C485.458 241.167 487.039 241.877 488.889 240.877L524.725 221.88C525.699 221.318 526.515 220.554 527.108 219.65C527.702 218.746 528.055 217.727 528.141 216.674C528.141 214.789 526.559 214.079 524.725 215.079L488.873 234.134C487.906 234.692 487.093 235.449 486.5 236.345C485.907 237.241 485.55 238.251 485.458 239.296Z" fill="#455A64"/>
<path d="M623.375 5.69768L614.867 1.23132H614.788C611.04 -0.697335 605.9 -0.407308 600.207 2.59443C588.742 8.67042 579.458 23.4326 579.458 35.5701C579.458 41.6171 581.767 45.8804 585.515 47.8671L593.201 51.8984L595.036 48.9981C597.13 48.5771 599.141 47.863 600.998 46.881C612.447 40.8195 621.746 26.0573 621.746 13.9198C621.74 12.2827 621.522 10.6521 621.098 9.06195L623.375 5.69768Z" fill="#BA68C8"/>
<path d="M579.507 35.4674C579.507 41.5289 581.816 45.7922 585.564 47.7789L593.25 51.8102L595.084 48.997C597.176 48.5639 599.186 47.8453 601.046 46.8653C607.598 43.0838 612.919 37.7541 616.449 31.4361L586.402 15.4849C582.181 21.454 579.799 28.3584 579.507 35.4674Z" fill="#263238"/>
<path d="M623.391 5.69653L614.946 1.23017H614.867C611.119 -0.712988 605.98 -0.422961 600.286 2.59328C594.589 5.80941 589.825 10.2425 586.401 15.5138L616.449 31.4651C619.719 26.1402 621.541 20.1713 621.762 14.0637C621.756 12.4266 621.539 10.7959 621.114 9.20581L623.391 5.69653Z" fill="#455A64"/>
<path d="M608.273 6.78408C596.823 12.8456 587.524 27.6077 587.524 39.8177C587.524 52.0277 596.823 56.8711 608.273 50.7951C619.723 44.7191 629.101 29.8989 629.101 17.7615C629.101 5.62399 619.738 0.664594 608.273 6.78408Z" fill="#37474F"/>
<path d="M609.791 16.8336C610.405 16.6373 611.065 16.5923 611.704 16.7031C612.225 16.8139 612.706 17.049 613.096 17.3846C613.473 17.7213 613.759 18.1332 613.934 18.5882C614.134 19.0514 614.251 19.541 614.282 20.0384C614.292 20.2804 614.232 20.5207 614.108 20.7344C614.012 20.925 613.858 21.0862 613.665 21.1984L612.084 22.025C611.831 22.17 611.641 22.199 611.514 22.1265C611.36 22.0356 611.239 21.9043 611.166 21.7495C611.057 21.5623 610.909 21.3968 610.73 21.2624C610.551 21.128 610.344 21.0274 610.123 20.9664C609.769 20.9197 609.409 20.9393 609.063 21.0241C608.718 21.1088 608.395 21.2569 608.114 21.4595C607.712 21.6666 607.34 21.92 607.007 22.2135C606.659 22.5073 606.352 22.8384 606.09 23.1996C605.828 23.5487 605.621 23.9293 605.473 24.3307C605.329 24.7134 605.255 25.115 605.252 25.5198C605.218 25.8879 605.307 26.2568 605.505 26.5784C605.597 26.6905 605.717 26.7816 605.854 26.8444C605.991 26.9073 606.142 26.9403 606.296 26.9409C606.769 26.9602 607.243 26.9162 607.703 26.8104L609.791 26.3608C610.528 26.1821 611.29 26.1039 612.052 26.1288C612.628 26.1381 613.184 26.3217 613.634 26.6509C614.06 27.005 614.358 27.4707 614.488 27.985C614.666 28.6932 614.751 29.4187 614.741 30.1456C614.729 30.9626 614.612 31.7755 614.393 32.5673C614.162 33.4093 613.834 34.2261 613.412 35.0035C612.976 35.8036 612.446 36.5573 611.831 37.2512C611.221 37.9502 610.526 38.5827 609.759 39.1363V41.268C609.754 41.5056 609.689 41.7388 609.569 41.9495C609.489 42.1439 609.345 42.3109 609.158 42.4281L607.339 43.3851C607.281 43.434 607.205 43.4612 607.126 43.4612C607.047 43.4612 606.971 43.434 606.912 43.3851C606.849 43.3177 606.801 43.2394 606.771 43.1547C606.741 43.0701 606.73 42.9808 606.738 42.8921V40.7459C606.134 40.9403 605.496 41.0288 604.856 41.007C604.294 40.9842 603.748 40.824 603.275 40.5429C602.814 40.2385 602.449 39.8284 602.215 39.3538C601.927 38.735 601.776 38.0693 601.773 37.3962C601.758 37.1538 601.818 36.9125 601.947 36.7001C602.037 36.5069 602.185 36.3411 602.374 36.2216L603.955 35.395C604.208 35.2645 604.398 35.221 604.54 35.279C604.697 35.3706 604.814 35.5089 604.872 35.6705C604.983 35.8861 605.11 36.0944 605.252 36.2941C605.402 36.4831 605.612 36.6249 605.853 36.7001C606.165 36.7669 606.49 36.7669 606.802 36.7001C607.307 36.5926 607.788 36.4063 608.225 36.1491C608.681 35.9067 609.115 35.6303 609.522 35.3225C609.925 35.0111 610.291 34.6611 610.613 34.2784C610.923 33.8994 611.178 33.4851 611.372 33.0458C611.565 32.6134 611.662 32.15 611.657 31.6827C611.679 31.5096 611.663 31.334 611.608 31.1669C611.554 30.9998 611.463 30.8447 611.34 30.7112C611.208 30.6146 611.056 30.5431 610.893 30.5008C610.73 30.4585 610.56 30.4462 610.392 30.4647C609.857 30.4915 609.327 30.5692 608.81 30.6967C608.178 30.8417 607.466 30.9722 606.643 31.1172C606.002 31.2561 605.34 31.3001 604.683 31.2477C604.171 31.2159 603.686 31.0269 603.307 30.7112C602.909 30.3347 602.626 29.8699 602.484 29.3626C602.288 28.6077 602.197 27.8328 602.215 27.0569C602.214 26.2296 602.331 25.4057 602.563 24.6062C602.784 23.7926 603.091 23.0009 603.481 22.2425C603.868 21.486 604.345 20.7712 604.904 20.1109C605.439 19.4671 606.043 18.8744 606.707 18.3417V16.2101C606.713 15.9744 606.773 15.7424 606.881 15.5285C606.971 15.3353 607.119 15.1694 607.308 15.05L609.126 14.0929C609.182 14.045 609.256 14.0183 609.332 14.0183C609.408 14.0183 609.482 14.045 609.538 14.0929C609.606 14.1576 609.659 14.2352 609.692 14.3203C609.724 14.4054 609.737 14.4961 609.727 14.5859L609.791 16.8336Z" fill="#FAFAFA"/>
<path d="M623.375 147.59L614.867 143.124H614.788C611.04 141.181 605.9 141.471 600.207 144.487C588.742 150.549 579.458 165.311 579.458 177.448C579.458 183.51 581.767 187.759 585.515 189.76L593.201 193.777L595.036 190.963C597.128 190.536 599.137 189.822 600.998 188.846C612.447 182.77 621.746 168.008 621.746 155.87C621.739 154.233 621.521 152.603 621.098 151.013L623.375 147.59Z" fill="#BA68C8"/>
<path d="M579.507 177.419C579.507 183.481 581.816 187.73 585.564 189.731L593.25 193.747L595.084 190.934C597.176 190.501 599.186 189.783 601.046 188.803C607.604 185.015 612.926 179.674 616.449 173.344L586.402 157.393C582.177 163.377 579.795 170.296 579.507 177.419Z" fill="#263238"/>
<path d="M623.391 147.59L614.946 143.124H614.867C611.119 141.181 605.979 141.471 600.286 144.487C594.596 147.715 589.843 152.158 586.433 157.437L616.48 173.388C619.779 168.015 621.607 161.99 621.81 155.827C621.803 154.19 621.585 152.559 621.161 150.969L623.391 147.59Z" fill="#455A64"/>
<path d="M608.273 148.678C596.823 154.739 587.524 169.502 587.524 181.639C587.524 193.777 596.823 198.693 608.273 192.631C619.723 186.57 629.101 171.778 629.101 159.67C629.101 147.561 619.738 142.616 608.273 148.678Z" fill="#37474F"/>
<path d="M618.837 174.983L597.724 186.163C597.471 186.294 597.282 186.163 597.282 185.772V168.602C597.277 168.436 597.314 168.27 597.391 168.119C597.468 167.968 597.582 167.836 597.724 167.732L618.837 156.552C619.074 156.421 619.28 156.552 619.28 156.943V174.127C619.282 174.291 619.243 174.454 619.167 174.602C619.09 174.751 618.977 174.881 618.837 174.983Z" fill="#FAFAFA"/>
<path d="M612.432 161.077C612.194 161.207 611.989 161.077 611.989 160.685V158.075L604.572 162.005V164.615C604.575 164.783 604.535 164.949 604.455 165.1C604.376 165.251 604.259 165.383 604.113 165.485C603.876 165.615 603.671 165.485 603.671 165.093V161.845C603.668 161.681 603.707 161.518 603.783 161.37C603.86 161.222 603.973 161.092 604.113 160.99L612.432 156.639C612.685 156.509 612.874 156.639 612.874 157.031V160.178C612.887 160.349 612.853 160.521 612.776 160.678C612.699 160.835 612.581 160.972 612.432 161.077Z" fill="#FAFAFA"/>
<path d="M612.432 157.842L604.113 162.193C603.876 162.323 603.67 162.193 603.67 161.801V160.351C603.669 160.185 603.708 160.021 603.785 159.87C603.861 159.72 603.974 159.587 604.113 159.481L612.432 155.131C612.685 155 612.874 155.131 612.874 155.522V156.972C612.879 157.139 612.842 157.304 612.765 157.455C612.688 157.606 612.574 157.739 612.432 157.842Z" fill="#FAFAFA"/>
<path d="M611.293 168.559L605.252 171.749C605.078 171.851 604.936 171.749 604.936 171.459V170.415C604.933 170.296 604.96 170.178 605.015 170.07C605.07 169.962 605.151 169.867 605.252 169.792L611.293 166.602C611.483 166.5 611.625 166.602 611.625 166.877V167.921C611.628 168.044 611.6 168.166 611.542 168.276C611.485 168.387 611.399 168.484 611.293 168.559Z" fill="#37474F"/>
<path d="M623.375 76.6505L614.867 72.1696H614.788C611.04 70.2265 605.9 70.5165 600.207 73.5327C588.742 79.6087 579.458 94.3564 579.458 106.494C579.458 112.555 581.767 116.819 585.515 118.805L593.201 122.822L595.036 120.009C597.13 119.588 599.141 118.874 600.998 117.892C612.447 111.816 621.746 97.0681 621.746 84.9306C621.74 83.2888 621.522 81.6533 621.098 80.0583L623.375 76.6505Z" fill="#BA68C8"/>
<path d="M579.507 106.523C579.507 112.585 581.816 116.848 585.564 118.835L593.25 122.851L595.084 120.038C597.178 119.617 599.189 118.903 601.046 117.921C607.613 114.112 612.935 108.746 616.449 102.39L586.402 86.4392C582.166 92.4395 579.784 99.3802 579.507 106.523Z" fill="#263238"/>
<path d="M623.391 76.6509L614.946 72.17H614.867C611.119 70.2414 605.979 70.5169 600.286 73.5332C594.596 76.7611 589.843 81.2042 586.433 86.4827L616.48 102.434C619.759 97.0863 621.582 91.0919 621.794 84.9601C621.788 83.3182 621.57 81.6828 621.145 80.0877L623.391 76.6509Z" fill="#455A64"/>
<path d="M608.273 77.7239C596.823 83.7998 587.524 98.5475 587.524 110.685C587.524 122.822 596.823 127.753 608.273 121.677C619.723 115.601 629.101 100.853 629.101 88.7157C629.101 76.5783 619.738 71.7204 608.273 77.7239Z" fill="#37474F"/>
<path d="M600.634 97.0391C600.634 94.2839 602.215 91.2386 604.176 90.1655C606.137 89.0925 607.719 90.5281 607.719 93.2978C607.719 96.0675 606.137 99.0982 604.176 100.171C602.215 101.244 600.634 99.8088 600.634 97.0391Z" fill="white"/>
<path d="M610.502 110.96L597.471 117.863L598.167 109.916C598.468 106.537 600.413 103.072 602.722 101.854L605.236 100.519C607.545 99.3014 609.49 100.694 609.791 103.768L610.502 110.96Z" fill="white"/>
<path d="M609.237 88.7588C609.237 86.0036 610.819 82.9584 612.78 81.8853C614.741 80.8122 616.322 82.2478 616.322 85.0175C616.322 87.7872 614.741 90.818 612.78 91.8911C610.819 92.9642 609.237 91.5285 609.237 88.7588Z" fill="white"/>
<path d="M619.074 102.68L611.088 106.915L610.724 103.115C610.455 100.447 609.142 98.7651 607.403 98.7651C608.015 96.686 609.396 94.8664 611.309 93.6171L613.824 92.2975C616.132 91.0649 618.078 92.457 618.378 95.5313L619.074 102.68Z" fill="white"/>
<path d="M406.907 373.083C406.907 364.093 400.423 355.102 387.456 348.243C361.536 334.51 319.454 334.51 293.581 348.243C280.613 355.102 274.129 364.093 274.129 373.083V389.658C274.129 398.649 280.613 407.639 293.581 414.513C319.501 428.231 361.583 428.231 387.456 414.513C400.423 407.639 406.907 398.649 406.907 389.658V373.083ZM296.791 353.333C308.368 347.199 323.897 343.834 340.518 343.834C357.139 343.834 372.669 347.199 384.245 353.333C394.714 358.872 400.487 365.891 400.487 373.083C400.487 380.276 394.714 387.294 384.245 392.834C372.669 398.968 357.092 402.347 340.518 402.347C323.945 402.347 308.368 398.968 296.791 392.834C286.322 387.294 280.55 380.276 280.55 373.083C280.55 365.891 286.322 358.843 296.791 353.333Z" fill="#BA68C8"/>
<path opacity="0.3" d="M293.566 397.997C319.501 411.715 361.568 411.715 387.456 397.997C413.344 384.279 413.376 362.02 387.456 348.302C361.536 334.583 319.454 334.569 293.566 348.302C267.678 362.034 267.646 384.221 293.566 397.997ZM280.55 373.142C280.55 365.891 286.307 358.931 296.776 353.391C308.352 347.257 323.898 343.893 340.519 343.893C357.14 343.893 372.67 347.257 384.246 353.391C394.715 358.931 400.471 365.949 400.471 373.142C400.471 380.335 394.715 387.353 384.246 392.893C372.67 398.969 357.092 402.347 340.519 402.347C323.945 402.347 308.352 398.969 296.776 392.835C286.307 387.295 280.55 380.277 280.55 373.084V373.142Z" fill="white"/>
<path d="M280.55 373.083C280.589 376.011 281.485 378.876 283.144 381.378C285.769 377.201 290.403 373.272 296.792 369.907C308.352 363.773 323.898 360.395 340.519 360.395C357.14 360.395 372.669 363.773 384.245 369.907C389.8 372.59 394.506 376.54 397.909 381.378C399.557 378.872 400.447 376.009 400.487 373.083C400.487 365.833 394.715 358.872 384.245 353.333C372.669 347.213 357.14 343.834 340.519 343.834C323.898 343.834 308.352 347.213 296.792 353.333C286.307 358.843 280.55 365.891 280.55 373.083Z" fill="#BA68C8"/>
<path opacity="0.1" d="M280.55 373.083C280.589 376.011 281.485 378.876 283.144 381.378C285.769 377.201 290.403 373.272 296.792 369.907C308.352 363.773 323.898 360.395 340.519 360.395C357.14 360.395 372.669 363.773 384.245 369.907C389.8 372.59 394.506 376.54 397.909 381.378C399.557 378.872 400.447 376.009 400.487 373.083C400.487 365.833 394.715 358.872 384.245 353.333C372.669 347.213 357.14 343.834 340.519 343.834C323.898 343.834 308.352 347.213 296.792 353.333C286.307 358.843 280.55 365.891 280.55 373.083Z" fill="black"/>
<path opacity="0.4" d="M296.776 360.83C308.352 354.71 323.898 351.332 340.518 351.332C357.139 351.332 372.669 354.71 384.245 360.83C392.88 365.412 398.304 370.981 399.949 376.781C398.368 382.582 392.88 388.208 384.245 392.732C372.669 398.968 357.092 402.347 340.518 402.347C323.945 402.347 308.352 398.968 296.776 392.834C288.141 388.266 282.717 382.683 281.088 376.883C282.764 370.981 288.141 365.412 296.776 360.83Z" fill="white"/>
<path opacity="0.1" d="M324.878 407.248V423.808C313.897 422.56 303.275 419.406 293.581 414.513C280.613 407.639 274.129 398.649 274.129 389.658V373.083C274.134 371.251 274.4 369.428 274.92 367.66C271.757 378.362 277.988 389.687 293.565 397.938C303.263 402.837 313.89 405.997 324.878 407.248Z" fill="black"/>
<path d="M295.542 408.481C295.461 407.002 295.001 405.561 294.198 404.276C293.396 402.991 292.274 401.898 290.924 401.085C290.458 400.771 289.909 400.577 289.334 400.521C288.759 400.465 288.178 400.549 287.651 400.766L265.368 412.497C264.89 412.796 264.51 413.21 264.27 413.693C264.03 414.177 263.94 414.711 264.008 415.238C264.077 416.712 264.522 418.15 265.308 419.437C266.094 420.724 267.197 421.824 268.531 422.648C269 422.964 269.552 423.158 270.131 423.212C270.709 423.265 271.292 423.176 271.82 422.953L294.166 411.265C294.645 410.955 295.025 410.534 295.267 410.044C295.509 409.555 295.604 409.015 295.542 408.481Z" fill="#37474F"/>
<path d="M294.166 411.25C294.643 410.942 295.021 410.523 295.263 410.036C295.505 409.55 295.601 409.013 295.542 408.481C295.523 407.38 295.259 406.295 294.767 405.291L265.938 420.401C266.629 421.301 267.511 422.066 268.531 422.648C269 422.964 269.552 423.158 270.131 423.212C270.709 423.265 271.292 423.176 271.82 422.953L294.166 411.265V411.25Z" fill="#263238"/>
<path d="M272.295 422.648C272.193 420.72 271.595 418.842 270.551 417.166C269.506 415.491 268.045 414.065 266.286 413.005C265.686 412.604 264.982 412.355 264.244 412.281C263.506 412.207 262.759 412.312 262.079 412.584L187.957 448.837L199.027 466.761L270.572 426.157C271.168 425.761 271.64 425.229 271.943 424.613C272.245 423.998 272.367 423.32 272.295 422.648Z" fill="#BA68C8"/>
<path opacity="0.1" d="M198.948 466.746L270.492 426.143C271.112 425.747 271.605 425.206 271.919 424.576C272.234 423.946 272.358 423.25 272.279 422.561C272.189 420.497 271.495 418.494 270.271 416.76L193.254 457.451L198.948 466.746Z" fill="black"/>
<path d="M193.365 466.152C191.055 464.763 189.135 462.894 187.761 460.697C186.387 458.5 185.598 456.037 185.458 453.507C185.458 448.867 189.032 446.996 193.365 449.331C195.675 450.716 197.595 452.582 198.969 454.777C200.343 456.972 201.132 459.434 201.272 461.961C201.304 466.674 197.746 468.545 193.365 466.152Z" fill="#BA68C8"/>
<g opacity="0.2">
<path opacity="0.2" d="M193.365 466.152C191.055 464.763 189.135 462.894 187.761 460.697C186.387 458.5 185.598 456.037 185.458 453.507C185.458 448.867 189.032 446.996 193.365 449.331C195.675 450.716 197.595 452.582 198.969 454.777C200.343 456.972 201.132 459.434 201.272 461.961C201.304 466.674 197.746 468.545 193.365 466.152Z" fill="black"/>
</g>
<path d="M630.253 306.001C631.06 278.449 628.672 271.822 620.654 266.761L617.491 282.712C617.491 282.712 621.144 301.564 620.749 307.814C620.417 313.324 619.832 320.227 618.408 324.679C618.148 325.462 617.586 326.132 616.827 326.564C615.169 327.646 613.689 328.94 612.431 330.407C611.229 331.567 610.201 331.857 610.359 332.219C610.59 332.624 610.978 332.934 611.447 333.087C611.917 333.24 612.431 333.226 612.889 333.046C613.915 332.672 614.887 332.185 615.783 331.596C615.075 333.286 614.076 334.863 612.826 336.265C609.964 339.47 609.837 341.442 615.609 341.5C619.231 341.5 622.125 339.484 624.845 332.176C625.896 329.496 626.747 326.754 627.391 323.968C628.745 318.038 629.701 312.038 630.253 306.001Z" fill="#FFA8A7"/>
<path d="M613.918 264.673C616.378 264.269 618.914 264.61 621.144 265.643C623.375 266.676 625.179 268.346 626.285 270.4C629.638 275.896 630.46 285.366 630.839 294.777C630.839 294.777 624.182 299.896 616.179 297.387L613.918 264.673Z" fill="#BA68C8"/>
<path d="M625.162 416.355C625.762 416.572 625.921 417.631 626.015 419.734C626.015 421.329 626.442 424.084 624.434 424.679C622.426 425.273 619.405 424.94 618.108 423.446C616.527 421.561 615.372 419.922 613.048 417.645C611.023 415.659 608.841 413.803 608.034 411.018C607.291 408.495 607.908 407.408 609.774 406.668C612.352 405.668 616.4 408.959 618.425 409.467C620.133 409.902 624.545 416.152 625.162 416.355Z" fill="#263238"/>
<path d="M625.162 414.412V416.993C624.103 417.616 622.879 417.961 621.622 417.992C620.365 418.023 619.123 417.737 618.029 417.167C617.903 416.921 617.286 413.469 617.286 413.469L625.162 414.412Z" fill="#FFA8A7"/>
<path d="M602.294 431.349C602.793 432.734 603.21 434.143 603.544 435.569C603.892 437.135 604.398 439.745 603.797 440.92C603.196 442.094 600.871 442.863 597.25 442.834C594.245 443.171 591.354 444.096 588.773 445.546C585.407 446.856 581.741 447.389 578.098 447.097C574.936 446.764 571.551 445.053 571.029 443.835C570.507 442.617 571.203 441.34 578.778 438.382C578.778 438.382 589.311 435.235 593.011 431.523L602.294 431.349Z" fill="#263238"/>
<path d="M602.294 428.449V431.465C602.294 432.567 600.903 434.206 597.234 434.075C594.672 433.988 592.869 433.365 592.979 431.422V428.623L602.294 428.449Z" fill="#FFA8A7"/>
<path d="M626.996 380.073C626.369 375.488 625.252 370.971 623.66 366.587C623.66 366.587 624.672 354.986 625.146 343.936C625.668 332.031 625.146 317.051 625.368 314.079C625.368 314.079 583.459 306.306 582.669 320.082C581.878 333.858 584.25 368.893 584.819 374.94C585.389 380.987 586.401 386.323 587.808 396.126C589.216 405.929 592.932 428.652 592.932 428.652C594.38 429.329 595.988 429.667 597.613 429.637C599.238 429.606 600.83 429.208 602.247 428.478C602.247 428.478 605.204 400.926 604.888 393.98C604.65 388.807 603.683 383.684 602.01 378.739C602.01 378.739 602.8 367.385 603.496 357.509C604.192 347.634 604.951 342.892 605.078 338.658L605.979 338.252C605.979 338.252 606.896 355.291 607.402 361.338C607.908 367.385 608.984 373.185 610.85 384.409C612.51 394.154 617.429 414.775 617.429 414.775C622.173 417.153 625.083 414.47 625.083 414.47C625.083 414.47 628.277 388.527 626.996 380.073Z" fill="#37474F"/>
<path d="M605.156 338.542C605.156 338.542 615.325 333.945 620.417 329.841C620.417 329.841 615.673 335.946 609.489 338.643C609.489 338.643 607.275 359.815 607.291 359.394L606.01 338.542H605.156Z" fill="#263238"/>
<path d="M596.11 260.308L598.593 272.822L610.913 271.996L608.335 257.813L596.11 260.308Z" fill="#FFA8A7"/>
<path d="M623.944 271.083C622.711 267.675 618.014 263.977 613.301 264.775C606.323 265.872 599.445 267.452 592.727 269.502C588.409 270.952 584.487 274.331 584.124 287.338C584.124 287.338 582.684 317.675 582.653 323.591C591.654 326.83 601.458 327.718 610.976 326.158C623.944 323.562 625.51 318.632 625.51 318.632C625.51 318.632 625.668 296.88 625.288 287.396C624.893 279.348 624.782 273.417 623.944 271.083Z" fill="#F5F5F5"/>
<path d="M586.59 245.082C586.59 245.082 583.428 249.65 583.855 250.085C584.282 250.52 586.622 250.868 586.622 250.868L586.59 245.082Z" fill="#FFA8A7"/>
<path d="M595.273 232.437C588.757 233.887 586.939 236.526 586.543 246.068C586.148 256.059 587.334 259.119 588.805 260.482C589.785 261.367 595.13 261.425 597.835 260.685C601.203 259.757 608.778 257.118 612.242 251.984C616.306 245.995 617.223 237.976 612.621 234.786C606.169 230.349 597.93 231.871 595.273 232.437Z" fill="#FFA8A7"/>
<path d="M586.622 234.931C588.12 236.931 590.234 238.476 592.695 239.369C593.944 240.674 593.248 245.764 595.446 246.619C595.446 246.619 596.395 242.907 599.795 243.298C603.195 243.69 603.765 247.649 601.677 250.143C599.59 252.637 597.565 251.724 597.565 251.724C597.565 251.724 597.803 256.987 600.428 259.917C603.155 260.403 605.969 260.284 608.636 259.569C611.893 258.858 616.432 255.001 618.282 250.984C622.204 242.501 622.299 234.931 616.385 232.785C615.657 228.913 612.289 227.246 608.477 226.535C600.27 224.983 594.988 229.682 588.678 229.261C585.056 228.986 584.376 231.407 586.622 234.931Z" fill="#263238"/>
<path d="M616.527 234.032L620.386 231.828C620.238 231.577 620.036 231.357 619.791 231.181C619.547 231.005 619.266 230.877 618.966 230.804C618.666 230.731 618.352 230.715 618.045 230.758C617.738 230.8 617.443 230.9 617.18 231.05C616.916 231.201 616.689 231.399 616.512 231.633C616.335 231.868 616.212 232.133 616.151 232.412C616.09 232.691 616.092 232.979 616.156 233.258C616.221 233.536 616.347 233.8 616.527 234.032Z" fill="#263238"/>
<path d="M540.539 292.037C542.563 292.863 566.443 309.047 570.175 307.161C573.907 305.276 592.995 284.801 592.995 284.801C594.609 282.513 595.467 279.847 595.467 277.122C595.467 274.398 594.609 271.731 592.995 269.444C589.264 270.183 585.949 272.135 583.665 274.94C580.502 279.377 566.617 295.241 566.617 295.241C563.201 293.675 559.785 292.08 556.401 290.471C553.601 289.136 550.786 287.817 548.051 286.381C547.279 286.063 546.556 285.653 545.9 285.163C544.54 283.945 544.777 280.972 544.809 279.363C544.798 278.612 544.835 277.862 544.919 277.115C545.046 276.187 545.236 273.939 543.417 274.65C543.078 274.806 542.785 275.035 542.563 275.317C542.276 275.656 542.057 276.039 541.915 276.448C541.567 277.419 541.677 278.493 541.377 279.464C541.339 279.612 541.257 279.748 541.14 279.856C541.062 279.918 540.972 279.964 540.874 279.991C540.776 280.019 540.672 280.027 540.57 280.015C537.945 279.943 535.446 276.564 534.245 274.766C533.807 273.912 533.116 273.189 532.252 272.678C531.491 272.467 530.674 272.495 529.933 272.758C529.191 273.021 528.566 273.503 528.156 274.128C527.019 275.693 526.552 277.588 526.843 279.45C527.078 281.979 528.296 284.346 530.275 286.12C533.298 288.621 536.771 290.622 540.539 292.037Z" fill="#FFA8A7"/>
<path d="M595.13 268.791C592.505 269.067 588.804 268.617 583.649 273.707C579.487 278.064 575.606 282.639 572.025 287.411C572.706 289.915 574.158 292.187 576.207 293.956C578.257 295.725 580.818 296.916 583.586 297.387C583.586 297.387 592.616 288.89 595.13 284.22C597.645 279.551 598.246 271.953 595.13 268.791Z" fill="#BA68C8"/>
</svg>
