<svg width="1032" height="807" viewBox="0 0 1032 807" fill="none" xmlns="http://www.w3.org/2000/svg">
<path d="M445.393 807C662.336 807 838.203 798.166 838.203 787.269C838.203 776.372 662.336 767.538 445.393 767.538C228.45 767.538 52.583 776.372 52.583 787.269C52.583 798.166 228.45 807 445.393 807Z" fill="#B785DF"/>
<path opacity="0.8" d="M445.393 807C662.336 807 838.203 798.166 838.203 787.269C838.203 776.372 662.336 767.538 445.393 767.538C228.45 767.538 52.583 776.372 52.583 787.269C52.583 798.166 228.45 807 445.393 807Z" fill="white"/>
<path d="M740.573 36.9707H345.603C318.334 36.9707 296.229 54.7946 296.229 76.7814V749.118C296.229 771.104 318.334 788.928 345.603 788.928H740.573C767.841 788.928 789.947 771.104 789.947 749.118V76.7814C789.947 54.7946 767.841 36.9707 740.573 36.9707Z" fill="#263238"/>
<path d="M767.992 119.543H318.159V706.356H767.992V119.543Z" fill="white" stroke="#263238" stroke-width="1.33739" stroke-miterlimit="10"/>
<path d="M612.033 357.161C650.11 326.459 650.11 276.681 612.033 245.979C573.955 215.277 512.219 215.277 474.142 245.979C436.064 276.681 436.064 326.459 474.142 357.161C512.219 387.863 573.955 387.863 612.033 357.161Z" fill="#B785DF"/>
<path d="M671.098 669.455H415.103C414.527 669.458 413.956 669.369 413.423 669.193C412.89 669.017 412.405 668.758 411.996 668.43C411.588 668.103 411.263 667.713 411.042 667.284C410.821 666.856 410.707 666.396 410.707 665.931C410.704 665.465 410.815 665.003 411.035 664.571C411.255 664.14 411.578 663.748 411.987 663.419C412.396 663.089 412.882 662.828 413.417 662.651C413.952 662.473 414.525 662.384 415.103 662.386H671.098C671.674 662.386 672.245 662.478 672.777 662.657C673.308 662.835 673.791 663.096 674.198 663.426C674.604 663.755 674.925 664.146 675.143 664.576C675.362 665.006 675.472 665.466 675.469 665.931C675.469 666.866 675.008 667.762 674.189 668.423C673.369 669.084 672.257 669.455 671.098 669.455Z" fill="#B785DF"/>
<path d="M679.433 424.383H406.743C401.115 424.383 396.553 428.061 396.553 432.599V458.518C396.553 463.055 401.115 466.734 406.743 466.734H679.433C685.061 466.734 689.623 463.055 689.623 458.518V432.599C689.623 428.061 685.061 424.383 679.433 424.383Z" fill="#B785DF"/>
<path d="M679.433 503.594H406.743C401.115 503.594 396.553 507.273 396.553 511.81V537.729C396.553 542.267 401.115 545.946 406.743 545.946H679.433C685.061 545.946 689.623 542.267 689.623 537.729V511.81C689.623 507.273 685.061 503.594 679.433 503.594Z" fill="#B785DF"/>
<path d="M591.636 340.786L562.946 327.468V316.465C567.101 312.413 570.11 307.679 571.764 302.594C572.752 302.877 573.791 303.022 574.839 303.024C578.397 303.024 580.658 294.132 581.039 287.78C585.181 280.711 579.54 276.573 579.54 276.573C579.54 276.573 581.878 274.688 583.428 267.127C584.978 259.567 577.965 262.722 572.501 255.796C567.038 248.871 563.124 241.331 545.184 241.331C540.24 241.2 535.362 242.271 531.184 244.405C527.006 246.539 523.72 249.637 521.754 253.297C517.289 253.31 512.839 253.729 508.49 254.547C503.001 255.796 501.451 270.282 506.126 275.958C508.22 279.06 509.336 282.528 509.379 286.059C508.134 284.83 506.838 284.502 506.126 287.289C504.576 293.579 510.828 302.389 510.828 302.389L514.055 301.652C515.681 307.086 518.818 312.152 523.228 316.465V327.468L494.539 340.786C491.188 342.346 488.406 344.589 486.47 347.289C484.534 349.99 483.513 353.054 483.51 356.174V363.796C500.573 374.424 521.526 380.189 543.087 380.189C564.649 380.189 585.602 374.424 602.665 363.796V356.174C602.667 353.053 601.648 349.988 599.712 347.286C597.775 344.585 594.99 342.343 591.636 340.786Z" fill="#263238"/>
<path d="M433.679 535.414C433.022 535.407 432.393 535.194 431.926 534.82C431.676 534.64 431.476 534.419 431.341 534.171C431.205 533.924 431.136 533.656 431.138 533.386C431.146 533.016 431.278 532.655 431.519 532.341L436.094 526.44L427.174 526.665C426.838 526.682 426.501 526.642 426.186 526.546C425.871 526.451 425.584 526.303 425.344 526.112C424.93 525.737 424.701 525.252 424.701 524.749C424.701 524.247 424.93 523.762 425.344 523.387C425.579 523.189 425.864 523.035 426.18 522.936C426.496 522.837 426.836 522.795 427.174 522.813L435.966 523.08L431.443 517.199C431.197 516.879 431.065 516.51 431.062 516.134C431.06 515.863 431.129 515.595 431.264 515.348C431.4 515.101 431.6 514.88 431.85 514.699C432.317 514.326 432.945 514.113 433.603 514.105C434.036 514.107 434.459 514.209 434.824 514.397C435.188 514.586 435.479 514.854 435.662 515.171L440.007 521.502L444.301 515.212C444.505 514.876 444.819 514.592 445.208 514.389C445.598 514.187 446.049 514.075 446.512 514.064C446.833 514.066 447.151 514.121 447.444 514.227C447.737 514.333 447.999 514.487 448.215 514.679C448.681 515.069 448.937 515.592 448.926 516.134C448.925 516.486 448.811 516.831 448.596 517.138L443.996 523.08L452.916 522.813C453.254 522.795 453.594 522.837 453.91 522.936C454.226 523.035 454.511 523.189 454.746 523.387C455.179 523.75 455.416 524.236 455.406 524.739C455.405 525.247 455.169 525.736 454.746 526.112C454.506 526.303 454.219 526.451 453.904 526.546C453.589 526.642 453.252 526.682 452.916 526.665L443.946 526.44L448.418 532.279C448.669 532.605 448.801 532.982 448.799 533.365C448.799 533.909 448.531 534.43 448.055 534.814C447.578 535.198 446.932 535.414 446.258 535.414C445.822 535.41 445.398 535.302 445.037 535.106C444.676 534.909 444.393 534.632 444.225 534.308L439.981 528.161L435.763 534.308C435.576 534.629 435.282 534.902 434.915 535.098C434.547 535.293 434.119 535.403 433.679 535.414Z" fill="#263238"/>
<path d="M474.897 535.414C474.239 535.407 473.611 535.194 473.144 534.82C472.894 534.64 472.694 534.418 472.558 534.171C472.422 533.924 472.353 533.656 472.356 533.386C472.364 533.016 472.495 532.655 472.737 532.341L477.311 526.44L468.417 526.665C468.078 526.678 467.739 526.635 467.42 526.54C467.101 526.445 466.81 526.299 466.562 526.112C466.225 525.831 466 525.475 465.917 525.09C465.834 524.706 465.897 524.309 466.097 523.953C466.297 523.598 466.625 523.298 467.039 523.095C467.453 522.892 467.933 522.794 468.417 522.813L477.184 523.08L472.661 517.199C472.415 516.879 472.283 516.51 472.28 516.134C472.277 515.863 472.346 515.595 472.482 515.348C472.618 515.101 472.817 514.88 473.067 514.699C473.534 514.326 474.163 514.113 474.821 514.105C475.254 514.108 475.677 514.209 476.041 514.397C476.406 514.586 476.696 514.854 476.879 515.171L481.224 521.502L485.519 515.212C485.723 514.876 486.036 514.592 486.426 514.389C486.816 514.187 487.267 514.075 487.73 514.064C488.052 514.063 488.37 514.117 488.663 514.223C488.957 514.329 489.219 514.485 489.432 514.679C489.668 514.87 489.854 515.097 489.981 515.347C490.107 515.597 490.171 515.864 490.169 516.134C490.16 516.487 490.038 516.833 489.814 517.138L485.214 523.08L494.159 522.854C494.494 522.836 494.829 522.878 495.141 522.977C495.453 523.076 495.734 523.23 495.963 523.428C496.396 523.791 496.634 524.277 496.624 524.78C496.622 525.288 496.387 525.777 495.963 526.153C495.729 526.343 495.446 526.491 495.135 526.587C494.824 526.682 494.491 526.723 494.159 526.706L485.163 526.481L489.636 532.32C489.886 532.646 490.018 533.023 490.017 533.406C490.017 533.95 489.749 534.471 489.273 534.855C488.796 535.239 488.15 535.455 487.476 535.455C487.04 535.45 486.615 535.343 486.254 535.147C485.893 534.95 485.611 534.673 485.443 534.349L481.199 528.202L476.981 534.349C476.787 534.662 476.49 534.927 476.123 535.115C475.756 535.303 475.332 535.406 474.897 535.414Z" fill="#263238"/>
<path d="M516.139 535.414C515.473 535.412 514.834 535.198 514.36 534.82C514.11 534.64 513.911 534.419 513.775 534.171C513.639 533.924 513.57 533.656 513.573 533.386C513.58 533.016 513.712 532.655 513.954 532.341L518.528 526.44L509.634 526.665C509.155 526.681 508.681 526.581 508.273 526.378C507.865 526.176 507.54 525.88 507.341 525.528C507.142 525.177 507.078 524.785 507.156 524.404C507.234 524.022 507.451 523.668 507.779 523.387C508.019 523.19 508.309 523.036 508.629 522.937C508.949 522.838 509.292 522.796 509.634 522.813L518.401 523.08L513.878 517.199C513.631 516.879 513.5 516.51 513.496 516.134C513.504 515.865 513.578 515.599 513.713 515.353C513.849 515.107 514.042 514.885 514.284 514.699C514.757 514.321 515.396 514.108 516.063 514.105C516.492 514.111 516.909 514.214 517.269 514.403C517.628 514.591 517.915 514.857 518.096 515.171L522.441 521.502L526.736 515.212C526.94 514.876 527.253 514.592 527.643 514.389C528.032 514.187 528.483 514.075 528.947 514.064C529.268 514.063 529.587 514.117 529.88 514.223C530.174 514.329 530.436 514.485 530.649 514.679C530.885 514.87 531.071 515.097 531.197 515.347C531.324 515.597 531.388 515.864 531.386 516.134C531.377 516.487 531.254 516.833 531.03 517.138L526.431 523.08L535.376 522.813C535.705 522.787 536.037 522.817 536.35 522.903C536.663 522.989 536.949 523.127 537.19 523.31C537.431 523.492 537.62 523.714 537.746 523.961C537.871 524.208 537.929 524.473 537.917 524.739C537.922 525.244 537.696 525.733 537.282 526.112C537.042 526.303 536.755 526.451 536.44 526.546C536.125 526.642 535.788 526.682 535.452 526.665L526.482 526.44L530.929 532.279C531.179 532.605 531.311 532.982 531.31 533.365C531.302 533.634 531.228 533.899 531.093 534.146C530.958 534.392 530.764 534.614 530.522 534.799C530.301 534.991 530.034 535.145 529.737 535.25C529.44 535.356 529.119 535.412 528.794 535.414C528.362 535.408 527.942 535.3 527.585 535.103C527.228 534.907 526.95 534.63 526.787 534.308L522.517 528.161L518.299 534.308C518.109 534.64 517.804 534.921 517.421 535.117C517.038 535.313 516.593 535.416 516.139 535.414Z" fill="#263238"/>
<path d="M557.357 535.414C556.69 535.412 556.051 535.199 555.578 534.82C555.099 534.442 554.825 533.926 554.816 533.386C554.808 533.017 554.931 532.654 555.171 532.341L559.745 526.44L550.851 526.665C550.512 526.678 550.173 526.635 549.854 526.54C549.536 526.445 549.244 526.3 548.996 526.112C548.582 525.737 548.353 525.252 548.353 524.749C548.353 524.247 548.582 523.762 548.996 523.387C549.242 523.196 549.533 523.046 549.851 522.948C550.17 522.849 550.51 522.803 550.851 522.813L559.644 523.08L555.146 517.199C554.9 516.879 554.768 516.51 554.765 516.134C554.773 515.865 554.846 515.599 554.982 515.353C555.117 515.107 555.311 514.885 555.552 514.699C556.026 514.321 556.665 514.108 557.331 514.105C557.764 514.108 558.188 514.209 558.552 514.397C558.916 514.586 559.207 514.854 559.39 515.171L563.71 521.502L568.004 515.212C568.208 514.876 568.522 514.592 568.911 514.389C569.301 514.187 569.752 514.075 570.215 514.064C570.537 514.063 570.855 514.117 571.148 514.223C571.442 514.329 571.704 514.485 571.917 514.679C572.153 514.87 572.339 515.097 572.466 515.347C572.592 515.597 572.656 515.864 572.654 516.134C572.645 516.487 572.523 516.833 572.299 517.138L567.699 523.08L576.644 522.813C576.973 522.787 577.305 522.817 577.618 522.903C577.931 522.989 578.217 523.127 578.458 523.31C578.699 523.492 578.888 523.714 579.014 523.961C579.139 524.208 579.198 524.473 579.185 524.739C579.19 525.244 578.964 525.733 578.55 526.112C578.31 526.303 578.024 526.451 577.708 526.546C577.393 526.642 577.056 526.682 576.72 526.665L567.75 526.44L572.197 532.279C572.448 532.605 572.58 532.982 572.578 533.365C572.581 533.636 572.512 533.903 572.376 534.151C572.24 534.398 572.04 534.619 571.79 534.799C571.569 534.991 571.302 535.145 571.005 535.25C570.708 535.356 570.387 535.412 570.062 535.414C569.63 535.408 569.21 535.3 568.853 535.103C568.496 534.907 568.219 534.63 568.055 534.308L563.786 528.161L559.567 534.308C559.374 534.646 559.061 534.932 558.668 535.128C558.275 535.325 557.819 535.424 557.357 535.414Z" fill="#263238"/>
<path d="M598.574 535.414C597.907 535.412 597.269 535.198 596.795 534.82C596.402 534.498 596.151 534.081 596.082 533.633C596.013 533.184 596.13 532.73 596.414 532.341L600.963 526.44L592.069 526.665C591.729 526.678 591.39 526.635 591.072 526.54C590.753 526.445 590.461 526.299 590.214 526.112C589.799 525.737 589.57 525.252 589.57 524.749C589.57 524.247 589.799 523.762 590.214 523.387C590.459 523.196 590.75 523.046 591.069 522.948C591.387 522.849 591.728 522.803 592.069 522.813L600.861 523.08L596.338 517.199C596.092 516.879 595.96 516.51 595.957 516.134C595.966 515.593 596.24 515.078 596.719 514.699C597.192 514.321 597.831 514.108 598.498 514.105C598.931 514.108 599.354 514.209 599.718 514.397C600.083 514.586 600.373 514.854 600.556 515.171L604.876 521.502L609.171 515.212C609.374 514.876 609.688 514.592 610.078 514.39C610.467 514.187 610.918 514.075 611.381 514.064C611.707 514.063 612.029 514.117 612.327 514.223C612.625 514.329 612.891 514.484 613.109 514.679C613.576 515.069 613.832 515.592 613.821 516.134C613.812 516.487 613.689 516.833 613.465 517.138L608.866 523.08L617.811 522.813C618.139 522.787 618.471 522.817 618.784 522.903C619.097 522.989 619.384 523.127 619.625 523.31C619.866 523.492 620.055 523.714 620.18 523.961C620.306 524.208 620.364 524.473 620.352 524.739C620.357 525.244 620.131 525.733 619.716 526.112C619.477 526.303 619.19 526.451 618.875 526.546C618.56 526.642 618.223 526.682 617.887 526.665L608.917 526.44L613.364 532.279C613.614 532.605 613.746 532.982 613.745 533.365C613.747 533.636 613.678 533.903 613.542 534.151C613.407 534.398 613.207 534.619 612.957 534.799C612.736 534.991 612.469 535.145 612.172 535.25C611.874 535.356 611.554 535.412 611.229 535.414C610.797 535.408 610.376 535.3 610.02 535.103C609.663 534.907 609.385 534.63 609.221 534.308L604.952 528.161L600.734 534.308C600.544 534.64 600.239 534.921 599.856 535.117C599.473 535.313 599.028 535.416 598.574 535.414Z" fill="#263238"/>
<path d="M639.791 535.414C639.133 535.407 638.505 535.194 638.038 534.82C637.788 534.64 637.588 534.419 637.452 534.171C637.317 533.924 637.248 533.656 637.25 533.386C637.258 533.016 637.39 532.655 637.631 532.341L642.18 526.44L633.286 526.665C632.959 526.685 632.63 526.65 632.321 526.562C632.011 526.474 631.728 526.335 631.489 526.154C631.25 525.972 631.061 525.753 630.932 525.51C630.804 525.266 630.74 525.004 630.745 524.739C630.743 524.489 630.803 524.24 630.921 524.008C631.038 523.776 631.212 523.565 631.431 523.387C631.665 523.189 631.95 523.035 632.267 522.936C632.583 522.837 632.922 522.795 633.261 522.813L642.053 523.08L637.53 517.199C637.284 516.879 637.152 516.51 637.148 516.134C637.158 515.593 637.432 515.078 637.911 514.699C638.384 514.321 639.023 514.108 639.69 514.105C640.123 514.108 640.546 514.209 640.91 514.397C641.275 514.586 641.565 514.854 641.748 515.171L646.068 521.502L650.388 515.212C650.59 514.879 650.899 514.597 651.284 514.395C651.669 514.193 652.114 514.078 652.573 514.064C652.899 514.063 653.221 514.117 653.519 514.223C653.816 514.329 654.083 514.484 654.301 514.679C654.768 515.069 655.023 515.592 655.013 516.134C655.011 516.486 654.898 516.831 654.682 517.138L650.083 523.08L659.002 522.813C659.341 522.795 659.68 522.837 659.996 522.936C660.313 523.035 660.598 523.189 660.832 523.387C661.265 523.75 661.503 524.236 661.493 524.739C661.491 525.247 661.255 525.736 660.832 526.112C660.593 526.303 660.306 526.451 659.99 526.546C659.675 526.642 659.338 526.682 659.002 526.665L650.032 526.44L654.479 532.279C654.73 532.605 654.862 532.982 654.86 533.365C654.851 533.906 654.577 534.421 654.098 534.799C653.635 535.181 653.006 535.401 652.345 535.414C651.912 535.408 651.492 535.3 651.135 535.103C650.778 534.907 650.501 534.63 650.337 534.308L646.068 528.161L641.85 534.308C641.667 534.627 641.378 534.9 641.014 535.095C640.651 535.291 640.228 535.401 639.791 535.414Z" fill="#263238"/>
<g style="mix-blend-mode:multiply">
<path d="M767.992 120.321H318.159V143.044H767.992V120.321Z" fill="#B785DF"/>
</g>
<path d="M591.993 78.4617H494.159C492.393 78.4617 490.7 77.8962 489.451 76.8894C488.202 75.8827 487.501 74.5173 487.501 73.0935C487.501 71.6698 488.202 70.3044 489.451 69.2976C490.7 68.2909 492.393 67.7253 494.159 67.7253H591.993C593.759 67.7253 595.452 68.2909 596.701 69.2976C597.949 70.3044 598.651 71.6698 598.651 73.0935C598.651 74.5173 597.949 75.8827 596.701 76.8894C595.452 77.8962 593.759 78.4617 591.993 78.4617Z" fill="#B785DF" stroke="#263238" stroke-width="1.33739" stroke-linecap="round" stroke-linejoin="round"/>
<path d="M569.757 739.508C569.762 735.251 568.201 731.089 565.271 727.548C562.341 724.007 558.174 721.246 553.298 719.615C548.421 717.985 543.054 717.557 537.876 718.386C532.698 719.216 527.941 721.265 524.208 724.275C520.475 727.285 517.933 731.12 516.905 735.296C515.876 739.471 516.406 743.798 518.429 747.73C520.452 751.662 523.875 755.022 528.267 757.384C532.659 759.747 537.821 761.006 543.1 761.001C550.168 760.996 556.944 758.73 561.942 754.7C566.94 750.671 569.75 745.207 569.757 739.508Z" fill="#B785DF"/>
<path d="M556.62 728.608H529.582V750.408H556.62V728.608Z" fill="#B785DF" stroke="#263238" stroke-width="1.33739" stroke-linecap="round" stroke-linejoin="round"/>
<path d="M865.163 492.12C865.163 492.12 829.74 419.547 861.275 410.921C894.107 401.926 892.659 449.851 891.388 473.209C888.72 523.121 881.884 532.402 876.776 520.211L865.163 492.12ZM854.516 548.732C864.249 558.977 866.993 548.364 849.434 500.439C841.2 477.901 823.311 432.312 795.866 449.421C769.515 465.812 832.23 525.231 832.23 525.231L854.516 548.732ZM835.712 590.326C844.987 596.964 845.165 588.584 823.133 553.978C812.79 537.771 790.911 504.967 772.996 521.195C755.793 536.849 814.417 574.897 814.417 574.897L835.712 590.326ZM815.382 639.787C824.658 646.446 824.835 638.045 802.804 603.459C792.461 587.252 770.582 554.428 752.667 570.676C735.565 586.371 794.011 624.42 794.011 624.42L815.382 639.787ZM874.083 539.102C859.243 543.774 871.033 548.855 933.012 548.712C962.083 548.712 1021.44 547.646 1008.79 521.605C996.667 496.587 908.388 528.448 908.388 528.448L874.083 539.102ZM857.184 572.377C841.48 574.569 851.797 581.454 912.581 591.248C941.067 595.858 999.488 604.361 993.516 576.905C987.799 550.433 893.421 567.521 893.421 567.521L857.184 572.377ZM838.278 613.007C824.912 614.564 833.45 620.568 884.552 629.993C908.515 634.419 957.686 642.717 953.417 619.298C949.351 596.759 869.051 609.504 869.051 609.504L838.278 613.007ZM823.921 650.646C810.834 653.33 820.109 658.576 872.202 663.575C896.597 665.911 946.582 669.968 939.288 647.04C932.25 625.035 854.084 644.52 854.084 644.52L823.921 650.646ZM900.511 498.267C892.887 512.036 908.719 509.946 962.54 472.082C987.748 454.318 1038.32 417.15 998.268 398.648C959.821 380.864 918.477 466.673 918.477 466.673L900.511 498.267ZM825.903 699.677C817.847 703.468 825.75 704.943 862.698 699.001C880.029 696.235 915.275 690.088 903.357 677.958C891.82 666.28 844.555 690.867 844.555 690.867L825.903 699.677Z" fill="#B785DF"/>
<path opacity="0.3" d="M865.163 492.12C865.163 492.12 829.74 419.547 861.275 410.921C894.107 401.926 892.659 449.851 891.388 473.209C888.72 523.121 881.884 532.402 876.776 520.211L865.163 492.12ZM854.516 548.732C864.249 558.977 866.993 548.364 849.434 500.439C841.2 477.901 823.311 432.312 795.866 449.421C769.515 465.812 832.23 525.231 832.23 525.231L854.516 548.732ZM835.712 590.326C844.987 596.964 845.165 588.584 823.133 553.978C812.79 537.771 790.911 504.967 772.996 521.195C755.793 536.849 814.417 574.897 814.417 574.897L835.712 590.326ZM815.382 639.787C824.658 646.446 824.835 638.045 802.804 603.459C792.461 587.252 770.582 554.428 752.667 570.676C735.565 586.371 794.011 624.42 794.011 624.42L815.382 639.787ZM874.083 539.102C859.243 543.774 871.033 548.855 933.012 548.712C962.083 548.712 1021.44 547.646 1008.79 521.605C996.667 496.587 908.388 528.448 908.388 528.448L874.083 539.102ZM857.184 572.377C841.48 574.569 851.797 581.454 912.581 591.248C941.067 595.858 999.488 604.361 993.516 576.905C987.799 550.433 893.421 567.521 893.421 567.521L857.184 572.377ZM838.278 613.007C824.912 614.564 833.45 620.568 884.552 629.993C908.515 634.419 957.686 642.717 953.417 619.298C949.351 596.759 869.051 609.504 869.051 609.504L838.278 613.007ZM823.921 650.646C810.834 653.33 820.109 658.576 872.202 663.575C896.597 665.911 946.582 669.968 939.288 647.04C932.25 625.035 854.084 644.52 854.084 644.52L823.921 650.646ZM900.511 498.267C892.887 512.036 908.719 509.946 962.54 472.082C987.748 454.318 1038.32 417.15 998.268 398.648C959.821 380.864 918.477 466.673 918.477 466.673L900.511 498.267ZM825.903 699.677C817.847 703.468 825.75 704.943 862.698 699.001C880.029 696.235 915.275 690.088 903.357 677.958C891.82 666.28 844.555 690.867 844.555 690.867L825.903 699.677Z" fill="white"/>
<path d="M880.792 525.907L874.617 443.069L880.792 525.907ZM861.251 553.24L822.219 481.998L861.251 553.24ZM961.982 532.525L868.442 543.343L961.982 532.525ZM841.023 591.637L790.378 539.246L841.023 591.637ZM849.917 575.573L919.697 578.401L849.917 575.573ZM833.4 615.753L886.764 620.014L833.4 615.753ZM820.516 641.282L794.012 609.135L820.516 641.282ZM817.467 652.633L880.208 653.105L817.467 652.633ZM804.761 747.54C805.181 747.514 805.572 747.355 805.848 747.098C806.124 746.841 806.263 746.506 806.235 746.167C802.245 697.853 825.421 618.724 862.597 553.773C886.357 512.261 979.49 430.673 980.481 429.853C980.781 429.611 980.949 429.283 980.949 428.941C980.949 428.6 980.781 428.272 980.481 428.03C980.335 427.911 980.161 427.816 979.969 427.752C979.777 427.687 979.571 427.654 979.363 427.654C979.155 427.654 978.949 427.687 978.757 427.752C978.566 427.816 978.391 427.911 978.245 428.03C977.305 428.849 883.791 510.745 859.828 552.625C821.965 619.154 799.094 696.849 803.16 746.331C803.192 746.657 803.374 746.962 803.67 747.186C803.966 747.409 804.355 747.536 804.761 747.54ZM880.767 527.177C881.187 527.156 881.58 527.002 881.861 526.749C882.141 526.496 882.287 526.164 882.266 525.825L876.193 442.946C876.183 442.777 876.132 442.612 876.042 442.459C875.952 442.307 875.825 442.17 875.669 442.058C875.513 441.945 875.33 441.859 875.132 441.804C874.934 441.749 874.724 441.726 874.515 441.737C874.095 441.758 873.702 441.912 873.422 442.165C873.141 442.418 872.995 442.75 873.016 443.089L879.191 525.928C879.211 526.254 879.385 526.561 879.679 526.786C879.972 527.011 880.362 527.137 880.767 527.136V527.177ZM861.81 554.408C862.19 554.269 862.489 554.015 862.641 553.701C862.793 553.387 862.786 553.038 862.623 552.728L823.566 481.486C823.397 481.177 823.083 480.933 822.692 480.81C822.301 480.687 821.866 480.695 821.482 480.831C821.098 480.966 820.796 481.22 820.644 481.535C820.491 481.85 820.5 482.201 820.669 482.511L859.701 553.752C859.823 553.981 860.025 554.176 860.282 554.314C860.539 554.452 860.84 554.527 861.149 554.531C861.412 554.542 861.674 554.499 861.911 554.408H861.81ZM868.569 544.573L962.058 533.795C962.284 533.792 962.506 533.749 962.71 533.672C962.914 533.594 963.095 533.482 963.242 533.343C963.389 533.205 963.497 533.043 963.561 532.868C963.624 532.694 963.641 532.51 963.611 532.33C963.58 532.149 963.502 531.976 963.383 531.822C963.263 531.667 963.105 531.535 962.917 531.433C962.73 531.332 962.518 531.263 962.295 531.233C962.073 531.202 961.845 531.209 961.626 531.255L868.137 542.032C867.719 542.054 867.329 542.209 867.053 542.462C866.776 542.716 866.636 543.048 866.663 543.384C866.69 543.721 866.882 544.036 867.197 544.259C867.511 544.482 867.923 544.595 868.34 544.573H868.569ZM841.913 592.661C842.245 592.451 842.46 592.144 842.512 591.806C842.565 591.468 842.45 591.128 842.192 590.858L791.522 538.365C791.262 538.093 790.879 537.915 790.458 537.871C790.036 537.827 789.61 537.92 789.273 538.129C788.936 538.338 788.716 538.647 788.661 538.987C788.606 539.327 788.721 539.671 788.98 539.942L839.753 592.518C839.9 592.671 840.089 592.795 840.305 592.88C840.52 592.965 840.757 593.01 840.998 593.01C841.377 592.994 841.737 592.871 842.014 592.661H841.913ZM921.095 578.462C921.108 578.123 920.956 577.793 920.671 577.544C920.386 577.295 919.99 577.146 919.57 577.13L849.917 574.282C849.526 574.304 849.158 574.441 848.883 574.667C848.609 574.893 848.447 575.192 848.428 575.508C848.409 575.824 848.535 576.135 848.781 576.381C849.028 576.627 849.378 576.792 849.765 576.843L919.544 579.691C919.965 579.703 920.374 579.58 920.683 579.35C920.992 579.12 921.176 578.801 921.196 578.462H921.095ZM888.238 620.137C888.262 619.969 888.245 619.798 888.186 619.635C888.127 619.472 888.029 619.32 887.896 619.188C887.764 619.057 887.6 618.947 887.414 618.868C887.228 618.788 887.024 618.739 886.815 618.724L833.451 614.482C833.243 614.465 833.034 614.482 832.835 614.53C832.636 614.579 832.451 614.659 832.29 614.766C832.129 614.872 831.996 615.004 831.899 615.152C831.802 615.3 831.742 615.463 831.723 615.63C831.687 615.966 831.816 616.3 832.082 616.56C832.348 616.821 832.73 616.987 833.146 617.023L886.51 621.285H886.662C887.072 621.308 887.477 621.2 887.79 620.986C888.103 620.772 888.3 620.467 888.339 620.137H888.238ZM821.278 642.348C821.631 642.16 821.877 641.867 821.963 641.533C822.049 641.199 821.967 640.851 821.736 640.565L795.359 608.418C795.117 608.141 794.752 607.95 794.34 607.885C793.928 607.82 793.501 607.886 793.148 608.069C792.795 608.257 792.549 608.55 792.463 608.884C792.378 609.218 792.459 609.566 792.691 609.852L819.068 641.999C819.219 642.175 819.42 642.319 819.654 642.419C819.889 642.519 820.149 642.572 820.415 642.573C820.759 642.588 821.099 642.509 821.38 642.348H821.278ZM881.808 653.105C881.802 652.767 881.635 652.445 881.342 652.205C881.048 651.964 880.651 651.824 880.233 651.814L817.492 651.343C817.074 651.343 816.674 651.476 816.378 651.715C816.083 651.953 815.917 652.276 815.917 652.613C815.91 652.782 815.946 652.951 816.022 653.109C816.098 653.266 816.214 653.41 816.361 653.531C816.508 653.651 816.685 653.747 816.879 653.811C817.074 653.875 817.282 653.907 817.492 653.904L880.233 654.375C880.447 654.383 880.662 654.357 880.863 654.297C881.065 654.237 881.249 654.145 881.406 654.026C881.562 653.908 881.687 653.765 881.774 653.607C881.861 653.449 881.907 653.278 881.91 653.105H881.808ZM797.62 728.751C797.748 728.526 808.446 704.758 840.617 699.083C841.031 699.009 841.392 698.806 841.621 698.518C841.85 698.23 841.927 697.88 841.836 697.546C841.734 697.218 841.478 696.935 841.123 696.756C840.768 696.577 840.341 696.515 839.93 696.583C806.006 702.566 794.749 727.665 794.622 727.911C794.491 728.235 794.521 728.587 794.706 728.892C794.891 729.198 795.216 729.434 795.613 729.55H796.121C796.459 729.574 796.797 729.509 797.086 729.365C797.374 729.221 797.597 729.006 797.722 728.751H797.62ZM804.761 747.54C805.181 747.514 805.572 747.355 805.848 747.098C806.124 746.841 806.263 746.506 806.235 746.167C802.245 697.853 825.421 618.724 862.597 553.773C886.357 512.261 979.49 430.673 980.481 429.853C980.781 429.611 980.949 429.283 980.949 428.941C980.949 428.6 980.781 428.272 980.481 428.03C980.335 427.911 980.161 427.816 979.969 427.752C979.777 427.687 979.571 427.654 979.363 427.654C979.155 427.654 978.949 427.687 978.757 427.752C978.566 427.816 978.391 427.911 978.245 428.03C977.305 428.849 883.791 510.745 859.828 552.625C821.965 619.154 799.094 696.849 803.16 746.331C803.192 746.657 803.374 746.962 803.67 747.186C803.966 747.409 804.355 747.536 804.761 747.54ZM880.767 527.177C881.187 527.156 881.58 527.002 881.861 526.749C882.141 526.496 882.287 526.164 882.266 525.825L876.193 442.946C876.183 442.777 876.132 442.612 876.042 442.459C875.952 442.307 875.825 442.17 875.669 442.058C875.513 441.945 875.33 441.859 875.132 441.804C874.934 441.749 874.724 441.726 874.515 441.737C874.095 441.758 873.702 441.912 873.422 442.165C873.141 442.418 872.995 442.75 873.016 443.089L879.191 525.928C879.211 526.254 879.385 526.561 879.679 526.786C879.972 527.011 880.362 527.137 880.767 527.136V527.177ZM861.81 554.408C862.19 554.269 862.489 554.015 862.641 553.701C862.793 553.387 862.786 553.038 862.623 552.728L823.566 481.486C823.397 481.177 823.083 480.933 822.692 480.81C822.301 480.687 821.866 480.695 821.482 480.831C821.098 480.966 820.796 481.22 820.644 481.535C820.491 481.85 820.5 482.201 820.669 482.511L859.701 553.752C859.823 553.981 860.025 554.176 860.282 554.314C860.539 554.452 860.84 554.527 861.149 554.531C861.412 554.542 861.674 554.499 861.911 554.408H861.81ZM868.569 544.573L962.058 533.795C962.284 533.792 962.506 533.749 962.71 533.672C962.914 533.594 963.095 533.482 963.242 533.343C963.389 533.205 963.497 533.043 963.561 532.868C963.624 532.694 963.641 532.51 963.611 532.33C963.58 532.149 963.502 531.976 963.383 531.822C963.263 531.667 963.105 531.535 962.917 531.433C962.73 531.332 962.518 531.263 962.295 531.233C962.073 531.202 961.845 531.209 961.626 531.255L868.137 542.032C867.719 542.054 867.329 542.209 867.053 542.462C866.776 542.716 866.636 543.048 866.663 543.384C866.69 543.721 866.882 544.036 867.197 544.259C867.511 544.482 867.923 544.595 868.34 544.573H868.569ZM841.913 592.661C842.245 592.451 842.46 592.144 842.512 591.806C842.565 591.468 842.45 591.128 842.192 590.858L791.522 538.365C791.393 538.23 791.233 538.117 791.051 538.033C790.868 537.948 790.667 537.893 790.458 537.871C790.249 537.849 790.037 537.861 789.833 537.905C789.63 537.949 789.44 538.025 789.273 538.129C789.106 538.233 788.966 538.362 788.861 538.509C788.756 538.656 788.688 538.818 788.661 538.987C788.634 539.155 788.648 539.326 788.703 539.49C788.758 539.654 788.852 539.808 788.98 539.942L839.753 592.518C839.9 592.671 840.089 592.795 840.305 592.88C840.52 592.965 840.757 593.01 840.998 593.01C841.377 592.994 841.737 592.871 842.014 592.661H841.913ZM921.095 578.462C921.108 578.123 920.956 577.793 920.671 577.544C920.386 577.295 919.99 577.146 919.57 577.13L849.917 574.282C849.526 574.304 849.158 574.441 848.883 574.667C848.609 574.893 848.447 575.192 848.428 575.508C848.409 575.824 848.535 576.135 848.781 576.381C849.028 576.627 849.378 576.792 849.765 576.843L919.544 579.691C919.965 579.703 920.374 579.58 920.683 579.35C920.992 579.12 921.176 578.801 921.196 578.462H921.095ZM888.238 620.137C888.262 619.969 888.245 619.798 888.186 619.635C888.127 619.472 888.029 619.32 887.896 619.188C887.764 619.057 887.6 618.947 887.414 618.868C887.228 618.788 887.024 618.739 886.815 618.724L833.451 614.482C833.243 614.465 833.034 614.482 832.835 614.53C832.636 614.579 832.451 614.659 832.29 614.766C832.129 614.872 831.996 615.004 831.899 615.152C831.802 615.3 831.742 615.463 831.723 615.63C831.687 615.966 831.816 616.3 832.082 616.56C832.348 616.821 832.73 616.987 833.146 617.023L886.51 621.285H886.662C887.072 621.308 887.477 621.2 887.79 620.986C888.103 620.772 888.3 620.467 888.339 620.137H888.238ZM821.278 642.348C821.631 642.16 821.877 641.867 821.963 641.533C822.049 641.199 821.967 640.851 821.736 640.565L795.359 608.418C795.117 608.141 794.752 607.95 794.34 607.885C793.928 607.82 793.501 607.886 793.148 608.069C792.795 608.257 792.549 608.55 792.463 608.884C792.378 609.218 792.459 609.566 792.691 609.852L819.068 641.999C819.219 642.175 819.42 642.319 819.654 642.419C819.889 642.519 820.149 642.572 820.415 642.573C820.759 642.588 821.099 642.509 821.38 642.348H821.278ZM881.808 653.105C881.802 652.767 881.635 652.445 881.342 652.205C881.048 651.964 880.651 651.824 880.233 651.814L817.492 651.343C817.074 651.343 816.674 651.476 816.378 651.715C816.083 651.953 815.917 652.276 815.917 652.613C815.91 652.782 815.946 652.951 816.022 653.109C816.098 653.266 816.214 653.41 816.361 653.531C816.508 653.651 816.685 653.747 816.879 653.811C817.074 653.875 817.282 653.907 817.492 653.904L880.233 654.375C880.447 654.383 880.662 654.357 880.863 654.297C881.065 654.237 881.249 654.145 881.406 654.026C881.562 653.908 881.687 653.765 881.774 653.607C881.861 653.449 881.907 653.278 881.91 653.105H881.808ZM797.62 728.751C797.748 728.526 808.446 704.758 840.617 699.083C841.031 699.009 841.392 698.806 841.621 698.518C841.85 698.23 841.927 697.88 841.836 697.546C841.734 697.218 841.478 696.935 841.123 696.756C840.768 696.577 840.341 696.515 839.93 696.583C806.006 702.566 794.749 727.665 794.622 727.911C794.491 728.235 794.521 728.587 794.706 728.892C794.891 729.198 795.216 729.434 795.613 729.55H796.121C796.459 729.574 796.797 729.509 797.086 729.365C797.374 729.221 797.597 729.006 797.722 728.751H797.62Z" fill="#B785DF"/>
<path opacity="0.2" d="M880.792 525.907L874.617 443.069L880.792 525.907ZM861.251 553.24L822.219 481.998L861.251 553.24ZM961.982 532.525L868.442 543.343L961.982 532.525ZM841.023 591.637L790.378 539.246L841.023 591.637ZM849.917 575.573L919.697 578.401L849.917 575.573ZM833.4 615.753L886.764 620.014L833.4 615.753ZM820.516 641.282L794.012 609.135L820.516 641.282ZM817.467 652.633L880.208 653.105L817.467 652.633ZM804.761 747.54C805.181 747.514 805.572 747.355 805.848 747.098C806.124 746.841 806.263 746.506 806.235 746.167C802.245 697.853 825.421 618.724 862.597 553.773C886.357 512.261 979.49 430.673 980.481 429.853C980.781 429.611 980.949 429.283 980.949 428.941C980.949 428.6 980.781 428.272 980.481 428.03C980.335 427.911 980.161 427.816 979.969 427.752C979.777 427.687 979.571 427.654 979.363 427.654C979.155 427.654 978.949 427.687 978.757 427.752C978.566 427.816 978.391 427.911 978.245 428.03C977.305 428.849 883.791 510.745 859.828 552.625C821.965 619.154 799.094 696.849 803.16 746.331C803.192 746.657 803.374 746.962 803.67 747.186C803.966 747.409 804.355 747.536 804.761 747.54ZM880.767 527.177C881.187 527.156 881.58 527.002 881.861 526.749C882.141 526.496 882.287 526.164 882.266 525.825L876.193 442.946C876.183 442.777 876.132 442.612 876.042 442.459C875.952 442.307 875.825 442.17 875.669 442.058C875.513 441.945 875.33 441.859 875.132 441.804C874.934 441.749 874.724 441.726 874.515 441.737C874.095 441.758 873.702 441.912 873.422 442.165C873.141 442.418 872.995 442.75 873.016 443.089L879.191 525.928C879.211 526.254 879.385 526.561 879.679 526.786C879.972 527.011 880.362 527.137 880.767 527.136V527.177ZM861.81 554.408C862.19 554.269 862.489 554.015 862.641 553.701C862.793 553.387 862.786 553.038 862.623 552.728L823.566 481.486C823.397 481.177 823.083 480.933 822.692 480.81C822.301 480.687 821.866 480.695 821.482 480.831C821.098 480.966 820.796 481.22 820.644 481.535C820.491 481.85 820.5 482.201 820.669 482.511L859.701 553.752C859.823 553.981 860.025 554.176 860.282 554.314C860.539 554.452 860.84 554.527 861.149 554.531C861.412 554.542 861.674 554.499 861.911 554.408H861.81ZM868.569 544.573L962.058 533.795C962.284 533.792 962.506 533.749 962.71 533.672C962.914 533.594 963.095 533.482 963.242 533.343C963.389 533.205 963.497 533.043 963.561 532.868C963.624 532.694 963.641 532.51 963.611 532.33C963.58 532.149 963.502 531.976 963.383 531.822C963.263 531.667 963.105 531.535 962.917 531.433C962.73 531.332 962.518 531.263 962.295 531.233C962.073 531.202 961.845 531.209 961.626 531.255L868.137 542.032C867.719 542.054 867.329 542.209 867.053 542.462C866.776 542.716 866.636 543.048 866.663 543.384C866.69 543.721 866.882 544.036 867.197 544.259C867.511 544.482 867.923 544.595 868.34 544.573H868.569ZM841.913 592.661C842.245 592.451 842.46 592.144 842.512 591.806C842.565 591.468 842.45 591.128 842.192 590.858L791.522 538.365C791.262 538.093 790.879 537.915 790.458 537.871C790.036 537.827 789.61 537.92 789.273 538.129C788.936 538.338 788.716 538.647 788.661 538.987C788.606 539.327 788.721 539.671 788.98 539.942L839.753 592.518C839.9 592.671 840.089 592.795 840.305 592.88C840.52 592.965 840.757 593.01 840.998 593.01C841.377 592.994 841.737 592.871 842.014 592.661H841.913ZM921.095 578.462C921.108 578.123 920.956 577.793 920.671 577.544C920.386 577.295 919.99 577.146 919.57 577.13L849.917 574.282C849.526 574.304 849.158 574.441 848.883 574.667C848.609 574.893 848.447 575.192 848.428 575.508C848.409 575.824 848.535 576.135 848.781 576.381C849.028 576.627 849.378 576.792 849.765 576.843L919.544 579.691C919.965 579.703 920.374 579.58 920.683 579.35C920.992 579.12 921.176 578.801 921.196 578.462H921.095ZM888.238 620.137C888.262 619.969 888.245 619.798 888.186 619.635C888.127 619.472 888.029 619.32 887.896 619.188C887.764 619.057 887.6 618.947 887.414 618.868C887.228 618.788 887.024 618.739 886.815 618.724L833.451 614.482C833.243 614.465 833.034 614.482 832.835 614.53C832.636 614.579 832.451 614.659 832.29 614.766C832.129 614.872 831.996 615.004 831.899 615.152C831.802 615.3 831.742 615.463 831.723 615.63C831.687 615.966 831.816 616.3 832.082 616.56C832.348 616.821 832.73 616.987 833.146 617.023L886.51 621.285H886.662C887.072 621.308 887.477 621.2 887.79 620.986C888.103 620.772 888.3 620.467 888.339 620.137H888.238ZM821.278 642.348C821.631 642.16 821.877 641.867 821.963 641.533C822.049 641.199 821.967 640.851 821.736 640.565L795.359 608.418C795.117 608.141 794.752 607.95 794.34 607.885C793.928 607.82 793.501 607.886 793.148 608.069C792.795 608.257 792.549 608.55 792.463 608.884C792.378 609.218 792.459 609.566 792.691 609.852L819.068 641.999C819.219 642.175 819.42 642.319 819.654 642.419C819.889 642.519 820.149 642.572 820.415 642.573C820.759 642.588 821.099 642.509 821.38 642.348H821.278ZM881.808 653.105C881.802 652.767 881.635 652.445 881.342 652.205C881.048 651.964 880.651 651.824 880.233 651.814L817.492 651.343C817.074 651.343 816.674 651.476 816.378 651.715C816.083 651.953 815.917 652.276 815.917 652.613C815.91 652.782 815.946 652.951 816.022 653.109C816.098 653.266 816.214 653.41 816.361 653.531C816.508 653.651 816.685 653.747 816.879 653.811C817.074 653.875 817.282 653.907 817.492 653.904L880.233 654.375C880.447 654.383 880.662 654.357 880.863 654.297C881.065 654.237 881.249 654.145 881.406 654.026C881.562 653.908 881.687 653.765 881.774 653.607C881.861 653.449 881.907 653.278 881.91 653.105H881.808ZM797.62 728.751C797.748 728.526 808.446 704.758 840.617 699.083C841.031 699.009 841.392 698.806 841.621 698.518C841.85 698.23 841.927 697.88 841.836 697.546C841.734 697.218 841.478 696.935 841.123 696.756C840.768 696.577 840.341 696.515 839.93 696.583C806.006 702.566 794.749 727.665 794.622 727.911C794.491 728.235 794.521 728.587 794.706 728.892C794.891 729.198 795.216 729.434 795.613 729.55H796.121C796.459 729.574 796.797 729.509 797.086 729.365C797.374 729.221 797.597 729.006 797.722 728.751H797.62ZM804.761 747.54C805.181 747.514 805.572 747.355 805.848 747.098C806.124 746.841 806.263 746.506 806.235 746.167C802.245 697.853 825.421 618.724 862.597 553.773C886.357 512.261 979.49 430.673 980.481 429.853C980.781 429.611 980.949 429.283 980.949 428.941C980.949 428.6 980.781 428.272 980.481 428.03C980.335 427.911 980.161 427.816 979.969 427.752C979.777 427.687 979.571 427.654 979.363 427.654C979.155 427.654 978.949 427.687 978.757 427.752C978.566 427.816 978.391 427.911 978.245 428.03C977.305 428.849 883.791 510.745 859.828 552.625C821.965 619.154 799.094 696.849 803.16 746.331C803.192 746.657 803.374 746.962 803.67 747.186C803.966 747.409 804.355 747.536 804.761 747.54ZM880.767 527.177C881.187 527.156 881.58 527.002 881.861 526.749C882.141 526.496 882.287 526.164 882.266 525.825L876.193 442.946C876.183 442.777 876.132 442.612 876.042 442.459C875.952 442.307 875.825 442.17 875.669 442.058C875.513 441.945 875.33 441.859 875.132 441.804C874.934 441.749 874.724 441.726 874.515 441.737C874.095 441.758 873.702 441.912 873.422 442.165C873.141 442.418 872.995 442.75 873.016 443.089L879.191 525.928C879.211 526.254 879.385 526.561 879.679 526.786C879.972 527.011 880.362 527.137 880.767 527.136V527.177ZM861.81 554.408C862.19 554.269 862.489 554.015 862.641 553.701C862.793 553.387 862.786 553.038 862.623 552.728L823.566 481.486C823.397 481.177 823.083 480.933 822.692 480.81C822.301 480.687 821.866 480.695 821.482 480.831C821.098 480.966 820.796 481.22 820.644 481.535C820.491 481.85 820.5 482.201 820.669 482.511L859.701 553.752C859.823 553.981 860.025 554.176 860.282 554.314C860.539 554.452 860.84 554.527 861.149 554.531C861.412 554.542 861.674 554.499 861.911 554.408H861.81ZM868.569 544.573L962.058 533.795C962.284 533.792 962.506 533.749 962.71 533.672C962.914 533.594 963.095 533.482 963.242 533.343C963.389 533.205 963.497 533.043 963.561 532.868C963.624 532.694 963.641 532.51 963.611 532.33C963.58 532.149 963.502 531.976 963.383 531.822C963.263 531.667 963.105 531.535 962.917 531.433C962.73 531.332 962.518 531.263 962.295 531.233C962.073 531.202 961.845 531.209 961.626 531.255L868.137 542.032C867.719 542.054 867.329 542.209 867.053 542.462C866.776 542.716 866.636 543.048 866.663 543.384C866.69 543.721 866.882 544.036 867.197 544.259C867.511 544.482 867.923 544.595 868.34 544.573H868.569ZM841.913 592.661C842.245 592.451 842.46 592.144 842.512 591.806C842.565 591.468 842.45 591.128 842.192 590.858L791.522 538.365C791.393 538.23 791.233 538.117 791.051 538.033C790.868 537.948 790.667 537.893 790.458 537.871C790.249 537.849 790.037 537.861 789.833 537.905C789.63 537.949 789.44 538.025 789.273 538.129C789.106 538.233 788.966 538.362 788.861 538.509C788.756 538.656 788.688 538.818 788.661 538.987C788.634 539.155 788.648 539.326 788.703 539.49C788.758 539.654 788.852 539.808 788.98 539.942L839.753 592.518C839.9 592.671 840.089 592.795 840.305 592.88C840.52 592.965 840.757 593.01 840.998 593.01C841.377 592.994 841.737 592.871 842.014 592.661H841.913ZM921.095 578.462C921.108 578.123 920.956 577.793 920.671 577.544C920.386 577.295 919.99 577.146 919.57 577.13L849.917 574.282C849.526 574.304 849.158 574.441 848.883 574.667C848.609 574.893 848.447 575.192 848.428 575.508C848.409 575.824 848.535 576.135 848.781 576.381C849.028 576.627 849.378 576.792 849.765 576.843L919.544 579.691C919.965 579.703 920.374 579.58 920.683 579.35C920.992 579.12 921.176 578.801 921.196 578.462H921.095ZM888.238 620.137C888.262 619.969 888.245 619.798 888.186 619.635C888.127 619.472 888.029 619.32 887.896 619.188C887.764 619.057 887.6 618.947 887.414 618.868C887.228 618.788 887.024 618.739 886.815 618.724L833.451 614.482C833.243 614.465 833.034 614.482 832.835 614.53C832.636 614.579 832.451 614.659 832.29 614.766C832.129 614.872 831.996 615.004 831.899 615.152C831.802 615.3 831.742 615.463 831.723 615.63C831.687 615.966 831.816 616.3 832.082 616.56C832.348 616.821 832.73 616.987 833.146 617.023L886.51 621.285H886.662C887.072 621.308 887.477 621.2 887.79 620.986C888.103 620.772 888.3 620.467 888.339 620.137H888.238ZM821.278 642.348C821.631 642.16 821.877 641.867 821.963 641.533C822.049 641.199 821.967 640.851 821.736 640.565L795.359 608.418C795.117 608.141 794.752 607.95 794.34 607.885C793.928 607.82 793.501 607.886 793.148 608.069C792.795 608.257 792.549 608.55 792.463 608.884C792.378 609.218 792.459 609.566 792.691 609.852L819.068 641.999C819.219 642.175 819.42 642.319 819.654 642.419C819.889 642.519 820.149 642.572 820.415 642.573C820.759 642.588 821.099 642.509 821.38 642.348H821.278ZM881.808 653.105C881.802 652.767 881.635 652.445 881.342 652.205C881.048 651.964 880.651 651.824 880.233 651.814L817.492 651.343C817.074 651.343 816.674 651.476 816.378 651.715C816.083 651.953 815.917 652.276 815.917 652.613C815.91 652.782 815.946 652.951 816.022 653.109C816.098 653.266 816.214 653.41 816.361 653.531C816.508 653.651 816.685 653.747 816.879 653.811C817.074 653.875 817.282 653.907 817.492 653.904L880.233 654.375C880.447 654.383 880.662 654.357 880.863 654.297C881.065 654.237 881.249 654.145 881.406 654.026C881.562 653.908 881.687 653.765 881.774 653.607C881.861 653.449 881.907 653.278 881.91 653.105H881.808ZM797.62 728.751C797.748 728.526 808.446 704.758 840.617 699.083C841.031 699.009 841.392 698.806 841.621 698.518C841.85 698.23 841.927 697.88 841.836 697.546C841.734 697.218 841.478 696.935 841.123 696.756C840.768 696.577 840.341 696.515 839.93 696.583C806.006 702.566 794.749 727.665 794.622 727.911C794.491 728.235 794.521 728.587 794.706 728.892C794.891 729.198 795.216 729.434 795.613 729.55H796.121C796.459 729.574 796.797 729.509 797.086 729.365C797.374 729.221 797.597 729.006 797.722 728.751H797.62Z" fill="black"/>
<path d="M846.258 711.417H774.318V723.424H780.595L793.58 788.928H826.996L839.982 723.424H846.258V711.417Z" fill="#B785DF"/>
<path opacity="0.3" d="M846.258 711.417H774.318V723.424H780.595L793.58 788.928H826.996L839.982 723.424H846.258V711.417Z" fill="white"/>
<path d="M198.571 348.347L114.891 326.321L107.446 310.462L90.4457 310.032L59.5962 305.319L63.3063 310.462L102.135 333.185L111.715 337.037L199.232 373.897L198.571 348.347Z" fill="white" stroke="#263238" stroke-width="1.00396" stroke-miterlimit="10"/>
<path d="M107.447 310.462L99.4676 306.61L83.5347 311.322L86.1774 313.884L107.447 310.462Z" fill="white" stroke="#263238" stroke-width="1.00396" stroke-linejoin="round"/>
<path d="M198.571 348.347L114.891 326.321L107.446 310.462L90.4457 310.032L59.5962 305.319L63.3063 310.462L102.135 333.185L111.715 337.037L199.232 373.897L198.571 348.347Z" fill="white"/>
<path opacity="0.5" d="M198.571 348.347L114.891 326.321L107.446 310.462L90.4457 310.032L59.5962 305.319L63.3063 310.462L102.135 333.185L111.715 337.037L199.232 373.897L198.571 348.347Z" fill="#B785DF" stroke="#263238" stroke-width="1.00396" stroke-miterlimit="10"/>
<path d="M198.571 348.347L114.891 326.321L107.446 310.462L90.4457 310.032L59.5962 305.319L63.3063 310.462L102.135 333.185L111.715 337.037L199.232 373.897L198.571 348.347Z" stroke="#263238" stroke-width="1.00396" stroke-miterlimit="10"/>
<path d="M107.447 310.462L99.4676 306.61L83.5347 311.322L86.1774 313.884L107.447 310.462Z" fill="white"/>
<path opacity="0.5" d="M107.447 310.462L99.4676 306.61L83.5347 311.322L86.1774 313.884L107.447 310.462Z" fill="#B785DF" stroke="#263238" stroke-width="1.00396" stroke-linejoin="round"/>
<path d="M107.447 310.462L99.4676 306.61L83.5347 311.322L86.1774 313.884L107.447 310.462Z" stroke="#263238" stroke-width="1.00396" stroke-linejoin="round"/>
<path d="M216.335 205.393C216.335 205.393 215.039 214.613 218.266 220.534C221.493 226.456 239.408 246.515 239.408 246.515L205.967 268.131C205.967 268.131 192.092 245.593 189.45 241.946C186.807 238.299 183.63 222.604 192.245 211.355C200.859 200.107 213.26 197.074 216.335 205.393Z" fill="white"/>
<g style="mix-blend-mode:multiply" opacity="0.5">
<path d="M199.156 235.021L213.666 259.28L205.941 268.152L191.354 247.15L199.156 235.021Z" fill="#B785DF"/>
</g>
<path d="M216.335 205.393C216.335 205.393 215.039 214.613 218.266 220.534C221.493 226.456 239.408 246.515 239.408 246.515L205.967 268.131C205.967 268.131 192.092 245.593 189.45 241.946C186.807 238.299 183.63 222.604 192.245 211.355C200.859 200.107 213.26 197.074 216.335 205.393Z" stroke="#263238" stroke-width="1.00396" stroke-miterlimit="10"/>
<path d="M226.702 188.51C224.644 178.265 210.083 157.427 186.984 158.226C171.992 158.759 164.978 161.197 158.473 164.168C153.17 166.687 148.227 169.669 143.734 173.061C132.452 183.981 128.487 186.973 130.673 195.333C130.493 198.667 131.141 201.997 132.579 205.126C136.035 212.564 138.398 217.42 141.396 220.965C140.482 224.427 138.093 233.566 137.966 235.656C137.839 237.745 145.589 236.291 149.503 235.492C156.77 248.605 170.086 257.702 174.228 258.747C181.445 260.571 192.854 251.002 198.902 243.585C204.95 236.168 200.376 227.829 200.402 224.509C200.427 221.19 213.997 213.896 219.028 211.581C224.06 209.265 228.735 198.734 226.702 188.51Z" fill="white"/>
<g style="mix-blend-mode:multiply" opacity="0.5">
<path d="M130.774 195.333C130.595 198.667 131.243 201.997 132.68 205.126C136.136 212.564 138.499 217.42 141.498 220.965C140.583 224.427 138.194 233.566 138.067 235.656C137.94 237.745 145.691 236.291 149.604 235.492C156.872 248.605 170.187 257.702 174.329 258.747C181.546 260.571 192.956 251.002 199.004 243.585C200.515 241.733 201.496 239.633 201.875 237.438C201.545 236.475 201.316 235.881 201.316 235.881C201.316 235.881 197.911 246.433 191.152 245.06C184.392 243.687 174.05 232.767 168.281 228.997C162.513 225.227 164.876 220.268 163.733 214.654C162.589 209.04 145.513 204.102 144.369 200.885C143.226 197.668 147.215 184.35 147.215 184.35C147.215 184.35 153.695 177.384 152.298 180.252C151.31 182.74 150.951 185.362 151.244 187.963C151.536 190.564 152.474 193.091 154 195.394C155.071 197.212 156.771 198.741 158.894 199.799C161.017 200.856 163.474 201.397 165.969 201.356L172.169 176.585L159.082 167.856L143.836 172.979C132.451 183.982 128.563 186.973 130.774 195.333Z" fill="#B785DF"/>
</g>
<path d="M226.702 188.51C224.644 178.265 210.083 157.427 186.984 158.226C171.992 158.759 164.978 161.197 158.473 164.168C153.17 166.687 148.227 169.669 143.734 173.061C132.452 183.981 128.487 186.973 130.673 195.333C130.493 198.667 131.141 201.997 132.579 205.126C136.035 212.564 138.398 217.42 141.396 220.965C140.482 224.427 138.093 233.566 137.966 235.656C137.839 237.745 145.589 236.291 149.503 235.492C156.77 248.605 170.086 257.702 174.228 258.747C181.445 260.571 192.854 251.002 198.902 243.585C204.95 236.168 200.376 227.829 200.402 224.509C200.427 221.19 213.997 213.896 219.028 211.581C224.06 209.265 228.735 198.734 226.702 188.51Z" stroke="#263238" stroke-miterlimit="10"/>
<path d="M144.547 214.777L147.089 220.637C147.089 220.637 152.552 222.092 159.21 216.232" stroke="#263238" stroke-miterlimit="10" stroke-linecap="round"/>
<path d="M163.327 242.151C163.327 242.151 169.375 241.659 171.814 234.815" stroke="#263238" stroke-miterlimit="10" stroke-linecap="round"/>
<path d="M140.303 209.88C140.303 209.88 142.107 205.475 153.008 205.475" stroke="#263238" stroke-miterlimit="10" stroke-linecap="round"/>
<path d="M196.183 150.072C188.262 149.153 180.274 148.66 172.271 148.597C172.271 148.597 148.334 137.471 125.336 149.334C102.339 161.197 113.393 181.974 113.393 187.157C113.393 192.341 106.024 192.362 110.623 199.041C115.223 205.721 130.774 202.033 130.774 202.033C130.939 199.513 131.764 197.051 133.197 194.808C134.629 192.565 136.636 190.593 139.084 189.022C147.368 183.838 153.975 182.711 156.719 184.207C156.719 184.207 154.89 195.333 157.634 199.779C157.634 199.779 166.833 203.487 169.603 203.487C172.373 203.487 167.799 206.622 176.972 209.409C178.644 209.893 180.431 210.058 182.195 209.891C183.959 209.724 185.65 209.229 187.137 208.446C188.484 203.938 191.431 197.156 196.92 198.734C204.976 201.049 212.32 217.031 201.418 222.481C214.53 224.407 230.413 205.7 231.353 188.653C232.293 171.606 209.804 151.998 196.183 150.072Z" fill="#263238"/>
<path d="M157.126 176.892C157.126 176.892 163.885 173.962 172.17 180.232C180.454 186.502 196.565 194.882 217.91 190.272" stroke="white" stroke-width="0.5" stroke-linecap="round" stroke-linejoin="round"/>
<path d="M156.185 171.872C156.185 171.872 160.835 166.012 168.611 166.012C176.387 166.012 194.556 174.802 209.066 174.802" stroke="white" stroke-width="0.5" stroke-linecap="round" stroke-linejoin="round"/>
<path d="M150.9 183.162C150.9 183.162 142.082 174.393 133.798 181.502C125.514 188.612 130.774 195.333 130.774 195.333" stroke="white" stroke-width="0.5" stroke-linecap="round" stroke-linejoin="round"/>
<path d="M115.655 189.022C120.708 185.348 123.849 180.268 124.447 174.802C125.489 165.603 141.066 157.653 150.9 165.193" stroke="white" stroke-width="0.5" stroke-linecap="round" stroke-linejoin="round"/>
<path d="M131.714 155.563C131.714 155.563 147.292 143.433 160.251 158.903" stroke="white" stroke-width="0.5" stroke-linecap="round" stroke-linejoin="round"/>
<path d="M258.492 751.945C258.492 751.945 268.072 763.952 267.005 771.676L265.963 779.401C265.963 779.401 230.819 787.166 223.373 787.166C215.928 787.166 176.515 784.154 176.515 784.154L174.812 778.704C174.693 778.302 174.749 777.878 174.971 777.505C175.193 777.132 175.568 776.832 176.032 776.655L211.176 763.44L222.255 753.666L258.492 751.945Z" fill="white" stroke="#263238" stroke-width="1.00396" stroke-miterlimit="10"/>
<path d="M228.71 781.122C238.239 781.716 256.332 777.024 266.827 774.033L266.09 779.401C266.09 779.401 230.819 787.166 223.373 787.166C215.928 787.166 176.515 784.154 176.515 784.154L175.295 780.261C181.597 780.282 216.106 780.343 228.71 781.122Z" fill="#B785DF" stroke="#263238" stroke-width="1.00396" stroke-miterlimit="10"/>
<path d="M211.226 763.44L160.073 781.388C160.073 781.388 155.702 790.219 160.073 791.981C164.444 793.743 259.737 791.981 259.737 791.981C259.737 791.981 266.318 778.028 255.925 768.665C245.532 759.301 211.226 763.44 211.226 763.44Z" fill="white" stroke="#263238" stroke-width="1.00396" stroke-miterlimit="10"/>
<path d="M259.737 791.981C259.737 791.981 164.444 793.743 160.073 791.981C157.964 791.121 157.888 788.642 158.371 786.285H261.414C261.078 788.222 260.516 790.129 259.737 791.981Z" fill="#B785DF" stroke="#263238" stroke-width="1.00396" stroke-miterlimit="10"/>
<path d="M187.035 451.572C187.035 451.572 173.668 499.333 168.612 529.206C163.555 559.079 160.582 618.929 161.649 625.792C162.716 632.656 215.928 747.663 215.928 747.663L221.239 757.908L258.492 751.904C258.492 751.904 241.466 708.139 235.088 684.105C228.71 660.071 214.759 620.588 214.759 613.724C214.759 606.86 247.794 475.77 250.157 467.164C252.52 458.559 263.244 445.343 263.244 445.343L191.914 444.175L187.035 451.572Z" fill="#B785DF" stroke="#263238" stroke-width="1.00396" stroke-miterlimit="10"/>
<path d="M187.035 451.572C187.035 451.572 179.208 495.194 182.435 525.518C185.662 555.842 192.6 620.404 192.6 630.013C192.6 639.623 211.836 697.013 212.929 715.044C214.631 741.086 212.243 753.974 212.243 753.974L211.099 763.419C211.099 763.419 233.537 766.001 238.442 767.128C244.106 768.305 249.952 768.815 255.798 768.644C255.798 768.644 263.955 739.693 263.955 715.024C263.955 690.354 257.17 639.582 253.79 619.011C250.411 598.439 261.058 519.084 267.106 504.271C273.154 489.457 286.368 458.088 277.474 442.065C268.58 426.042 187.035 451.572 187.035 451.572Z" fill="#B785DF" stroke="#263238" stroke-width="1.00396" stroke-miterlimit="10"/>
<path d="M287.36 434.033L286.547 453.539C286.547 453.539 272.062 455.854 252.546 458.579C236.435 460.833 195.98 457.985 182.36 456.92C181.118 456.831 179.971 456.351 179.167 455.583C178.362 454.816 177.966 453.824 178.065 452.822L179.387 435.201L287.36 434.033Z" fill="#263238"/>
<path d="M230.742 239.589C230.742 239.589 207.872 259.525 199.258 271.921C190.643 284.318 187.238 303.311 184.011 318.268C180.784 333.226 189.525 368.344 187.06 384.469L179.259 435.262C179.259 435.262 177.582 438.704 183.198 442.475C188.814 446.245 216.233 447.617 241.009 448.621C250.055 448.99 277.067 444.298 281.489 444.073C286.825 443.806 287.003 438.336 287.232 434.033C288.299 413.81 292.823 359.903 295.796 336.422C301.92 288.538 268.402 242.314 230.742 239.589Z" fill="white" stroke="#263238" stroke-width="1.00396" stroke-miterlimit="10"/>
<g style="mix-blend-mode:multiply">
<path d="M293.001 363.652C294.017 353.018 295.034 343.368 295.923 336.422C296.177 334.373 296.33 332.324 296.457 330.275L235.698 338.471L183.503 324.128C183.509 332.837 184.119 341.538 185.333 350.191L236.537 361.747L293.001 363.652Z" fill="#B785DF"/>
</g>
<g style="mix-blend-mode:multiply">
<path d="M228.481 241.597C225.025 244.691 218.164 250.982 211.633 257.661L250.208 289.276L262.914 285.178L228.481 241.597Z" fill="#B785DF"/>
</g>
<path d="M230.744 239.589C230.744 239.589 207.873 259.525 199.259 271.922C196.705 275.689 194.635 279.657 193.084 283.764L239.079 240.921C236.361 240.257 233.57 239.811 230.744 239.589Z" fill="#263238"/>
<g style="mix-blend-mode:multiply">
<path d="M185.79 310.196L235.698 323.432L296.304 317.818C295.355 305.645 292 293.672 286.369 282.351L237.502 298.148L193.82 282.187C190.248 291.342 187.563 300.706 185.79 310.196Z" fill="#B785DF"/>
</g>
<g style="mix-blend-mode:multiply">
<path d="M271.706 413.81C246.393 417.237 220.42 415.526 196.133 408.831L183.961 405.471L180.174 430.058L194.049 433.193C220.425 439.139 247.993 440.852 275.188 438.233L286.394 437.147C286.977 436.152 287.306 435.072 287.36 433.972C287.665 428.501 288.198 420.551 288.884 411.433L271.706 413.81Z" fill="#B785DF"/>
</g>
<g style="mix-blend-mode:multiply">
<path d="M278.491 380.33C253.177 383.771 227.198 382.052 202.918 375.331L187.417 371.049C187.801 375.513 187.725 379.995 187.188 384.449L185.384 396.271L200.834 399.754C227.2 405.707 254.759 407.426 281.947 404.815L289.571 404.078C290.206 395.882 290.943 387.153 291.731 378.527L278.491 380.33Z" fill="#B785DF"/>
</g>
<path d="M40.0838 293.685L89.2178 325.538L91.3355 323.414L42.2016 291.562L40.0838 293.685Z" fill="#263238"/>
<path d="M254.401 261.698C254.401 261.698 272.418 271.594 272.824 294.972C273.002 305.217 271.681 314.785 268.759 331.566C265.836 348.347 247.693 402.992 233.564 409.63C219.435 416.269 197.505 403.729 197.505 403.729L91.4376 346.954L65.7975 330.255L53.0918 310.913L57.0814 304.766L88.3629 324.108L71.5151 311.548L74.8186 308.167L80.9173 311.589L98.7053 316.957L102.593 337.446L108.082 340.479L209.55 370.373C209.55 370.373 208.279 326.341 209.22 317.92C210.16 309.499 211.456 288.334 222.637 272.987" fill="white"/>
<g style="mix-blend-mode:multiply" opacity="0.5">
<path d="M208.838 337.098C208.838 352.301 209.474 370.373 209.474 370.373L108.107 340.602L102.619 337.57L98.7306 317.08L80.9426 311.712L74.8692 308.229L71.5657 311.61L88.3627 324.108L57.0812 304.766L53.2949 310.81L66.0006 330.152L91.6408 346.954L98.0953 350.416L238.239 386.826L208.838 337.098Z" fill="#B785DF"/>
</g>
<path d="M254.401 261.698C254.401 261.698 272.418 271.594 272.824 294.972C273.002 305.217 271.681 314.785 268.759 331.566C265.836 348.347 247.693 402.992 233.564 409.63C219.435 416.269 197.505 403.729 197.505 403.729L91.4376 346.954L65.7975 330.255L53.0918 310.913L57.0814 304.766L88.3629 324.108L71.5151 311.548L74.8186 308.167L80.9173 311.589L98.7053 316.957L102.593 337.446L108.082 340.479L209.55 370.373C209.55 370.373 208.279 326.341 209.22 317.92C210.16 309.499 211.456 288.334 222.637 272.987" stroke="#263238" stroke-width="1.00396" stroke-miterlimit="10"/>
<path d="M209.55 370.373L248.277 392.911L258.315 378.569C258.315 378.569 265.252 374.163 266.268 370.844C267.285 367.525 265.989 362.136 267.031 358.817C268.073 355.498 273.256 352.383 273.739 344.351C274.222 336.32 273.739 329.62 273.739 329.62C273.739 329.62 282.125 301.816 281.21 289.727C280.295 277.638 265.836 256.268 254.249 255.797C242.661 255.325 227.592 256.739 215.903 271C204.214 285.26 206.602 326.895 204.773 329.497C202.943 332.099 205.484 344.946 205.484 344.946C204.469 345.556 203.626 346.335 203.013 347.228C202.399 348.122 202.029 349.111 201.927 350.129C201.723 353.469 206.196 361.685 206.196 361.685L209.55 370.373Z" fill="white" stroke="#263238" stroke-width="1.00396" stroke-miterlimit="10"/>
<g style="mix-blend-mode:multiply">
<path d="M205.789 318.801C205.868 322.377 205.537 325.95 204.798 329.476C203.171 331.812 205.026 342.364 205.433 344.515C227.215 349.97 250.248 351.371 272.799 348.613C273.283 347.188 273.573 345.725 273.662 344.249C274.171 336.238 273.662 329.517 273.662 329.517C273.662 329.517 274.399 327.038 275.416 323.268C252.061 324.465 228.615 322.961 205.789 318.801Z" fill="#B785DF"/>
</g>
<g style="mix-blend-mode:multiply">
<path d="M214.326 273.274C210.693 279.154 208.66 287.985 207.491 296.939C230.559 304.038 255.432 306.479 279.939 304.049C280.917 299.31 281.35 294.509 281.235 289.706C280.795 285.91 279.682 282.184 277.931 278.642C256.533 279.045 235.158 277.241 214.326 273.274Z" fill="#B785DF"/>
</g>
<path d="M206.195 361.911L209.473 370.373L248.2 392.911L258.238 378.568C258.238 378.568 265.175 374.163 266.192 370.844C266.373 370.267 266.484 369.677 266.522 369.082C246.114 368.798 225.837 366.387 206.195 361.911Z" fill="#263238"/>
<path d="M234.224 766.861C234.224 766.861 235.088 749.118 239.306 723.178C243.525 697.239 233.386 660.399 231.683 654.252C229.98 648.105 232.547 634.46 230.844 629.665C229.142 624.871 220.909 604.422 225.762 580.696C230.616 556.969 234.554 494.251 234.554 494.251C234.554 494.251 222.332 486.24 218.749 475.811C215.166 465.382 217.91 462.104 217.91 462.104" stroke="#263238" stroke-width="1.00396" stroke-miterlimit="10"/>
<path d="M239.891 463.066L235.189 484.047" stroke="#263238" stroke-width="1.00396" stroke-miterlimit="10"/>
</svg>
