<svg width="2544" height="2345" viewBox="0 0 2544 2345" fill="none" xmlns="http://www.w3.org/2000/svg">
<path d="M2544 1750.25H0V1751.59H2544V1750.25Z" fill="#EBEBEB"/>
<path d="M2289.09 1836.26H2120.58V1837.6H2289.09V1836.26Z" fill="#EBEBEB"/>
<path d="M1685.25 1850.8H1641.03V1852.14H1685.25V1850.8Z" fill="#EBEBEB"/>
<path d="M2115.49 1786.65H2017.85V1787.99H2115.49V1786.65Z" fill="#EBEBEB"/>
<path d="M486.667 1795.64H266.916V1796.97H486.667V1795.64Z" fill="#EBEBEB"/>
<path d="M564.209 1795.64H532.002V1796.97H564.209V1795.64Z" fill="#EBEBEB"/>
<path d="M1145.56 1818.19H668.919V1819.53H1145.56V1818.19Z" fill="#EBEBEB"/>
<path d="M1205.86 1511.82H223.414C215.717 1511.81 208.341 1508.58 202.903 1502.86C197.466 1497.14 194.412 1489.38 194.412 1481.3V30.2578C194.479 22.2177 197.563 14.53 202.993 8.86467C208.423 3.1993 215.761 0.0137731 223.414 0H1205.86C1213.56 0 1220.95 3.21603 1226.4 8.9406C1231.85 14.6652 1234.91 22.4293 1234.91 30.5251V1481.3C1234.91 1489.39 1231.85 1497.16 1226.4 1502.88C1220.95 1508.61 1213.56 1511.82 1205.86 1511.82ZM223.414 1.06918C216.055 1.08335 209.002 4.16481 203.803 9.6372C198.604 15.1096 195.684 22.5258 195.684 30.2578V1481.3C195.684 1489.03 198.604 1496.44 203.803 1501.92C209.002 1507.39 216.055 1510.47 223.414 1510.48H1205.86C1213.22 1510.47 1220.28 1507.39 1225.48 1501.92C1230.69 1496.45 1233.62 1489.03 1233.64 1481.3V30.2578C1233.62 22.5208 1230.69 15.1048 1225.48 9.63394C1220.28 4.16307 1213.22 1.08332 1205.86 1.06918H223.414Z" fill="#EBEBEB"/>
<path d="M2306.44 1511.82H1323.95C1316.25 1511.81 1308.87 1508.59 1303.42 1502.86C1297.97 1497.14 1294.91 1489.39 1294.9 1481.3V30.2578C1294.98 22.2128 1298.07 14.5252 1303.51 8.86133C1308.95 3.19743 1316.29 0.0136229 1323.95 0H2306.44C2314.08 0.0278227 2321.41 3.21957 2326.83 8.88344C2332.25 14.5473 2335.32 22.2269 2335.39 30.2578V1481.3C2335.39 1489.37 2332.34 1497.12 2326.92 1502.84C2321.49 1508.56 2314.13 1511.79 2306.44 1511.82ZM1323.95 1.06918C1316.58 1.08332 1309.53 4.16307 1304.32 9.63394C1299.11 15.1048 1296.18 22.5208 1296.17 30.2578V1481.3C1296.18 1489.03 1299.11 1496.45 1304.32 1501.92C1309.53 1507.39 1316.58 1510.47 1323.95 1510.48H2306.44C2313.8 1510.47 2320.86 1507.39 2326.07 1501.92C2331.28 1496.45 2334.21 1489.03 2334.22 1481.3V30.2578C2334.21 22.5208 2331.28 15.1048 2326.07 9.63394C2320.86 4.16307 2313.8 1.08332 2306.44 1.06918H1323.95Z" fill="#EBEBEB"/>
<path d="M2093.61 1565.33C2093.61 1565.33 2054.53 1485.15 2099.21 1405.71C2143.88 1326.27 2156.8 1307.77 2128.31 1291.52C2099.82 1275.27 2086.79 1354.92 2086.79 1354.92C2086.79 1354.92 2062.78 1300.12 2082.62 1242.66C2102.46 1185.19 2114.88 1091.9 2087.71 1081.9C2060.54 1071.91 2082.62 1198.39 2059.01 1241.53C2059.01 1241.53 2039.32 1193.42 2036.07 1147.45C2032.81 1101.47 2037.9 1027.86 2016.53 1008.99C1995.16 990.115 1981.42 1003.21 2002.43 1104.84C2015.05 1165.39 2022.04 1227.09 2023.29 1289.06C2023.29 1289.06 1976.89 1155.73 1945.75 1151.88C1914.61 1148.03 1914.67 1191.17 1941.33 1228.6C1967.99 1266.02 2019.38 1333.16 2027.82 1367.59C2027.82 1367.59 1976.94 1267.3 1931.15 1298.09C1885.36 1328.89 1971.04 1389.45 2009.25 1411.32C2047.46 1433.18 2073.92 1570.52 2073.92 1570.52L2093.61 1565.33Z" fill="#E0E0E0"/>
<path d="M2062.73 1598.42C2062.73 1598.42 2100.84 1517.49 2055.15 1438.85C2009.46 1360.21 1996.28 1341.77 2024.62 1325.14C2052.96 1308.52 2066.95 1387.96 2066.95 1387.96C2066.95 1387.96 2090.25 1332.79 2069.7 1275.69C2049.14 1218.6 2035.56 1125.42 2062.47 1115.05C2089.39 1104.68 2069.14 1231.48 2093 1274.25C2093 1274.25 2112.13 1226.14 2114.78 1179.89C2117.42 1133.65 2111.42 1060.31 2132.59 1041.17C2153.75 1022.03 2167.54 1034.86 2147.85 1136.75C2136.02 1197.49 2129.82 1259.3 2129.33 1321.29C2129.33 1321.29 2174.05 1187.32 2205.14 1182.99C2236.23 1178.66 2236.74 1221.86 2210.53 1259.65C2184.33 1297.45 2133.81 1365.29 2125.82 1399.93C2125.82 1399.93 2175.48 1298.89 2221.68 1328.99C2267.87 1359.09 2182.96 1420.89 2145.05 1443.34C2107.14 1465.79 2082.37 1603.4 2082.37 1603.4L2062.73 1598.42Z" fill="#E6E6E6"/>
<path d="M2238.37 1540.64H1923.83L1949.27 1752.76H2212.93L2238.37 1540.64Z" fill="#F0F0F0"/>
<path d="M1677.31 198.119H1104.3V864.325H1677.31V198.119Z" fill="#E9E9E9"/>
<path d="M1653.6 224.528H1129.54V839.307H1653.6V224.528Z" fill="#F4F4F4"/>
<path d="M1277.65 224.528L1129.54 807.339V491.823L1197.31 224.528H1277.65Z" fill="white"/>
<path d="M1343.84 224.528L1187.64 839.307H1158.18L1314.38 224.528H1343.84Z" fill="white"/>
<path d="M1653.6 392.175V707.744L1620.43 839.306H1540.09L1653.6 392.175Z" fill="white"/>
<path d="M1400.98 198.119H1380.63V864.325H1400.98V198.119Z" fill="#E9E9E9"/>
<path d="M1666.32 333.317H1114.27V354.701H1666.32V333.317Z" fill="#E9E9E9"/>
<path d="M893.759 198.119H320.748V864.325H893.759V198.119Z" fill="#E9E9E9"/>
<path d="M870.048 224.528H345.984V839.307H870.048V224.528Z" fill="#F4F4F4"/>
<path d="M494.096 224.528L345.984 807.339V491.823L413.757 224.528H494.096Z" fill="white"/>
<path d="M560.291 224.528L404.089 839.307H374.63L530.832 224.528H560.291Z" fill="white"/>
<path d="M870.047 392.175V707.744L836.874 839.306H756.534L870.047 392.175Z" fill="white"/>
<path d="M617.429 198.119H597.077V864.325H617.429V198.119Z" fill="#E9E9E9"/>
<path d="M882.769 333.317H330.721V354.701H882.769V333.317Z" fill="#E9E9E9"/>
<path d="M1272 1991.67C1816.84 1991.67 2258.51 1964.58 2258.51 1931.15C2258.51 1897.73 1816.84 1870.64 1272 1870.64C727.164 1870.64 285.487 1897.73 285.487 1931.15C285.487 1964.58 727.164 1991.67 1272 1991.67Z" fill="#F5F5F5"/>
<path d="M1839.44 2315.04H1145.04C1140.89 2315.14 1136.76 2313.81 1132.94 2311.12C1129.12 2308.44 1125.69 2304.46 1122.88 2299.46C1120.06 2294.45 1117.93 2288.53 1116.61 2282.08C1115.29 2275.62 1114.82 2268.79 1115.23 2262.02L1202.77 423.857C1203.56 409.532 1207.56 396.192 1214 386.404C1220.44 376.617 1228.86 371.072 1237.65 370.838H1932C1936.16 370.734 1940.29 372.067 1944.11 374.751C1947.93 377.435 1951.36 381.409 1954.18 386.414C1957 391.418 1959.14 397.34 1960.46 403.793C1961.79 410.245 1962.26 417.082 1961.86 423.857L1874.32 2262.02C1873.52 2276.34 1869.52 2289.67 1863.08 2299.45C1856.64 2309.24 1848.22 2314.79 1839.44 2315.04Z" fill="#2E353A"/>
<path opacity="0.2" d="M1839.44 2344.99H1145.04C1140.89 2345.1 1136.76 2343.75 1132.94 2341.02C1129.12 2338.3 1125.69 2334.26 1122.88 2329.18C1120.06 2324.09 1117.93 2318.08 1116.61 2311.53C1115.29 2304.98 1114.82 2298.03 1115.23 2291.16L1202.77 424.674C1203.56 410.128 1207.56 396.583 1214 386.644C1220.44 376.706 1228.86 371.076 1237.65 370.838H1932C1936.16 370.732 1940.29 372.086 1944.11 374.811C1947.93 377.536 1951.36 381.572 1954.18 386.654C1957 391.735 1959.14 397.749 1960.46 404.301C1961.79 410.852 1962.26 417.795 1961.86 424.674L1874.32 2291.16C1873.52 2305.7 1869.52 2319.23 1863.08 2329.17C1856.64 2339.11 1848.22 2344.74 1839.44 2344.99Z" fill="white"/>
<path d="M1745.48 484.446H1413.11C1411.66 484.486 1410.22 484.05 1408.88 483.165C1407.54 482.28 1406.34 480.967 1405.36 479.312C1404.37 477.657 1403.62 475.697 1403.16 473.562C1402.69 471.426 1402.53 469.162 1402.67 466.92L1407.78 365.195C1408.05 360.444 1409.45 356.021 1411.71 352.773C1413.96 349.525 1416.91 347.682 1419.99 347.598H1752.35C1753.81 347.567 1755.25 348.013 1756.58 348.906C1757.92 349.799 1759.12 351.12 1760.1 352.782C1761.08 354.444 1761.83 356.409 1762.28 358.548C1762.74 360.687 1762.9 362.952 1762.76 365.195L1757.65 466.639C1757.41 471.421 1756.03 475.895 1753.78 479.188C1751.53 482.481 1748.57 484.355 1745.48 484.446Z" fill="#6838F0" fill-opacity="0.84"/>
<path opacity="0.2" d="M1745.48 484.446H1413.11C1411.66 484.486 1410.22 484.05 1408.88 483.165C1407.54 482.28 1406.34 480.967 1405.36 479.312C1404.37 477.657 1403.62 475.697 1403.16 473.562C1402.69 471.426 1402.53 469.162 1402.67 466.92L1407.78 365.195C1408.05 360.444 1409.45 356.021 1411.71 352.773C1413.96 349.525 1416.91 347.682 1419.99 347.598H1752.35C1753.81 347.567 1755.25 348.013 1756.58 348.906C1757.92 349.799 1759.12 351.12 1760.1 352.782C1761.08 354.444 1761.83 356.409 1762.28 358.548C1762.74 360.687 1762.9 362.952 1762.76 365.195L1757.65 466.639C1757.41 471.421 1756.03 475.895 1753.78 479.188C1751.53 482.481 1748.57 484.355 1745.48 484.446Z" fill="black"/>
<path d="M1610.41 379.216H1558.41L1560.44 338.834C1561.08 327.945 1564.29 317.804 1569.45 310.362C1574.62 302.92 1581.38 298.704 1588.43 298.523C1591.77 298.44 1595.09 299.451 1598.16 301.49C1601.23 303.529 1603.99 306.549 1606.25 310.354C1608.52 314.159 1610.24 318.662 1611.31 323.57C1612.38 328.478 1612.76 333.679 1612.44 338.834L1610.41 379.216Z" fill="#6838F0" fill-opacity="0.84"/>
<path opacity="0.4" d="M1610.41 379.216H1558.41L1560.44 338.834C1561.08 327.945 1564.29 317.804 1569.45 310.362C1574.62 302.92 1581.38 298.704 1588.43 298.523C1591.77 298.44 1595.09 299.451 1598.16 301.49C1601.23 303.529 1603.99 306.549 1606.25 310.354C1608.52 314.159 1610.24 318.662 1611.31 323.57C1612.38 328.478 1612.76 333.679 1612.44 338.834L1610.41 379.216Z" fill="white"/>
<path d="M1830.47 2266.49H1162.43L1247.71 379.097H1915.71L1830.47 2266.49Z" fill="white"/>
<path d="M1683.66 532.048H1470.23C1466.8 532.122 1463.41 531.077 1460.27 528.979C1457.12 526.882 1454.3 523.78 1451.98 519.876C1449.67 515.973 1447.91 511.355 1446.82 506.325C1445.73 501.295 1445.34 495.966 1445.67 490.685L1448.38 436.843C1449.04 425.674 1452.33 415.275 1457.63 407.641C1462.93 400.007 1469.87 395.676 1477.1 395.481H1690.58C1694.01 395.407 1697.4 396.453 1700.55 398.55C1703.69 400.647 1706.52 403.747 1708.84 407.65C1711.16 411.552 1712.92 416.168 1714.02 421.199C1715.11 426.229 1715.51 431.559 1715.18 436.843L1712.47 490.685C1711.79 501.866 1708.48 512.268 1703.16 519.899C1697.85 527.53 1690.91 531.856 1683.66 532.048ZM1476.28 409.572C1471.51 409.697 1466.94 412.55 1463.44 417.584C1459.95 422.617 1457.77 429.476 1457.34 436.843L1454.62 490.685C1454.4 494.172 1454.66 497.692 1455.37 501.015C1456.09 504.338 1457.24 507.39 1458.77 509.971C1460.3 512.552 1462.16 514.604 1464.24 515.992C1466.31 517.38 1468.55 518.074 1470.81 518.027H1684.34C1689.13 517.902 1693.71 515.041 1697.22 509.995C1700.72 504.948 1702.9 498.071 1703.34 490.685L1706.05 436.843C1706.26 433.359 1705.99 429.845 1705.27 426.53C1704.55 423.215 1703.38 420.173 1701.85 417.601C1700.32 415.03 1698.46 412.986 1696.38 411.602C1694.31 410.219 1692.07 409.527 1689.81 409.572H1476.28Z" fill="#6838F0" fill-opacity="0.84"/>
<g opacity="0.4">
<path opacity="0.4" d="M1683.66 532.048H1470.23C1466.8 532.122 1463.41 531.077 1460.27 528.979C1457.12 526.882 1454.3 523.78 1451.98 519.876C1449.67 515.973 1447.91 511.355 1446.82 506.325C1445.73 501.295 1445.34 495.966 1445.67 490.685L1448.38 436.843C1449.04 425.674 1452.33 415.275 1457.63 407.641C1462.93 400.007 1469.87 395.676 1477.1 395.481H1690.58C1694.01 395.407 1697.4 396.453 1700.55 398.55C1703.69 400.647 1706.52 403.747 1708.84 407.65C1711.16 411.552 1712.92 416.168 1714.02 421.199C1715.11 426.229 1715.51 431.559 1715.18 436.843L1712.47 490.685C1711.79 501.866 1708.48 512.268 1703.16 519.899C1697.85 527.53 1690.91 531.856 1683.66 532.048ZM1476.28 409.572C1471.51 409.697 1466.94 412.55 1463.44 417.584C1459.95 422.617 1457.77 429.476 1457.34 436.843L1454.62 490.685C1454.4 494.172 1454.66 497.692 1455.37 501.015C1456.09 504.338 1457.24 507.39 1458.77 509.971C1460.3 512.552 1462.16 514.604 1464.24 515.992C1466.31 517.38 1468.55 518.074 1470.81 518.027H1684.34C1689.13 517.902 1693.71 515.041 1697.22 509.995C1700.72 504.948 1702.9 498.071 1703.34 490.685L1706.05 436.843C1706.26 433.359 1705.99 429.845 1705.27 426.53C1704.55 423.215 1703.38 420.173 1701.85 417.601C1700.32 415.03 1698.46 412.986 1696.38 411.602C1694.31 410.219 1692.07 409.527 1689.81 409.572H1476.28Z" fill="white"/>
</g>
<path d="M1672.63 426.538H1491.75C1490.95 426.564 1490.16 426.327 1489.43 425.844C1488.69 425.361 1488.03 424.642 1487.49 423.734C1486.95 422.827 1486.53 421.752 1486.28 420.58C1486.02 419.408 1485.93 418.165 1486.01 416.934L1487.41 388.891C1487.58 386.287 1488.35 383.868 1489.6 382.097C1490.84 380.326 1492.46 379.325 1494.15 379.286H1675.03C1675.82 379.26 1676.62 379.496 1677.35 379.98C1678.08 380.464 1678.74 381.184 1679.28 382.093C1679.82 383.001 1680.22 384.078 1680.47 385.25C1680.72 386.422 1680.81 387.663 1680.73 388.891L1679.32 416.934C1679.17 419.532 1678.4 421.949 1677.16 423.722C1675.93 425.495 1674.31 426.498 1672.63 426.538Z" fill="#6838F0" fill-opacity="0.84"/>
<path d="M1820.55 948.31H1694.52L1704.38 779.922H1830.41L1820.55 948.31Z" fill="#6838F0" fill-opacity="0.84"/>
<path d="M1825.79 690.98H1319.33L1323.62 605.31H1830.09L1825.79 690.98Z" fill="#6838F0" fill-opacity="0.84"/>
<path d="M1620.81 810.232H1283.65L1284.78 788.148H1621.94L1620.81 810.232Z" fill="#6838F0" fill-opacity="0.84"/>
<path d="M1617.64 874.028H1280.48L1281.57 851.874H1618.73L1617.64 874.028Z" fill="#6838F0" fill-opacity="0.84"/>
<path d="M1614.43 937.826H1277.27L1278.36 915.672H1615.52L1614.43 937.826Z" fill="#6838F0" fill-opacity="0.84"/>
<path d="M1765.13 864.295H1748.43V893.055H1739.01V821.961H1762.54C1770.55 821.961 1776.7 823.784 1781 827.43C1785.33 831.075 1787.49 836.381 1787.49 843.348C1787.49 847.775 1786.29 851.632 1783.88 854.92C1781.51 858.208 1778.19 860.665 1773.92 862.293L1790.62 892.469V893.055H1780.56L1765.13 864.295ZM1748.43 856.629H1762.84C1767.49 856.629 1771.19 855.424 1773.92 853.015C1776.69 850.607 1778.07 847.384 1778.07 843.348C1778.07 838.953 1776.75 835.584 1774.12 833.24C1771.51 830.896 1767.74 829.708 1762.79 829.676H1748.43V856.629Z" fill="white"/>
<path opacity="0.7" d="M1825.67 947.277H1687.41L1698.23 778.889H1836.49L1825.67 947.277Z" fill="white"/>
<path opacity="0.7" d="M1617.93 874.39H1280.77L1281.85 852.236H1619.01L1617.93 874.39Z" fill="white"/>
<path opacity="0.7" d="M1620.97 810.27H1283.81L1284.94 788.187H1622.1L1620.97 810.27Z" fill="white"/>
<path opacity="0.7" d="M1825.77 691.004H1319.3L1323.6 605.334H1830.06L1825.77 691.004Z" fill="white"/>
<path opacity="0.7" d="M1613.87 938.439H1276.71L1277.79 916.285H1614.96L1613.87 938.439Z" fill="white"/>
<path d="M1611.74 1269.94H1274.57L1275.7 1247.86H1612.87L1611.74 1269.94Z" fill="#6838F0" fill-opacity="0.84"/>
<path d="M1608.57 1333.74H1271.41L1272.49 1311.58H1609.66L1608.57 1333.74Z" fill="#6838F0" fill-opacity="0.84"/>
<path d="M1605.36 1397.54H1268.2L1269.28 1375.38H1606.44L1605.36 1397.54Z" fill="#6838F0" fill-opacity="0.84"/>
<path d="M1811.34 1412.15H1685.31L1695.17 1243.76H1821.2L1811.34 1412.15Z" fill="#6838F0" fill-opacity="0.84"/>
<path d="M1775.39 1334.21H1745.6L1738.91 1352.76H1729.24L1756.39 1281.67H1764.6L1791.79 1352.76H1782.17L1775.39 1334.21ZM1748.43 1326.49H1772.6L1760.49 1293.24L1748.43 1326.49Z" fill="white"/>
<path opacity="0.7" d="M1819.5 1410.09H1681.24L1692.06 1241.7H1830.32L1819.5 1410.09Z" fill="white"/>
<path opacity="0.7" d="M1608.86 1334.1H1271.69L1272.78 1311.95H1609.94L1608.86 1334.1Z" fill="white"/>
<path opacity="0.7" d="M1611.9 1269.98H1274.73L1275.86 1247.9H1613.03L1611.9 1269.98Z" fill="white"/>
<path opacity="0.7" d="M1604.8 1398.15H1267.64L1268.72 1375.99H1605.88L1604.8 1398.15Z" fill="white"/>
<path d="M1613.84 1042.67H1276.68L1277.81 1020.59H1614.97L1613.84 1042.67Z" fill="#6838F0" fill-opacity="0.84"/>
<path d="M1814.49 1178.68H1688.46L1698.32 1010.29H1824.35L1814.49 1178.68Z" fill="#6838F0" fill-opacity="0.84"/>
<path d="M1610.67 1106.47H1273.51L1274.6 1084.31H1611.76L1610.67 1106.47Z" fill="#6838F0" fill-opacity="0.84"/>
<path d="M1607.46 1170.26H1270.3L1271.39 1148.11H1608.55L1607.46 1170.26Z" fill="#6838F0" fill-opacity="0.84"/>
<path d="M1765.26 1135.82H1755.88V1064.73H1765.26V1135.82Z" fill="white"/>
<path opacity="0.7" d="M1819.57 1178.68H1681.32L1692.13 1010.29H1830.39L1819.57 1178.68Z" fill="white"/>
<path opacity="0.7" d="M1610.96 1106.83H1273.8L1274.88 1084.67H1612.04L1610.96 1106.83Z" fill="white"/>
<path opacity="0.7" d="M1614 1042.71H1276.84L1277.97 1020.62H1615.13L1614 1042.71Z" fill="white"/>
<path opacity="0.7" d="M1606.9 1170.88H1269.74L1270.83 1148.72H1607.99L1606.9 1170.88Z" fill="white"/>
<path d="M1602.27 1502.38H1265.1L1266.23 1480.3H1603.4L1602.27 1502.38Z" fill="#6838F0" fill-opacity="0.84"/>
<path d="M1599.1 1566.18H1261.94L1263.03 1544.02H1600.19L1599.1 1566.18Z" fill="#6838F0" fill-opacity="0.84"/>
<path d="M1595.89 1629.97H1258.73L1259.82 1607.82H1596.98L1595.89 1629.97Z" fill="#6838F0" fill-opacity="0.84"/>
<path d="M1806.13 1640.46H1680.1L1689.96 1472.07H1815.99L1806.13 1640.46Z" fill="#6838F0" fill-opacity="0.84"/>
<path d="M1750.1 1560.74C1742.06 1558.43 1736.2 1555.6 1732.52 1552.25C1728.87 1548.86 1727.05 1544.7 1727.05 1539.75C1727.05 1534.15 1729.28 1529.53 1733.74 1525.88C1738.23 1522.2 1744.06 1520.36 1751.22 1520.36C1756.1 1520.36 1760.45 1521.31 1764.26 1523.2C1768.1 1525.08 1771.06 1527.69 1773.15 1531.01C1775.26 1534.33 1776.32 1537.96 1776.32 1541.9H1766.9C1766.9 1537.6 1765.53 1534.23 1762.79 1531.79C1760.06 1529.32 1756.2 1528.08 1751.22 1528.08C1746.6 1528.08 1742.99 1529.1 1740.38 1531.15C1737.81 1533.17 1736.52 1535.99 1736.52 1539.6C1736.52 1542.5 1737.75 1544.96 1740.19 1546.97C1742.66 1548.96 1746.84 1550.78 1752.74 1552.44C1758.66 1554.1 1763.28 1555.94 1766.6 1557.96C1769.96 1559.95 1772.43 1562.27 1774.02 1564.94C1775.65 1567.61 1776.47 1570.75 1776.47 1574.37C1776.47 1580.13 1774.22 1584.75 1769.73 1588.23C1765.24 1591.69 1759.23 1593.41 1751.71 1593.41C1746.83 1593.41 1742.27 1592.48 1738.04 1590.63C1733.81 1588.74 1730.54 1586.17 1728.22 1582.91C1725.95 1579.66 1724.81 1575.96 1724.81 1571.83H1734.23C1734.23 1576.13 1735.81 1579.53 1738.97 1582.03C1742.16 1584.51 1746.4 1585.74 1751.71 1585.74C1756.66 1585.74 1760.45 1584.74 1763.09 1582.72C1765.72 1580.7 1767.04 1577.95 1767.04 1574.47C1767.04 1570.98 1765.82 1568.3 1763.38 1566.41C1760.94 1564.49 1756.51 1562.6 1750.1 1560.74Z" fill="white"/>
<path opacity="0.7" d="M1814.24 1640.46H1675.98L1686.8 1472.07H1825.05L1814.24 1640.46Z" fill="white"/>
<path opacity="0.7" d="M1599.39 1566.54H1262.22L1263.31 1544.38H1600.47L1599.39 1566.54Z" fill="white"/>
<path opacity="0.7" d="M1602.43 1502.42H1265.27L1266.4 1480.33H1603.56L1602.43 1502.42Z" fill="white"/>
<path opacity="0.7" d="M1595.33 1630.59H1258.17L1259.25 1608.43H1596.42L1595.33 1630.59Z" fill="white"/>
<path d="M1598.06 1734.82H1260.9L1262.03 1712.73H1599.19L1598.06 1734.82Z" fill="#6838F0" fill-opacity="0.84"/>
<path d="M1594.89 1798.61H1257.73L1258.82 1776.46H1595.98L1594.89 1798.61Z" fill="#6838F0" fill-opacity="0.84"/>
<path d="M1591.68 1862.41H1254.52L1255.61 1840.26H1592.77L1591.68 1862.41Z" fill="#6838F0" fill-opacity="0.84"/>
<path d="M1803.12 1872.89H1677.09L1686.95 1704.51H1812.98L1803.12 1872.89Z" fill="#6838F0" fill-opacity="0.84"/>
<path d="M1758.72 1784.78H1727.91V1809.97H1763.7V1817.64H1718.54V1746.54H1763.22V1754.26H1727.91V1777.11H1758.72V1784.78Z" fill="white"/>
<path opacity="0.7" d="M1810.03 1872.89H1671.77L1682.59 1704.51H1820.85L1810.03 1872.89Z" fill="white"/>
<path opacity="0.7" d="M1595.18 1798.97H1258.02L1259.1 1776.82H1596.26L1595.18 1798.97Z" fill="white"/>
<path opacity="0.7" d="M1598.22 1734.85H1261.06L1262.19 1712.77H1599.35L1598.22 1734.85Z" fill="white"/>
<path opacity="0.7" d="M1591.12 1863.02H1253.96L1255.04 1840.87H1592.21L1591.12 1863.02Z" fill="white"/>
<path d="M1589.64 1963.12H1252.48L1253.61 1941.04H1590.77L1589.64 1963.12Z" fill="#6838F0" fill-opacity="0.84"/>
<path d="M1586.48 2026.92H1249.32L1250.4 2004.76H1587.56L1586.48 2026.92Z" fill="#6838F0" fill-opacity="0.84"/>
<path d="M1583.27 2090.72H1246.11L1247.19 2068.56H1584.35L1583.27 2090.72Z" fill="#6838F0" fill-opacity="0.84"/>
<path d="M1795.12 2101.2H1669.08L1678.95 1932.81H1804.98L1795.12 2101.2Z" fill="#6838F0" fill-opacity="0.84"/>
<path d="M1770.21 2033.72C1769.33 2041.24 1766.55 2047.05 1761.86 2051.15C1757.21 2055.22 1751.01 2057.25 1743.26 2057.25C1734.86 2057.25 1728.12 2054.24 1723.05 2048.22C1718 2042.2 1715.48 2034.14 1715.48 2024.05V2017.21C1715.48 2010.6 1716.65 2004.79 1718.99 1999.78C1721.37 1994.77 1724.72 1990.93 1729.05 1988.26C1733.38 1985.56 1738.39 1984.2 1744.09 1984.2C1751.64 1984.2 1757.7 1986.32 1762.25 1990.55C1766.81 1994.75 1769.46 2000.58 1770.21 2008.03H1760.79C1759.98 2002.37 1758.2 1998.27 1755.47 1995.73C1752.77 1993.19 1748.97 1991.92 1744.09 1991.92C1738.1 1991.92 1733.4 1994.13 1729.98 1998.56C1726.59 2002.99 1724.9 2009.29 1724.9 2017.46V2024.34C1724.9 2032.06 1726.51 2038.19 1729.74 2042.75C1732.96 2047.31 1737.47 2049.58 1743.26 2049.58C1748.47 2049.58 1752.46 2048.41 1755.22 2046.07C1758.02 2043.69 1759.88 2039.58 1760.79 2033.72H1770.21Z" fill="white"/>
<path opacity="0.7" d="M1801.61 2101.2H1663.36L1674.17 1932.81H1812.43L1801.61 2101.2Z" fill="white"/>
<path opacity="0.7" d="M1586.76 2027.28H1249.6L1250.69 2005.13H1587.85L1586.76 2027.28Z" fill="white"/>
<path opacity="0.7" d="M1589.8 1963.16H1252.64L1253.77 1941.08H1590.93L1589.8 1963.16Z" fill="white"/>
<path opacity="0.7" d="M1582.71 2091.33H1245.54L1246.63 2069.17H1583.79L1582.71 2091.33Z" fill="white"/>
<path d="M1017.6 1079.87V1227.1C1017.64 1256.13 1006.97 1284.05 987.835 1304.99L857.073 1448.74H931.104L1066.95 1308.25C1077.09 1297.78 1085.14 1285.3 1090.64 1271.54C1096.14 1257.77 1098.99 1242.99 1099.01 1228.06V1079.87H1017.6Z" fill="#6838F0" fill-opacity="0.84"/>
<path opacity="0.4" d="M1099.01 1079.87V1227.9C1099.03 1236.2 1098.14 1244.46 1096.36 1252.55C1091.91 1273.72 1081.69 1293.07 1066.95 1308.25L931.104 1448.74H857.073L987.835 1304.99C1006.97 1284.05 1017.64 1256.13 1017.6 1227.1V1079.87H1099.01Z" fill="white"/>
<path opacity="0.2" d="M1099.01 1079.87V1227.9C1099.03 1236.2 1098.14 1244.46 1096.36 1252.55L1017.6 1219.13V1079.87H1099.01Z" fill="black"/>
<path d="M805.634 1464.78L696.038 1903.46C695.057 1907.46 692.84 1910.99 689.736 1913.52C686.632 1916.05 682.818 1917.42 678.892 1917.42H483.055C481.442 1917.41 479.851 1917.02 478.405 1916.27C476.959 1915.52 475.695 1914.43 474.71 1913.09C473.722 1911.75 473.042 1910.19 472.725 1908.53C472.407 1906.87 472.46 1905.15 472.879 1903.52L582.525 1464.78H561.461L453.188 1898.06C452.002 1902.87 451.876 1907.89 452.82 1912.75C453.763 1917.61 455.752 1922.18 458.633 1926.11C461.515 1930.04 465.213 1933.23 469.446 1935.43C473.678 1937.63 478.333 1938.78 483.055 1938.8H678.892C687.311 1938.79 695.492 1935.86 702.156 1930.45C708.821 1925.05 713.593 1917.47 715.729 1908.92L826.647 1464.78H805.634Z" fill="#6838F0" fill-opacity="0.84"/>
<g opacity="0.4">
<path opacity="0.4" d="M805.634 1464.78L696.038 1903.46C695.057 1907.46 692.84 1910.99 689.736 1913.52C686.632 1916.05 682.818 1917.42 678.892 1917.42H483.055C481.442 1917.41 479.851 1917.02 478.405 1916.27C476.959 1915.52 475.695 1914.43 474.71 1913.09C473.722 1911.75 473.042 1910.19 472.725 1908.53C472.407 1906.87 472.46 1905.15 472.879 1903.52L582.525 1464.78H561.461L453.188 1898.06C452.002 1902.87 451.876 1907.89 452.82 1912.75C453.763 1917.61 455.752 1922.18 458.633 1926.11C461.515 1930.04 465.213 1933.23 469.446 1935.43C473.678 1937.63 478.333 1938.78 483.055 1938.8H678.892C687.311 1938.79 695.492 1935.86 702.156 1930.45C708.821 1925.05 713.593 1917.47 715.729 1908.92L826.647 1464.78H805.634Z" fill="white"/>
</g>
<path d="M850.458 1938.8L730.636 1458.74L710.945 1464.14L829.394 1938.8H850.458Z" fill="#6838F0" fill-opacity="0.84"/>
<path d="M1094.68 1938.8L974.861 1458.74L955.17 1464.14L1073.62 1938.8H1094.68Z" fill="#6838F0" fill-opacity="0.84"/>
<g opacity="0.5">
<path opacity="0.5" d="M850.458 1938.8L730.636 1458.74L710.945 1464.14L829.394 1938.8H850.458Z" fill="white"/>
</g>
<g opacity="0.5">
<path opacity="0.5" d="M1094.68 1938.8L974.861 1458.74L955.17 1464.14L1073.62 1938.8H1094.68Z" fill="white"/>
</g>
<path opacity="0.2" d="M561.46 1464.78H582.524L565.988 1530.91L546.501 1524.65L561.46 1464.78Z" fill="black"/>
<path opacity="0.2" d="M730.636 1458.74L757.857 1567.85L735.012 1560.58L710.945 1464.14L730.636 1458.74Z" fill="black"/>
<path opacity="0.2" d="M805.635 1464.78H826.649L792.152 1603.24L772.614 1596.98L805.635 1464.78Z" fill="black"/>
<path opacity="0.2" d="M1022.94 1652.69L999.995 1645.31L955.17 1465.47L974.861 1459.59L1022.94 1652.69Z" fill="black"/>
<path d="M542.89 1472.1L447.744 930.936L446.472 922.756C445.532 917.701 445.66 912.491 446.847 907.494C448.034 902.496 450.25 897.833 453.341 893.835C456.326 890.079 460.073 887.074 464.308 885.039C468.543 883.003 473.158 881.99 477.814 882.074H683.776C693.551 882.579 702.888 886.49 710.314 893.188C717.739 899.887 722.831 908.992 724.786 919.068L726.312 928.209L821.407 1468.15L801.36 1471.99L705.96 930.455L704.739 922.863C703.68 917.698 701.072 913.026 697.299 909.533C693.526 906.041 688.786 903.911 683.776 903.458H477.611C475.939 903.39 474.274 903.72 472.741 904.423C471.208 905.127 469.846 906.186 468.757 907.521C467.569 909.15 466.735 911.032 466.313 913.037C465.891 915.041 465.892 917.117 466.315 919.121L467.74 928.102L562.936 1468.04L542.89 1472.1Z" fill="#6838F0" fill-opacity="0.84"/>
<g opacity="0.5">
<path opacity="0.5" d="M542.89 1472.1L447.744 930.936L446.472 922.756C445.532 917.701 445.66 912.491 446.847 907.494C448.034 902.496 450.25 897.833 453.341 893.835C456.326 890.079 460.073 887.074 464.308 885.039C468.543 883.003 473.158 881.99 477.814 882.074H683.776C693.551 882.579 702.888 886.49 710.314 893.188C717.739 899.887 722.831 908.992 724.786 919.068L726.312 928.209L821.407 1468.15L801.36 1471.99L705.96 930.455L704.739 922.863C703.68 917.698 701.072 913.026 697.299 909.533C693.526 906.041 688.786 903.911 683.776 903.458H477.611C475.939 903.39 474.274 903.72 472.741 904.423C471.208 905.127 469.846 906.186 468.757 907.521C467.569 909.15 466.735 911.032 466.313 913.037C465.891 915.041 465.892 917.117 466.315 919.121L467.74 928.102L562.936 1468.04L542.89 1472.1Z" fill="white"/>
</g>
<path d="M584.508 1418.43H975.928C982.675 1418.43 989.146 1421.25 993.917 1426.26C998.688 1431.27 1001.37 1438.07 1001.37 1445.16V1480.82H559.068V1445.05C559.095 1437.98 561.787 1431.21 566.555 1426.22C571.323 1421.23 577.779 1418.43 584.508 1418.43Z" fill="#6838F0" fill-opacity="0.84"/>
<path d="M1007.48 1449.7H552.964C547.316 1449.7 542.737 1454.51 542.737 1460.45V1470.18C542.737 1476.11 547.316 1480.92 552.964 1480.92H1007.48C1013.12 1480.92 1017.7 1476.11 1017.7 1470.18V1460.45C1017.7 1454.51 1013.12 1449.7 1007.48 1449.7Z" fill="#6838F0" fill-opacity="0.84"/>
<path opacity="0.6" d="M1007.48 1449.7H552.964C547.316 1449.7 542.737 1454.51 542.737 1460.45V1470.18C542.737 1476.11 547.316 1480.92 552.964 1480.92H1007.48C1013.12 1480.92 1017.7 1476.11 1017.7 1470.18V1460.45C1017.7 1454.51 1013.12 1449.7 1007.48 1449.7Z" fill="white"/>
<path d="M754.703 1149.37H496.08L457.513 930.188H716.085L754.347 1147.34L754.703 1149.37Z" fill="#6838F0" fill-opacity="0.84"/>
<path d="M1009.1 682.297C1009.1 682.297 976.591 602.964 973.793 594.464C970.994 585.964 974.302 543.036 971.809 535.659C969.315 528.282 931.562 522.989 923.574 523.952C915.586 524.914 922.608 591.31 925.915 596.549C930.227 601.939 935.09 606.815 940.416 611.09L969.163 701.97L1009.1 682.297Z" fill="#B97964"/>
<path d="M844.608 832.035C866.791 835.724 957.612 849.516 977.913 835.296C994.297 823.803 948.149 637.498 948.149 637.498L989.209 619.91C989.209 619.91 1086.75 845.614 1034.64 897.148C1008.19 923.343 933.8 929.972 826.8 929.972L844.608 832.035Z" fill="#6838F0" fill-opacity="0.84"/>
<path opacity="0.8" d="M844.608 832.035C866.791 835.724 957.612 849.516 977.913 835.296C994.297 823.803 948.149 637.498 948.149 637.498L989.209 619.91C989.209 619.91 1086.75 845.614 1034.64 897.148C1008.19 923.343 933.8 929.972 826.8 929.972L844.608 832.035Z" fill="white"/>
<path opacity="0.1" d="M882.209 929.438C866.436 929.919 849.595 930.133 831.889 930.133L847.153 868.709C863.691 885.383 875.779 906.323 882.209 929.438Z" fill="black"/>
<path d="M972.674 962.209L1080.34 1081.85" stroke="#2E353A" stroke-width="2" stroke-miterlimit="10"/>
<path d="M895.489 1032.67C895.489 1032.67 977.66 1029.99 986.208 1029.09C994.756 1028.18 1030.32 1006.79 1037.95 1005.94C1045.59 1005.08 1065.94 1038.87 1068.48 1046.89C1071.03 1054.91 1010.83 1076.29 1004.88 1075.43C998.412 1073.58 992.152 1071 986.208 1067.74L895.489 1078.96V1032.67Z" fill="#B97964"/>
<path d="M847.153 1896.89L887.705 1891.06L893.302 1789.81L852.852 1795.69L847.153 1896.89Z" fill="#B97964"/>
<path d="M890.758 1885.93L844.966 1882.88C844.202 1882.82 843.443 1883.07 842.847 1883.57C842.251 1884.08 841.863 1884.81 841.761 1885.61L837.283 1923.56C837.158 1925.55 837.789 1927.52 839.038 1929.02C840.288 1930.52 842.054 1931.44 843.949 1931.58C859.925 1932.38 867.608 1931.9 887.756 1933.08C900.171 1933.83 924.543 1936.61 941.587 1934.84C958.632 1933.08 956.546 1915.44 949.219 1914.58C931.717 1912.5 908.515 1899.02 897.627 1888.76C895.7 1887.04 893.284 1886.05 890.758 1885.93Z" fill="#2E353A"/>
<path d="M904.8 1894.16C901.139 1893.81 897.524 1893.06 894.014 1891.91C893.835 1891.87 893.672 1891.77 893.546 1891.62C893.42 1891.48 893.335 1891.3 893.302 1891.11C893.291 1890.92 893.328 1890.72 893.408 1890.54C893.488 1890.37 893.609 1890.21 893.759 1890.1C895.133 1889.24 907.192 1881.7 912.076 1884.06C912.623 1884.34 913.092 1884.76 913.439 1885.28C913.786 1885.81 914 1886.41 914.061 1887.05C914.306 1888 914.298 1889 914.037 1889.94C913.777 1890.88 913.275 1891.73 912.585 1892.4C910.291 1893.99 907.514 1894.62 904.8 1894.16ZM911.262 1886.09C908.667 1884.8 901.646 1887.96 896.71 1890.79C903.935 1892.77 909.278 1892.88 911.364 1891.06C911.782 1890.6 912.081 1890.03 912.233 1889.41C912.384 1888.8 912.383 1888.15 912.229 1887.53C912.208 1887.22 912.107 1886.92 911.936 1886.67C911.766 1886.41 911.533 1886.21 911.262 1886.09Z" fill="#6838F0" fill-opacity="0.84"/>
<path d="M894.216 1891.91C894.084 1891.96 893.94 1891.96 893.809 1891.91C893.55 1891.72 893.369 1891.44 893.3 1891.11C893.3 1890.74 893.3 1878.18 897.472 1874.27C898.047 1873.78 898.719 1873.42 899.439 1873.23C900.16 1873.03 900.913 1873.01 901.644 1873.15C902.45 1873.22 903.21 1873.58 903.8 1874.16C904.391 1874.74 904.778 1875.52 904.9 1876.36C905.562 1881.12 898.947 1889.67 894.724 1891.91C894.645 1891.95 894.558 1891.97 894.47 1891.97C894.382 1891.97 894.295 1891.95 894.216 1891.91ZM900.83 1875.24C900.448 1875.21 900.064 1875.26 899.705 1875.4C899.345 1875.54 899.017 1875.76 898.744 1876.04C896.098 1878.34 895.437 1885.39 895.284 1889.4C899.232 1886.37 901.983 1881.92 903.018 1876.89C903.018 1876.3 902.662 1875.56 901.288 1875.29L900.83 1875.24Z" fill="#6838F0" fill-opacity="0.84"/>
<path opacity="0.2" d="M852.852 1795.69L893.301 1789.86L890.096 1847.7L849.697 1851.45L852.852 1795.69Z" fill="black"/>
<path d="M848.782 1301.78L838.911 1236.67L611.681 1222.39C611.681 1222.39 587.513 1357.86 606.084 1393.94C639.207 1458.36 817.847 1426.02 870.1 1432.17C838.86 1566.4 841.913 1828.73 841.913 1828.73L916.554 1834.71C916.554 1834.71 973.997 1552.08 985.598 1417.73C993.434 1327.12 921.947 1329.37 848.782 1301.78Z" fill="#2E353A"/>
<path d="M833.16 1832.41L922.862 1838.62L930.545 1798.25L831.99 1793.44L833.16 1832.41Z" fill="#6838F0" fill-opacity="0.84"/>
<path d="M940.67 1859.09L981.476 1862.24L1007.02 1764.47L966.263 1761.37L940.67 1859.09Z" fill="#B97964"/>
<path d="M985.496 1857.86L941.281 1844.92C940.552 1844.67 939.758 1844.73 939.071 1845.09C938.384 1845.45 937.862 1846.08 937.618 1846.85L925.712 1882.99C925.458 1883.95 925.388 1884.96 925.506 1885.95C925.625 1886.95 925.929 1887.91 926.402 1888.78C926.875 1889.65 927.507 1890.41 928.262 1891.02C929.017 1891.63 929.879 1892.08 930.8 1892.34C946.064 1896.57 953.849 1897.69 973.336 1903.35C985.292 1906.83 1008.6 1914.85 1025.64 1916.88C1042.68 1918.91 1044.11 1901.16 1037.09 1898.76C1020.4 1892.88 1000.45 1874.59 991.754 1862.19C990.195 1860.05 987.988 1858.52 985.496 1857.86Z" fill="#2E353A"/>
<path d="M997.606 1869.03C994.058 1867.92 990.643 1866.37 987.43 1864.44C987.261 1864.37 987.119 1864.24 987.026 1864.07C986.934 1863.91 986.897 1863.72 986.921 1863.53C986.934 1863.33 986.997 1863.14 987.105 1862.98C987.213 1862.82 987.36 1862.7 987.532 1862.62C989.007 1862.08 1002.34 1857.27 1006.61 1860.75C1007.11 1861.13 1007.5 1861.64 1007.75 1862.24C1008 1862.83 1008.1 1863.47 1008.04 1864.12C1008.1 1865.13 1007.89 1866.13 1007.43 1867.02C1006.97 1867.91 1006.28 1868.65 1005.44 1869.14C1002.91 1870.13 1000.11 1870.1 997.606 1869.03ZM1005.49 1862.51C1003.2 1860.69 995.723 1862.51 990.228 1863.96C996.894 1867.48 1002.13 1868.77 1004.47 1867.43C1004.98 1867.08 1005.4 1866.59 1005.68 1866.02C1005.95 1865.45 1006.08 1864.81 1006.05 1864.17C1006.11 1863.86 1006.07 1863.53 1005.95 1863.24C1005.84 1862.94 1005.64 1862.69 1005.39 1862.51H1005.49Z" fill="#6838F0" fill-opacity="0.84"/>
<path d="M987.682 1864.54H987.072C986.953 1864.43 986.863 1864.29 986.81 1864.13C986.757 1863.97 986.742 1863.8 986.766 1863.63C986.766 1863.26 989.158 1850.97 994.144 1848.08C994.814 1847.75 995.543 1847.58 996.281 1847.58C997.019 1847.58 997.748 1847.75 998.418 1848.08C999.2 1848.34 999.878 1848.86 1000.35 1849.57C1000.82 1850.27 1001.05 1851.12 1001.01 1851.98C1000.66 1856.74 992.516 1863.69 987.937 1864.97C987.807 1864.86 987.717 1864.71 987.682 1864.54ZM997.248 1849.68C996.882 1849.57 996.498 1849.55 996.122 1849.6C995.745 1849.66 995.384 1849.79 995.06 1850C992.007 1851.71 989.972 1858.45 989.005 1862.35C993.177 1860.32 998.672 1854.92 999.181 1851.66C999.181 1851.07 999.181 1850.32 997.807 1849.79L997.248 1849.68Z" fill="#6838F0" fill-opacity="0.84"/>
<path opacity="0.2" d="M966.262 1761.37L1007.02 1764.52L992.414 1820.39L952.117 1815.2L966.262 1761.37Z" fill="black"/>
<path d="M1020.86 1813.49L949.015 1791.31C949.015 1791.31 992.161 1536.95 1035.41 1448.74C1032.15 1447.62 1027.83 1446.17 1022.49 1444.52C1012.87 1441.47 1000.1 1437.67 985.089 1433.29C880.683 1402.87 669.073 1345.83 669.073 1345.83L765.745 1251.05C765.745 1251.05 1150.81 1312.74 1158.79 1419.34C1162.61 1470.6 1020.86 1813.49 1020.86 1813.49Z" fill="#2E353A"/>
<path d="M939.754 1792.96L1026.25 1818.68L1041.77 1780.88L946.317 1754.58L939.754 1792.96Z" fill="#6838F0" fill-opacity="0.84"/>
<path opacity="0.2" d="M1022.69 1444.52C1013.07 1441.47 1000.3 1437.67 985.292 1433.29C988.294 1407.41 988.345 1377.75 976.49 1362.62C952.933 1332.47 892.335 1314.77 857.838 1308.36C828.989 1303.01 732.062 1292.32 732.062 1292.32C732.062 1292.32 857.838 1279.65 986.462 1319.05C1049.76 1338.61 1037.39 1403.89 1022.69 1444.52Z" fill="black"/>
<path d="M844.608 832.036C844.608 832.036 877.578 960.337 839.062 1236.67C767.271 1235.06 646.634 1232.12 611.68 1231.32C610.815 1192.83 637.832 1004.23 606.235 822.306C628.988 818.183 651.995 815.789 675.076 815.143C708.857 813.876 742.68 814.644 776.378 817.441C799.445 820.455 822.256 825.334 844.608 832.036Z" fill="#6838F0" fill-opacity="0.84"/>
<path opacity="0.7" d="M844.608 832.036C844.608 832.036 877.578 960.337 839.062 1236.67C767.271 1235.06 646.634 1232.12 611.68 1231.32C610.815 1192.83 637.832 1004.23 606.235 822.306C628.988 818.183 651.995 815.789 675.076 815.143C708.857 813.876 742.68 814.644 776.378 817.441C799.445 820.455 822.256 825.334 844.608 832.036Z" fill="white"/>
<path opacity="0.1" d="M686.016 1056.72C665.664 1052.02 641.394 1031.44 621.398 1011.12C621.398 974.985 619.719 936.548 616.005 897.363C644.294 941.359 720.919 1064.8 686.016 1056.72Z" fill="black"/>
<path d="M606.083 822.307C528.287 851.763 664.849 1073.08 707.232 1095.91C749.615 1118.74 965.041 1070.94 965.041 1070.94L956.544 1025.18C956.544 1025.18 765.948 1030.26 748.394 1025.61C730.841 1020.96 689.119 926.605 665.104 882.074C651.754 856.244 631.142 835.372 606.083 822.307Z" fill="#6838F0" fill-opacity="0.84"/>
<path opacity="0.8" d="M606.083 822.307C528.287 851.763 664.849 1073.08 707.232 1095.91C749.615 1118.74 965.041 1070.94 965.041 1070.94L956.544 1025.18C956.544 1025.18 765.948 1030.26 748.394 1025.61C730.841 1020.96 689.119 926.605 665.104 882.074C651.754 856.244 631.142 835.372 606.083 822.307Z" fill="white"/>
<path d="M941.279 1021.07L952.32 1081.85L972.672 1074.53L965.04 1021.07H941.279Z" fill="#6838F0" fill-opacity="0.84"/>
<path opacity="0.7" d="M941.279 1021.07L952.32 1081.85L972.672 1074.53L965.04 1021.07H941.279Z" fill="white"/>
<path d="M946.774 651.023L1001.52 628.25L990.887 608.63L942.297 626.486L946.774 651.023Z" fill="#6838F0" fill-opacity="0.84"/>
<path opacity="0.7" d="M946.774 651.023L1001.52 628.25L990.887 608.63L942.297 626.486L946.774 651.023Z" fill="white"/>
<path opacity="0.1" d="M662.662 815.678C662.662 815.678 664.138 840.643 710.795 864.699L743.052 840.162C743.052 840.162 752.262 902.816 758.316 949.592C758.316 949.592 757.909 874.75 751.804 845.989L776.481 855.184C776.481 855.184 755.467 817.281 719.699 808.568C683.93 799.854 662.662 815.678 662.662 815.678Z" fill="black"/>
<path d="M687.39 695.822C693.089 730.197 698.177 793.064 674.925 815.41L742.85 835.297L776.023 817.709C739.848 807.766 741.374 779.432 748.243 752.97L687.39 695.822Z" fill="#B97964"/>
<path opacity="0.2" d="M712.322 719.131L748.447 752.97C746.775 759.128 745.6 765.423 744.936 771.788C731.097 769.382 712.373 752.917 711.203 737.628C710.48 731.442 710.86 725.17 712.322 719.131Z" fill="black"/>
<path d="M735.574 600.291C720.768 617.184 733.539 636.483 780.806 659.951C792.051 633.917 785.182 590.455 769.918 582.863C754.654 575.272 748.497 585.643 735.574 600.291Z" fill="#2E353A"/>
<path d="M667.546 653.43C679.553 698.175 684.438 724.958 710.997 743.294C750.989 770.826 799.986 737.949 800.953 690.317C801.767 647.549 782.026 581.527 736.081 573.134C725.969 571.236 715.563 572.082 705.85 575.591C696.136 579.1 687.435 585.157 680.572 593.187C673.709 601.217 668.91 610.955 666.631 621.479C664.351 632.002 664.666 642.963 667.546 653.323V653.43Z" fill="#B97964"/>
<path d="M734.555 651.183C735.318 654.872 737.812 657.438 740.101 656.904C742.391 656.369 743.612 653.001 742.849 649.312C742.085 645.624 739.643 643.058 737.354 643.539C735.064 644.02 734.046 647.495 734.555 651.183Z" fill="#2E353A"/>
<path d="M774.496 642.149C775.259 645.838 777.753 648.404 780.042 647.869C782.332 647.335 783.604 643.967 782.841 640.225C782.077 636.482 779.584 633.97 777.295 634.505C775.005 635.039 773.733 638.46 774.496 642.149Z" fill="#2E353A"/>
<path d="M761.827 646.854C768.328 657.197 776.171 666.535 785.13 674.599C783.096 676.946 780.599 678.798 777.813 680.026C775.027 681.254 772.02 681.828 769.001 681.709L761.827 646.854Z" fill="#A24E3F"/>
<path d="M720.921 640.439C720.543 640.587 720.131 640.611 719.74 640.507C719.349 640.403 718.997 640.176 718.731 639.857C718.466 639.537 718.3 639.141 718.255 638.719C718.209 638.298 718.288 637.872 718.479 637.499C719.81 634.262 721.865 631.41 724.469 629.186C727.073 626.962 730.15 625.43 733.437 624.722C733.969 624.627 734.515 624.752 734.961 625.071C735.407 625.39 735.718 625.878 735.829 626.433C735.889 627.01 735.739 627.591 735.409 628.057C735.078 628.523 734.592 628.841 734.048 628.945C731.465 629.547 729.056 630.787 727.021 632.563C724.986 634.339 723.383 636.599 722.346 639.156C722.224 639.474 722.03 639.757 721.782 639.98C721.535 640.204 721.239 640.361 720.921 640.439Z" fill="#2E353A"/>
<path d="M789.76 623.867C789.368 623.971 788.956 623.95 788.575 623.808C788.195 623.665 787.863 623.406 787.623 623.065C786.044 620.831 783.987 619.019 781.618 617.775C779.25 616.53 776.636 615.889 773.987 615.901C773.428 615.946 772.875 615.758 772.447 615.378C772.019 614.998 771.75 614.456 771.698 613.87C771.667 613.294 771.844 612.727 772.192 612.281C772.541 611.835 773.036 611.544 773.58 611.464C776.936 611.384 780.261 612.147 783.279 613.691C786.297 615.235 788.921 617.514 790.93 620.338C791.103 620.566 791.23 620.827 791.306 621.106C791.381 621.386 791.403 621.678 791.37 621.967C791.337 622.255 791.249 622.534 791.113 622.787C790.976 623.04 790.793 623.261 790.574 623.439C790.343 623.653 790.062 623.801 789.76 623.867Z" fill="#2E353A"/>
<path d="M676.704 609.433C698.379 612.106 700.618 635.521 679.248 685.612C654.572 673.53 632.846 635.788 639.816 619.643C646.787 603.499 657.523 607.027 676.704 609.433Z" fill="#2E353A"/>
<path d="M654.471 694.379C657.077 699.486 660.616 704.003 664.885 707.672C669.154 711.341 674.07 714.09 679.351 715.762C693.495 720.092 700.72 706.835 696.955 692.721C693.546 679.998 682.047 662.41 667.801 664.281C653.555 666.152 648.06 681.709 654.471 694.379Z" fill="#B97964"/>
<path d="M641.496 615.794C641.496 615.794 630.76 601.253 651.672 572.172C672.583 543.09 723.667 534.162 762.844 542.181C802.022 550.2 778.719 595.64 764.727 603.178L766.457 596.068C751.481 604.277 734.991 608.982 718.121 609.86L725.855 602.323C725.855 602.323 664.392 619.055 641.496 615.794Z" fill="#2E353A"/>
<path d="M766.406 694.005C765.518 699.5 765.025 705.057 764.93 710.63L762.183 711.058C749.564 712.822 743.204 709.24 739.948 704.803C738.401 702.571 737.373 699.99 736.946 697.266C736.737 695.723 736.737 694.157 736.946 692.615C745.195 695.175 753.873 695.831 762.386 694.539C764.727 694.325 766.406 694.005 766.406 694.005Z" fill="#2E353A"/>
<path d="M762.081 694.539L761.521 699.457C749.717 701.061 741.169 700.527 736.946 697.266C736.737 695.723 736.737 694.157 736.946 692.615C745.099 695.129 753.668 695.785 762.081 694.539Z" fill="white"/>
<path d="M762.183 711.005C749.565 712.769 743.205 709.187 739.948 704.75C744.731 704.18 749.571 704.506 754.246 705.712C757.355 706.555 760.133 708.407 762.183 711.005Z" fill="#A24E3F"/>
<path d="M686.881 794.294C686.881 794.294 723.617 823.269 742.849 829.951C742.849 829.951 751.906 812.096 748.192 797.341L776.023 817.709C779.152 829.966 779.152 842.873 776.023 855.13L742.849 835.297L711.507 859.353C711.507 859.353 665.156 845.24 662.459 815.677L686.881 794.294Z" fill="#6838F0" fill-opacity="0.84"/>
<path opacity="0.8" d="M686.881 794.294C686.881 794.294 723.617 823.269 742.849 829.951C742.849 829.951 751.906 812.096 748.192 797.341L776.023 817.709C779.152 829.966 779.152 842.873 776.023 855.13L742.849 835.297L711.507 859.353C711.507 859.353 665.156 845.24 662.459 815.677L686.881 794.294Z" fill="white"/>
<path d="M1293.22 1068.49H786.097C782.809 1068.49 780.144 1071.29 780.144 1074.74V1090.4C780.144 1093.86 782.809 1096.66 786.097 1096.66H1293.22C1296.51 1096.66 1299.17 1093.86 1299.17 1090.4V1074.74C1299.17 1071.29 1296.51 1068.49 1293.22 1068.49Z" fill="#6838F0" fill-opacity="0.84"/>
<path opacity="0.5" d="M1297.44 1073.99V1089.65C1297.44 1093.13 1296.53 1095.91 1293.27 1095.91H786.097C782.79 1095.91 778.465 1093.13 778.465 1089.65V1073.99C778.465 1070.57 782.79 1069.18 786.097 1069.18H1293.27C1296.53 1069.18 1297.44 1070.57 1297.44 1073.99Z" fill="white"/>
<path opacity="0.2" d="M992.161 1073.99V1089.65C992.161 1093.13 991.041 1095.91 987.785 1095.91H786.097C782.79 1095.91 778.465 1093.13 778.465 1089.65V1073.99C778.465 1070.57 782.79 1069.18 786.097 1069.18H987.785C991.041 1069.18 992.161 1070.57 992.161 1073.99Z" fill="black"/>
<path d="M876.969 289.374C872.585 272.682 864.24 257.433 852.714 245.056C841.188 232.679 826.86 223.579 811.073 218.61C795.286 213.641 778.556 212.965 762.452 216.646C746.348 220.327 731.398 228.244 719.002 239.655C706.606 251.065 697.17 265.596 691.58 281.886C685.989 298.175 684.427 315.689 687.039 332.786C689.651 349.883 696.352 366.003 706.514 379.635C716.676 393.267 729.967 403.965 745.139 410.726C751.66 413.537 756.918 418.85 759.843 425.588L763.151 433.446L856.821 406.717L855.854 398.163C855.181 390.748 857.157 383.335 861.4 377.368C870.13 364.877 876.064 350.477 878.76 335.241C881.456 320.006 880.844 304.327 876.969 289.374Z" fill="#6838F0" fill-opacity="0.84"/>
<path d="M793.728 433.66C793.728 433.66 779.634 387.204 754.754 366.622L768.542 362.666L769.611 340.374L792.151 374.641L790.319 332.943L812.554 370.952L814.792 349.569L834.483 344.223C823.711 369.645 821.784 398.236 829.039 424.999" stroke="white" stroke-linecap="round" stroke-linejoin="round"/>
<path d="M811.435 425.854C794.849 430.612 785.588 450.659 790.778 470.599C795.968 490.54 813.572 502.675 830.159 498.077C846.746 493.48 855.955 473.326 850.817 453.386C845.678 433.445 828.022 421.15 811.435 425.854Z" fill="#2E353A"/>
<path d="M843.386 479.742L810.009 489.311C802.035 491.59 793.537 490.621 786.215 486.596C778.894 482.571 773.29 475.788 770.526 467.606L759.587 435.157C759.368 434.516 759.278 433.834 759.323 433.154C759.368 432.475 759.547 431.812 759.848 431.209C760.149 430.606 760.567 430.075 761.073 429.651C761.58 429.226 762.165 428.916 762.792 428.742L854.783 402.386C855.409 402.205 856.064 402.161 856.706 402.26C857.349 402.358 857.965 402.596 858.515 402.958C859.065 403.32 859.538 403.798 859.903 404.363C860.268 404.927 860.517 405.565 860.634 406.235L866.893 439.968C868.469 448.49 866.923 457.324 862.564 464.699C858.205 472.075 851.355 477.448 843.386 479.742Z" fill="#6838F0" fill-opacity="0.84"/>
<path opacity="0.4" d="M843.386 479.742L810.009 489.311C802.035 491.59 793.537 490.621 786.215 486.596C778.894 482.571 773.29 475.788 770.526 467.606L759.587 435.157C759.368 434.516 759.278 433.834 759.323 433.154C759.368 432.475 759.547 431.812 759.848 431.209C760.149 430.606 760.567 430.075 761.073 429.651C761.58 429.226 762.165 428.916 762.792 428.742L854.783 402.386C855.409 402.205 856.064 402.161 856.706 402.26C857.349 402.358 857.965 402.596 858.515 402.958C859.065 403.32 859.538 403.798 859.903 404.363C860.268 404.927 860.517 405.565 860.634 406.235L866.893 439.968C868.469 448.49 866.923 457.324 862.564 464.699C858.205 472.075 851.355 477.448 843.386 479.742Z" fill="white"/>
<path d="M653.197 391.587C644.082 389.828 634.837 388.915 625.569 388.861C620.961 388.832 616.357 389.1 611.78 389.663C609.491 390.037 607.201 390.304 605.013 390.892C603.894 391.213 602.775 391.374 601.706 391.801L598.501 392.87L594.837 394.1L597.025 390.732C603.196 381.133 608.108 370.703 611.628 359.726C613.377 354.281 614.655 348.68 615.444 342.993C615.833 340.176 616.07 337.338 616.156 334.493C616.309 331.662 616.309 328.824 616.156 325.993C615.962 323.19 615.588 320.404 615.037 317.654L614.07 313.591L612.798 309.581C611.895 306.96 610.789 304.421 609.491 301.99C608.24 299.538 606.829 297.18 605.268 294.933C603.694 292.691 601.995 290.549 600.18 288.518L597.381 285.525L594.329 282.745C592.344 280.82 590.004 279.323 587.918 277.399C585.832 275.474 583.339 274.405 581.049 272.855L575.961 269.327L581.609 266.493C584.305 265.103 587.155 263.446 589.851 261.735C592.548 260.025 595.244 258.261 597.89 256.389C603.134 252.634 608.116 248.489 612.798 243.987C615.088 241.742 617.326 239.443 619.514 237.037C621.702 234.632 623.686 232.066 625.569 229.5C627.451 226.934 629.283 224.154 630.657 221.427C632.3 218.694 633.779 215.855 635.084 212.927C636.428 210.019 637.584 207.018 638.543 203.946L639.866 199.349L640.833 194.591C641.401 191.451 641.741 188.269 641.851 185.075C642.121 178.63 641.573 172.176 640.222 165.883L639.205 161.125L637.78 156.475C636.915 153.32 635.541 150.38 634.422 147.333C633.303 144.286 631.675 141.453 630.301 138.459L623.025 122.421L636.966 131.83C639.408 133.541 642.054 135.198 644.954 136.748C647.854 138.298 650.551 139.795 653.4 141.132C659.074 143.916 664.922 146.292 670.903 148.242C673.905 149.151 676.907 150.006 679.909 150.701C682.912 151.421 685.953 151.957 689.016 152.305C692.036 152.712 695.079 152.908 698.124 152.893C701.135 152.869 704.143 152.655 707.13 152.251L711.505 151.449L715.83 150.22C718.623 149.256 721.344 148.077 723.971 146.692C725.281 146.03 726.54 145.261 727.736 144.393C729.012 143.614 730.22 142.719 731.348 141.72C733.683 139.81 735.893 137.739 737.963 135.519C739.998 133.211 741.884 130.765 743.611 128.195C745.405 125.611 747.02 122.896 748.444 120.069C750.021 117.343 751.09 114.242 752.464 111.355C753.837 108.468 754.651 105.261 755.771 102.214L762.131 84.679L765.285 102.962C765.818 105.952 766.549 108.9 767.473 111.783C770.156 120.723 774.249 129.126 779.583 136.641C783.099 141.548 787.262 145.904 791.947 149.578C794.255 151.427 796.706 153.072 799.273 154.497C801.839 155.961 804.51 157.212 807.261 158.239C810.022 159.252 812.844 160.073 815.708 160.698C818.614 161.312 821.554 161.741 824.51 161.981C827.476 162.141 830.448 162.141 833.414 161.981C836.416 161.981 839.418 161.553 842.42 161.286C845.421 161.019 848.423 160.27 851.374 159.789L860.278 157.544L869.081 154.764L877.781 151.503L889.84 146.959L882.92 158.239C881.648 160.217 880.376 162.622 879.206 164.921C878.036 167.22 876.967 169.572 875.949 172.031C873.948 176.825 872.364 181.799 871.218 186.893C870.08 191.919 869.516 197.069 869.539 202.235C869.593 207.299 870.435 212.319 872.032 217.097L873.405 220.625L875.135 224.528C876.38 226.696 877.792 228.752 879.358 230.676C880.929 232.585 882.629 234.372 884.446 236.022C886.33 237.742 888.319 239.331 890.399 240.779C892.462 242.258 894.603 243.615 896.81 244.842C898.998 246.125 901.339 247.088 903.628 248.264L910.751 251.097L918.078 253.503L923.166 255.213L918.892 258.688C916.014 261.036 913.31 263.609 910.802 266.386C908.269 269.17 905.923 272.135 903.781 275.26C902.611 276.811 901.695 278.468 900.677 280.072C899.697 281.687 898.813 283.366 898.031 285.097C897.138 286.807 896.388 288.595 895.793 290.443C895.087 292.17 894.525 293.959 894.114 295.789C893.757 297.66 893.147 299.477 892.943 301.135L892.435 306.855C892.435 308.779 892.435 310.704 892.74 312.628C892.842 314.547 893.149 316.448 893.656 318.295C893.989 320.115 894.465 321.904 895.08 323.641L897.166 328.987C897.867 330.852 898.736 332.642 899.761 334.333L902.611 339.679L903.679 341.55H901.695C894.17 341.571 886.68 342.613 879.409 344.65C875.768 345.664 872.251 347.117 868.928 348.981C868.102 349.446 867.303 349.964 866.537 350.531C865.71 351.022 864.941 351.614 864.247 352.295C863.489 352.878 862.775 353.522 862.11 354.22L860.126 356.411L862.008 354.113C862.624 353.353 863.305 352.655 864.044 352.028C864.733 351.316 865.482 350.672 866.282 350.103C867.045 349.569 867.809 348.927 868.623 348.446C871.913 346.374 875.411 344.688 879.053 343.421C886.378 340.921 893.998 339.499 901.695 339.198L900.83 341.069L897.675 335.723C896.53 334.045 895.542 332.254 894.724 330.377L892.333 325.031C891.574 323.135 890.994 321.166 890.603 319.15C889.968 317.195 889.558 315.167 889.382 313.11C889.382 311.078 888.924 308.993 888.873 306.962V300.707C888.873 298.676 889.585 296.644 889.891 294.613C890.278 292.574 890.822 290.571 891.519 288.625C892.075 286.633 892.808 284.7 893.707 282.852C894.472 281.009 895.356 279.223 896.352 277.506C897.278 275.668 898.297 273.883 899.405 272.16C901.6 268.75 904.031 265.516 906.681 262.484C909.334 259.388 912.208 256.511 915.28 253.877L916.246 259.223L908.564 256.924L900.982 254.091C898.489 252.968 895.894 251.952 893.554 250.616C891.115 249.365 888.752 247.955 886.482 246.393C884.155 244.858 881.928 243.161 879.816 241.314C877.725 239.456 875.785 237.417 874.016 235.22C872.119 233.016 870.416 230.637 868.928 228.11L866.842 224.261L865.163 220.144C863.204 214.702 862.104 208.959 861.907 203.144C861.706 197.311 862.201 191.474 863.382 185.77C864.512 180.162 866.112 174.67 868.165 169.358C869.182 166.685 870.302 164.012 871.523 161.553C872.744 159.094 874.016 156.528 875.593 153.908L880.681 160.644L871.625 164.119L862.415 167.113C859.261 168.022 856.106 168.77 852.952 169.572C849.797 170.374 846.592 170.855 843.335 171.229C840.079 171.702 836.801 171.988 833.516 172.085C830.126 172.281 826.729 172.281 823.34 172.085C820.026 171.832 816.729 171.368 813.469 170.695C810.179 170 806.933 169.089 803.751 167.968C800.577 166.781 797.483 165.37 794.491 163.745C791.483 162.104 788.607 160.209 785.892 158.078C780.467 153.88 775.636 148.894 771.544 143.27C767.481 137.731 764.065 131.701 761.368 125.308C759.993 122.138 758.787 118.889 757.755 115.578C756.657 112.204 755.773 108.758 755.109 105.261L764.624 106.009C763.454 109.324 762.385 112.692 761.113 115.953C759.809 119.253 758.349 122.482 756.738 125.629C755.253 128.835 753.553 131.926 751.65 134.877C749.655 137.872 747.48 140.729 745.137 143.431C742.708 146.096 740.089 148.562 737.301 150.808C735.928 151.969 734.465 153.006 732.926 153.908C731.458 154.937 729.928 155.866 728.347 156.688C725.181 158.343 721.898 159.737 718.527 160.858L713.439 162.195L708.351 163.157C704.976 163.608 701.576 163.804 698.175 163.745C694.772 163.752 691.372 163.52 687.999 163.05C684.577 162.623 681.179 161.999 677.823 161.179C674.516 160.431 671.259 159.468 668.054 158.399C661.68 156.303 655.456 153.73 649.432 150.701C646.379 149.258 643.428 147.654 640.528 145.997C637.628 144.339 634.778 142.575 631.776 140.651L638.442 134.289C639.917 137.497 641.494 140.597 642.817 143.912C644.179 147.179 645.385 150.515 646.43 153.908L647.956 159.254L649.076 164.6C649.76 168.134 650.27 171.703 650.602 175.292C650.8 178.853 650.8 182.423 650.602 185.984C650.447 189.575 650.039 193.148 649.381 196.676L648.261 202.022L646.735 207.368C645.623 210.805 644.298 214.163 642.766 217.418C641.282 220.658 639.581 223.784 637.678 226.773C635.816 229.695 633.812 232.514 631.675 235.22C629.487 238 627.248 240.566 624.908 243.185C622.567 245.805 620.074 248.103 617.581 250.456C612.507 255.042 607.153 259.274 601.554 263.125C598.738 265.05 595.889 266.832 593.006 268.471C590.055 270.182 587.155 271.786 583.949 273.283L584.305 266.921C586.697 268.632 589.393 270.182 591.53 271.946C593.667 273.71 596.211 275.528 598.297 277.666L601.554 280.767L604.556 284.081C606.513 286.36 608.347 288.751 610.051 291.245C611.734 293.786 613.247 296.448 614.579 299.21C615.93 301.932 617.087 304.755 618.039 307.657L619.311 312.094L620.227 316.584C620.766 319.603 621.106 322.658 621.244 325.726C621.605 337.84 619.597 349.903 615.342 361.169C611.288 372.327 605.829 382.863 599.111 392.496L597.636 390.358L601.045 389.342C602.215 388.968 603.385 388.807 604.556 388.54C606.845 388.006 609.186 387.845 611.526 387.524C616.203 387.231 620.892 387.231 625.569 387.524C634.872 388.043 644.116 389.402 653.197 391.587Z" fill="#6838F0" fill-opacity="0.84"/>
<path opacity="0.7" d="M653.197 391.587C644.082 389.828 634.837 388.915 625.569 388.861C620.961 388.832 616.357 389.1 611.78 389.663C609.491 390.037 607.201 390.304 605.013 390.892C603.894 391.213 602.775 391.374 601.706 391.801L598.501 392.87L594.837 394.1L597.025 390.732C603.196 381.133 608.108 370.703 611.628 359.726C613.377 354.281 614.655 348.68 615.444 342.993C615.833 340.176 616.07 337.338 616.156 334.493C616.309 331.662 616.309 328.824 616.156 325.993C615.962 323.19 615.588 320.404 615.037 317.654L614.07 313.591L612.798 309.581C611.895 306.96 610.789 304.421 609.491 301.99C608.24 299.538 606.829 297.18 605.268 294.933C603.694 292.691 601.995 290.549 600.18 288.518L597.381 285.525L594.329 282.745C592.344 280.82 590.004 279.323 587.918 277.399C585.832 275.474 583.339 274.405 581.049 272.855L575.961 269.327L581.609 266.493C584.305 265.103 587.155 263.446 589.851 261.735C592.548 260.025 595.244 258.261 597.89 256.389C603.134 252.634 608.116 248.489 612.798 243.987C615.088 241.742 617.326 239.443 619.514 237.037C621.702 234.632 623.686 232.066 625.569 229.5C627.451 226.934 629.283 224.154 630.657 221.427C632.3 218.694 633.779 215.855 635.084 212.927C636.428 210.019 637.584 207.018 638.543 203.946L639.866 199.349L640.833 194.591C641.401 191.451 641.741 188.269 641.851 185.075C642.121 178.63 641.573 172.176 640.222 165.883L639.205 161.125L637.78 156.475C636.915 153.32 635.541 150.38 634.422 147.333C633.303 144.286 631.675 141.453 630.301 138.459L623.025 122.421L636.966 131.83C639.408 133.541 642.054 135.198 644.954 136.748C647.854 138.298 650.551 139.795 653.4 141.132C659.074 143.916 664.922 146.292 670.903 148.242C673.905 149.151 676.907 150.006 679.909 150.701C682.912 151.421 685.953 151.957 689.016 152.305C692.036 152.712 695.079 152.908 698.124 152.893C701.135 152.869 704.143 152.655 707.13 152.251L711.505 151.449L715.83 150.22C718.623 149.256 721.344 148.077 723.971 146.692C725.281 146.03 726.54 145.261 727.736 144.393C729.012 143.614 730.22 142.719 731.348 141.72C733.683 139.81 735.893 137.739 737.963 135.519C739.998 133.211 741.884 130.765 743.611 128.195C745.405 125.611 747.02 122.896 748.444 120.069C750.021 117.343 751.09 114.242 752.464 111.355C753.837 108.468 754.651 105.261 755.771 102.214L762.131 84.679L765.285 102.962C765.818 105.952 766.549 108.9 767.473 111.783C770.156 120.723 774.249 129.126 779.583 136.641C783.099 141.548 787.262 145.904 791.947 149.578C794.255 151.427 796.706 153.072 799.273 154.497C801.839 155.961 804.51 157.212 807.261 158.239C810.022 159.252 812.844 160.073 815.708 160.698C818.614 161.312 821.554 161.741 824.51 161.981C827.476 162.141 830.448 162.141 833.414 161.981C836.416 161.981 839.418 161.553 842.42 161.286C845.421 161.019 848.423 160.27 851.374 159.789L860.278 157.544L869.081 154.764L877.781 151.503L889.84 146.959L882.92 158.239C881.648 160.217 880.376 162.622 879.206 164.921C878.036 167.22 876.967 169.572 875.949 172.031C873.948 176.825 872.364 181.799 871.218 186.893C870.08 191.919 869.516 197.069 869.539 202.235C869.593 207.299 870.435 212.319 872.032 217.097L873.405 220.625L875.135 224.528C876.38 226.696 877.792 228.752 879.358 230.676C880.929 232.585 882.629 234.372 884.446 236.022C886.33 237.742 888.319 239.331 890.399 240.779C892.462 242.258 894.603 243.615 896.81 244.842C898.998 246.125 901.339 247.088 903.628 248.264L910.751 251.097L918.078 253.503L923.166 255.213L918.892 258.688C916.014 261.036 913.31 263.609 910.802 266.386C908.269 269.17 905.923 272.135 903.781 275.26C902.611 276.811 901.695 278.468 900.677 280.072C899.697 281.687 898.813 283.366 898.031 285.097C897.138 286.807 896.388 288.595 895.793 290.443C895.087 292.17 894.525 293.959 894.114 295.789C893.757 297.66 893.147 299.477 892.943 301.135L892.435 306.855C892.435 308.779 892.435 310.704 892.74 312.628C892.842 314.547 893.149 316.448 893.656 318.295C893.989 320.115 894.465 321.904 895.08 323.641L897.166 328.987C897.867 330.852 898.736 332.642 899.761 334.333L902.611 339.679L903.679 341.55H901.695C894.17 341.571 886.68 342.613 879.409 344.65C875.768 345.664 872.251 347.117 868.928 348.981C868.102 349.446 867.303 349.964 866.537 350.531C865.71 351.022 864.941 351.614 864.247 352.295C863.489 352.878 862.775 353.522 862.11 354.22L860.126 356.411L862.008 354.113C862.624 353.353 863.305 352.655 864.044 352.028C864.733 351.316 865.482 350.672 866.282 350.103C867.045 349.569 867.809 348.927 868.623 348.446C871.913 346.374 875.411 344.688 879.053 343.421C886.378 340.921 893.998 339.499 901.695 339.198L900.83 341.069L897.675 335.723C896.53 334.045 895.542 332.254 894.724 330.377L892.333 325.031C891.574 323.135 890.994 321.166 890.603 319.15C889.968 317.195 889.558 315.167 889.382 313.11C889.382 311.078 888.924 308.993 888.873 306.962V300.707C888.873 298.676 889.585 296.644 889.891 294.613C890.278 292.574 890.822 290.571 891.519 288.625C892.075 286.633 892.808 284.7 893.707 282.852C894.472 281.009 895.356 279.223 896.352 277.506C897.278 275.668 898.297 273.883 899.405 272.16C901.6 268.75 904.031 265.516 906.681 262.484C909.334 259.388 912.208 256.511 915.28 253.877L916.246 259.223L908.564 256.924L900.982 254.091C898.489 252.968 895.894 251.952 893.554 250.616C891.115 249.365 888.752 247.955 886.482 246.393C884.155 244.858 881.928 243.161 879.816 241.314C877.725 239.456 875.785 237.417 874.016 235.22C872.119 233.016 870.416 230.637 868.928 228.11L866.842 224.261L865.163 220.144C863.204 214.702 862.104 208.959 861.907 203.144C861.706 197.311 862.201 191.474 863.382 185.77C864.512 180.162 866.112 174.67 868.165 169.358C869.182 166.685 870.302 164.012 871.523 161.553C872.744 159.094 874.016 156.528 875.593 153.908L880.681 160.644L871.625 164.119L862.415 167.113C859.261 168.022 856.106 168.77 852.952 169.572C849.797 170.374 846.592 170.855 843.335 171.229C840.079 171.702 836.801 171.988 833.516 172.085C830.126 172.281 826.729 172.281 823.34 172.085C820.026 171.832 816.729 171.368 813.469 170.695C810.179 170 806.933 169.089 803.751 167.968C800.577 166.781 797.483 165.37 794.491 163.745C791.483 162.104 788.607 160.209 785.892 158.078C780.467 153.88 775.636 148.894 771.544 143.27C767.481 137.731 764.065 131.701 761.368 125.308C759.993 122.138 758.787 118.889 757.755 115.578C756.657 112.204 755.773 108.758 755.109 105.261L764.624 106.009C763.454 109.324 762.385 112.692 761.113 115.953C759.809 119.253 758.349 122.482 756.738 125.629C755.253 128.835 753.553 131.926 751.65 134.877C749.655 137.872 747.48 140.729 745.137 143.431C742.708 146.096 740.089 148.562 737.301 150.808C735.928 151.969 734.465 153.006 732.926 153.908C731.458 154.937 729.928 155.866 728.347 156.688C725.181 158.343 721.898 159.737 718.527 160.858L713.439 162.195L708.351 163.157C704.976 163.608 701.576 163.804 698.175 163.745C694.772 163.752 691.372 163.52 687.999 163.05C684.577 162.623 681.179 161.999 677.823 161.179C674.516 160.431 671.259 159.468 668.054 158.399C661.68 156.303 655.456 153.73 649.432 150.701C646.379 149.258 643.428 147.654 640.528 145.997C637.628 144.339 634.778 142.575 631.776 140.651L638.442 134.289C639.917 137.497 641.494 140.597 642.817 143.912C644.179 147.179 645.385 150.515 646.43 153.908L647.956 159.254L649.076 164.6C649.76 168.134 650.27 171.703 650.602 175.292C650.8 178.853 650.8 182.423 650.602 185.984C650.447 189.575 650.039 193.148 649.381 196.676L648.261 202.022L646.735 207.368C645.623 210.805 644.298 214.163 642.766 217.418C641.282 220.658 639.581 223.784 637.678 226.773C635.816 229.695 633.812 232.514 631.675 235.22C629.487 238 627.248 240.566 624.908 243.185C622.567 245.805 620.074 248.103 617.581 250.456C612.507 255.042 607.153 259.274 601.554 263.125C598.738 265.05 595.889 266.832 593.006 268.471C590.055 270.182 587.155 271.786 583.949 273.283L584.305 266.921C586.697 268.632 589.393 270.182 591.53 271.946C593.667 273.71 596.211 275.528 598.297 277.666L601.554 280.767L604.556 284.081C606.513 286.36 608.347 288.751 610.051 291.245C611.734 293.786 613.247 296.448 614.579 299.21C615.93 301.932 617.087 304.755 618.039 307.657L619.311 312.094L620.227 316.584C620.766 319.603 621.106 322.658 621.244 325.726C621.605 337.84 619.597 349.903 615.342 361.169C611.288 372.327 605.829 382.863 599.111 392.496L597.636 390.358L601.045 389.342C602.215 388.968 603.385 388.807 604.556 388.54C606.845 388.006 609.186 387.845 611.526 387.524C616.203 387.231 620.892 387.231 625.569 387.524C634.872 388.043 644.116 389.402 653.197 391.587Z" fill="white"/>
</svg>
